# /home/hasu/ros_workspace/cram_ws/src/cram/cram_pr2/pr2_description_lowres/meshes/tilting_laser_v0/convex/tilting_hokuyo_L.obj created by IVCON.
# Original data in /home/hasu/ros_workspace/cram_ws/src/cram/cram_pr2/pr2_description_lowres/meshes/tilting_laser_v0/tilting_hokuyo_L.stl.

g IVCON

v 0.032723 0.040658 0.039969
v 0.039575 0.081316 0.010600
v 0.032723 0.081316 0.039969
v -0.007669 0.081316 0.002573
v 0.039575 0.040658 0.010600
v -0.009033 0.040658 0.010600
v -0.009033 0.081316 0.010600
v 0.022016 0.081316 0.038150
v 0.022016 0.040658 0.038150
v 0.039575 -0.040658 0.010600
v 0.039575 -0.081316 0.010600
v -0.007669 -0.081316 0.002573
v 0.032723 -0.040658 0.039969
v -0.009033 -0.040658 0.010600
v 0.022016 -0.081316 0.038150
v 0.032723 -0.081316 0.039969
v -0.009033 -0.081316 0.010600
v 0.022016 -0.040658 0.038150
v -0.013334 0.018940 0.035916
v 0.030272 -0.040658 0.038365
v 0.030272 0.040658 0.038365
v -0.008938 -0.023181 0.010039
v -0.013000 -0.040658 0.035935
v -0.013000 0.040658 0.035935
v -0.000000 0.026883 0.010039
v -0.008938 0.023181 0.010039
v -0.017754 0.081316 0.061926
v 0.009010 -0.081316 0.065459
v 0.009010 0.081316 0.065459
v 0.036904 0.081316 0.042705
v 0.036904 -0.081316 0.042705
v -0.013000 -0.081316 0.033949
v -0.013000 0.081316 0.033949
v -0.017754 -0.081316 0.061926
v 0.031859 -0.081316 0.055874
v 0.031859 0.081316 0.055874
v 0.037109 -0.081316 0.050394
v -0.063468 -0.081316 0.019616
v -0.058950 -0.081316 -0.006140
v -0.058950 0.081316 -0.006140
v -0.063468 0.081316 0.019616
v -0.037717 0.081316 0.059291
v -0.037717 -0.081316 0.059291
v 0.051418 -0.081316 0.010600
v -0.001362 -0.081316 -0.058179
v 0.051418 0.081316 0.010600
v 0.029769 0.081316 -0.049838
v -0.055282 0.081316 -0.027048
v 0.052558 -0.081316 -0.027048
v -0.001362 0.081316 -0.058179
v 0.052558 0.081316 -0.027048
v -0.055282 -0.081316 -0.027048
v 0.029769 -0.081316 -0.049838

vn 0.973845 -0.000000 0.227212
vn 0.973845 0.000000 0.227212
vn 0.973845 0.000000 0.227212
vn 0.000000 1.000000 0.000000
vn 0.000000 1.000000 0.000000
vn 0.000000 1.000000 0.000000
vn 0.167506 0.000000 -0.985871
vn 0.167506 0.000000 -0.985871
vn 0.167506 0.000000 -0.985871
vn 0.973845 -0.000000 0.227212
vn 0.973845 0.000000 0.227212
vn 0.973845 0.000000 0.227212
vn 0.000000 -0.193692 -0.981062
vn 0.000000 -0.193692 -0.981062
vn -0.000000 -0.193692 -0.981062
vn 0.000000 -1.000000 0.000000
vn 0.000000 -1.000000 0.000000
vn 0.000000 -1.000000 -0.000000
vn -0.000000 1.000000 0.000000
vn 0.000000 1.000000 0.000000
vn 0.000000 1.000000 -0.000000
vn -0.985871 -0.000000 -0.167506
vn -0.985871 0.000000 -0.167506
vn -0.985871 0.000000 -0.167506
vn -0.000000 1.000000 0.000000
vn 0.000000 1.000000 0.000000
vn 0.000000 1.000000 0.000000
vn -0.663699 0.000000 0.748000
vn -0.663699 0.000000 0.748000
vn -0.663699 0.000000 0.748000
vn -0.167506 0.000000 0.985871
vn -0.167506 0.000000 0.985871
vn -0.167506 0.000000 0.985871
vn 0.000000 -1.000000 -0.000000
vn 0.000000 -1.000000 0.000000
vn 0.000000 -1.000000 0.000000
vn -0.167506 0.000000 0.985871
vn -0.167506 0.000000 0.985871
vn -0.167506 0.000000 0.985871
vn -0.663699 0.000000 0.748000
vn -0.663699 0.000000 0.748000
vn -0.663699 0.000000 0.748000
vn 0.167506 0.000000 -0.985871
vn 0.167506 0.000000 -0.985871
vn 0.167506 0.000000 -0.985871
vn 0.973845 -0.000000 0.227212
vn 0.973845 0.000000 0.227212
vn 0.973845 0.000000 0.227212
vn 0.000000 1.000000 0.000000
vn 0.000000 1.000000 0.000000
vn 0.000000 1.000000 0.000000
vn 0.000000 0.193692 -0.981062
vn 0.000000 0.193692 -0.981062
vn 0.000000 0.193692 -0.981062
vn 0.000000 -1.000000 -0.000000
vn 0.000000 -1.000000 0.000000
vn -0.000000 -1.000000 0.000000
vn 0.973845 -0.000000 0.227212
vn 0.973845 0.000000 0.227212
vn 0.973845 0.000000 0.227212
vn -0.167506 0.000000 0.985871
vn -0.167506 0.000000 0.985871
vn -0.167506 0.000000 0.985871
vn 0.000000 -1.000000 -0.000000
vn 0.000000 -1.000000 0.000000
vn 0.000000 -1.000000 0.000000
vn -0.985871 0.000000 -0.167506
vn -0.985871 -0.000000 -0.167506
vn -0.985871 0.000000 -0.167506
vn 0.000000 -1.000000 0.000000
vn 0.000000 -1.000000 0.000000
vn 0.000000 -1.000000 0.000000
vn -0.663699 0.000000 0.748000
vn -0.663699 0.000000 0.748000
vn -0.663699 0.000000 0.748000
vn -0.000000 1.000000 0.000000
vn 0.000000 1.000000 0.000000
vn 0.000000 1.000000 0.000000
vn -0.663699 0.000000 0.748000
vn -0.663699 0.000000 0.748000
vn -0.663699 0.000000 0.748000
vn -0.167506 0.000000 0.985871
vn -0.167506 0.000000 0.985871
vn -0.167506 0.000000 0.985871
vn -0.056070 0.000000 0.998427
vn -0.056070 0.000000 0.998427
vn -0.056070 0.000000 0.998427
vn -0.985871 -0.000000 -0.167506
vn -0.985871 -0.000000 -0.167506
vn -0.985871 -0.000000 -0.167506
vn 0.000000 1.000000 0.000000
vn 0.000000 1.000000 0.000000
vn 0.000000 1.000000 0.000000
vn 0.948189 0.000000 0.317707
vn 0.948189 0.000000 0.317707
vn 0.948189 -0.000000 0.317707
vn 0.948189 -0.000000 0.317707
vn 0.948189 0.000000 0.317707
vn 0.948189 0.000000 0.317707
vn 0.000000 -1.000000 0.000000
vn 0.000000 -1.000000 0.000000
vn 0.000000 -1.000000 -0.000000
vn -0.056071 -0.000000 0.998427
vn -0.056071 -0.000000 0.998427
vn -0.056071 -0.000000 0.998427
vn -0.056071 0.000000 0.998427
vn -0.056071 0.000000 0.998427
vn -0.056071 0.000000 0.998427
vn -0.000000 1.000000 0.000000
vn 0.000000 1.000000 0.000000
vn 0.000000 1.000000 -0.000000
vn -0.987845 0.015342 -0.154680
vn -0.987845 0.015342 -0.154680
vn -0.987845 0.015342 -0.154680
vn -0.985871 0.000000 -0.167506
vn -0.985871 0.000000 -0.167506
vn -0.985871 0.000000 -0.167506
vn -0.987946 -0.005591 -0.154696
vn -0.987946 -0.005591 -0.154696
vn -0.987946 -0.005591 -0.154696
vn 0.000000 -0.032082 -0.999485
vn 0.000000 -0.032082 -0.999485
vn -0.000000 -0.032082 -0.999485
vn 0.000000 -1.000000 0.000000
vn 0.000000 -1.000000 0.000000
vn 0.000000 -1.000000 0.000000
vn 0.014174 0.000000 -0.999900
vn 0.014174 0.000000 -0.999900
vn 0.014174 0.000000 -0.999900
vn 0.010864 -0.001940 -0.999939
vn 0.010864 -0.001940 -0.999939
vn 0.010864 -0.001940 -0.999939
vn 0.000000 0.040692 -0.999172
vn 0.000000 0.040692 -0.999172
vn 0.000000 0.040692 -0.999172
vn -0.985871 -0.000000 -0.167507
vn -0.985871 0.000000 -0.167507
vn -0.985871 0.000000 -0.167507
vn -0.013258 0.032007 -0.999400
vn -0.013258 0.032007 -0.999400
vn -0.013258 0.032007 -0.999400
vn 0.000000 0.000000 -1.000000
vn 0.000000 0.000000 -1.000000
vn 0.000000 0.000000 -1.000000
vn -0.130865 0.000000 0.991400
vn -0.130865 0.000000 0.991400
vn -0.130865 0.000000 0.991400
vn 0.000000 1.000000 0.000000
vn -0.000000 1.000000 0.000000
vn 0.000000 1.000000 0.000000
vn -0.000000 -1.000000 0.000000
vn 0.000000 -1.000000 -0.000000
vn 0.000000 -1.000000 0.000000
vn -0.985871 -0.000000 -0.167506
vn -0.985871 0.000000 -0.167506
vn -0.985871 0.000000 -0.167506
vn 0.000000 1.000000 -0.000000
vn 0.000000 1.000000 0.000000
vn 0.000000 1.000000 0.000000
vn -0.985871 0.000000 -0.167506
vn -0.985871 -0.000000 -0.167506
vn -0.985871 0.000000 -0.167506
vn 0.000000 -1.000000 0.000000
vn 0.000000 -1.000000 0.000000
vn 0.000000 -1.000000 0.000000
vn -0.130865 0.000000 0.991400
vn -0.130865 0.000000 0.991400
vn -0.130865 0.000000 0.991400
vn -0.000000 -1.000000 -0.000000
vn 0.000000 -1.000000 0.000000
vn 0.000000 -1.000000 0.000000
vn 0.386835 0.000000 0.922149
vn 0.386835 0.000000 0.922149
vn 0.386835 -0.000000 0.922149
vn 0.000000 1.000000 0.000000
vn 0.000000 1.000000 0.000000
vn 0.000000 1.000000 0.000000
vn 0.386835 0.000000 0.922149
vn 0.386835 0.000000 0.922149
vn 0.386835 -0.000000 0.922149
vn 0.101542 0.000000 -0.994831
vn 0.101542 0.000000 -0.994831
vn 0.101542 0.000000 -0.994831
vn 0.172769 0.025638 -0.984629
vn 0.172769 0.025638 -0.984629
vn 0.172769 0.025638 -0.984629
vn 0.547550 0.000000 -0.836773
vn 0.547550 0.000000 -0.836773
vn 0.547550 0.000000 -0.836773
vn 0.172316 -0.076713 -0.982050
vn 0.172317 -0.076713 -0.982050
vn 0.172317 -0.076713 -0.982050
vn 0.933667 0.018088 0.357685
vn 0.933667 0.018088 0.357685
vn 0.933667 0.018088 0.357685
vn 0.722098 0.000000 0.691791
vn 0.722098 0.000000 0.691791
vn 0.722098 -0.000000 0.691791
vn 0.999645 0.000000 -0.026652
vn 0.999645 0.000000 -0.026652
vn 0.999645 0.000000 -0.026652
vn -0.000000 -1.000000 0.000000
vn 0.000000 -1.000000 0.000000
vn 0.000000 -1.000000 0.000000
vn 0.000000 -1.000000 0.000000
vn 0.000000 -1.000000 0.000000
vn 0.000000 -1.000000 0.000000
vn -0.984959 -0.000000 -0.172786
vn -0.984959 0.000000 -0.172786
vn -0.984959 0.000000 -0.172786
vn 0.167506 0.000000 -0.985871
vn 0.167506 0.000000 -0.985871
vn 0.167506 0.000000 -0.985871
vn 0.985871 0.000000 0.167506
vn 0.985871 0.000000 0.167506
vn 0.985871 -0.000000 0.167506
vn -0.000000 -1.000000 0.000000
vn 0.000000 -1.000000 -0.000000
vn 0.000000 -1.000000 0.000000
vn 0.000000 1.000000 0.000000
vn 0.000000 1.000000 0.000000
vn 0.000000 1.000000 0.000000
vn 0.985871 0.000000 0.167506
vn 0.985871 0.000000 0.167506
vn 0.985871 -0.000000 0.167506
vn 0.167506 0.000000 -0.985871
vn 0.167506 0.000000 -0.985871
vn 0.167506 0.000000 -0.985871
vn -0.000000 1.000000 0.000000
vn 0.000000 1.000000 0.000000
vn 0.000000 1.000000 -0.000000
vn -0.984959 -0.000000 -0.172786
vn -0.984959 0.000000 -0.172786
vn -0.984959 0.000000 -0.172786
vn -0.000000 1.000000 0.000000
vn 0.000000 1.000000 0.000000
vn 0.000000 1.000000 0.000000
vn -0.838808 0.000000 0.544427
vn -0.838808 0.000000 0.544427
vn -0.838808 0.000000 0.544427
vn -0.130866 0.000000 0.991400
vn -0.130866 0.000000 0.991400
vn -0.130866 0.000000 0.991400
vn 0.000000 -1.000000 -0.000000
vn 0.000000 -1.000000 0.000000
vn 0.000000 -1.000000 0.000000
vn -0.130866 0.000000 0.991400
vn -0.130866 0.000000 0.991400
vn -0.130866 0.000000 0.991400
vn -0.838808 0.000000 0.544427
vn -0.838808 0.000000 0.544427
vn -0.838808 0.000000 0.544427
vn 0.000000 -1.000000 0.000000
vn 0.000000 -1.000000 0.000000
vn 0.000000 -1.000000 0.000000
vn -0.149960 0.000000 0.988692
vn -0.149960 0.000000 0.988692
vn -0.149960 0.000000 0.988692
vn 0.000000 1.000000 -0.000000
vn -0.000000 1.000000 0.000000
vn 0.000000 1.000000 0.000000
vn -0.000000 -1.000000 0.000000
vn 0.000000 -1.000000 -0.000000
vn 0.000000 -1.000000 0.000000
vn 0.999542 0.000000 0.030267
vn 0.999542 0.000000 0.030267
vn 0.999542 -0.000000 0.030267
vn -0.149960 0.000000 0.988692
vn -0.149960 0.000000 0.988692
vn -0.149960 0.000000 0.988692
vn -0.000000 1.000000 0.000000
vn 0.000000 1.000000 0.000000
vn 0.000000 1.000000 -0.000000
vn -0.984959 -0.000000 -0.172786
vn -0.984959 0.000000 -0.172786
vn -0.984959 0.000000 -0.172786
vn -0.500003 -0.000000 -0.866024
vn -0.500003 0.000000 -0.866024
vn -0.500003 0.000000 -0.866024
vn 0.000000 1.000000 -0.000000
vn 0.000000 1.000000 0.000000
vn 0.000000 1.000000 0.000000
vn 0.258804 0.000000 -0.965930
vn 0.258804 0.000000 -0.965930
vn 0.258804 0.000000 -0.965930
vn 0.000000 1.000000 0.000000
vn 0.000000 1.000000 0.000000
vn 0.000000 1.000000 0.000000
vn 0.999542 0.000000 0.030267
vn 0.999542 0.000000 0.030267
vn 0.999542 -0.000000 0.030267
vn 0.707122 0.000000 -0.707091
vn 0.707122 0.000000 -0.707091
vn 0.707122 0.000000 -0.707091
vn 0.000000 -1.000000 0.000000
vn 0.000000 -1.000000 0.000000
vn 0.000000 -1.000000 0.000000
vn -0.984959 0.000000 -0.172786
vn -0.984959 0.000000 -0.172786
vn -0.984959 -0.000000 -0.172786
vn -0.500003 0.000000 -0.866024
vn -0.500003 -0.000000 -0.866024
vn -0.500003 0.000000 -0.866024
vn 0.258804 0.000000 -0.965930
vn 0.258804 0.000000 -0.965930
vn 0.258804 0.000000 -0.965930
vn 0.707122 0.000000 -0.707091
vn 0.707122 0.000000 -0.707091
vn 0.707122 0.000000 -0.707091
vn -0.000000 -1.000000 0.000000
vn 0.000000 -1.000000 0.000000
vn 0.000000 -1.000000 0.000000

f 1//1 2//2 3//3
f 4//4 3//5 2//6
f 5//7 4//8 2//9
f 5//10 2//11 1//12
f 6//13 4//14 5//15
f 6//16 5//17 1//18
f 7//19 3//20 4//21
f 7//22 4//23 6//24
f 8//25 3//26 7//27
f 8//28 7//29 6//30
f 8//31 1//32 3//33
f 9//34 6//35 1//36
f 9//37 1//38 8//39
f 9//40 8//41 6//42
f 10//43 11//44 12//45
f 11//46 10//47 13//48
f 14//49 13//50 10//51
f 14//52 10//53 12//54
f 15//55 12//56 11//57
f 16//58 11//59 13//60
f 16//61 13//62 15//63
f 16//64 15//65 11//66
f 17//67 14//68 12//69
f 17//70 12//71 15//72
f 17//73 15//74 14//75
f 18//76 13//77 14//78
f 18//79 14//80 15//81
f 18//82 15//83 13//84
f 19//85 20//86 21//87
f 6//88 22//89 19//90
f 5//91 6//92 21//93
f 5//94 21//95 20//96
f 10//97 5//98 20//99
f 23//100 10//101 20//102
f 23//103 20//104 19//105
f 24//106 19//107 21//108
f 24//109 21//110 6//111
f 24//112 6//113 19//114
f 14//115 19//116 22//117
f 14//118 23//119 19//120
f 14//121 22//122 10//123
f 14//124 10//125 23//126
f 25//127 5//128 10//129
f 25//130 10//131 22//132
f 25//133 6//134 5//135
f 26//136 22//137 6//138
f 26//139 6//140 25//141
f 26//142 25//143 22//144
f 27//145 28//146 29//147
f 30//148 27//149 29//150
f 31//151 28//152 32//153
f 33//154 32//155 27//156
f 33//157 27//158 30//159
f 34//160 27//161 32//162
f 34//163 32//164 28//165
f 34//166 28//167 27//168
f 35//169 28//170 31//171
f 35//172 29//173 28//174
f 36//175 30//176 29//177
f 36//178 29//179 35//180
f 20//181 32//182 33//183
f 20//184 33//185 30//186
f 20//187 30//188 31//189
f 20//190 31//191 32//192
f 37//193 30//194 36//195
f 37//196 36//197 35//198
f 37//199 31//200 30//201
f 37//202 35//203 31//204
f 34//205 38//206 39//207
f 40//208 39//209 38//210
f 12//211 39//212 40//213
f 12//214 27//215 34//216
f 12//217 34//218 39//219
f 4//220 40//221 27//222
f 4//223 27//224 12//225
f 4//226 12//227 40//228
f 41//229 27//230 40//231
f 41//232 40//233 38//234
f 42//235 27//236 41//237
f 42//238 41//239 38//240
f 42//241 34//242 27//243
f 43//244 38//245 34//246
f 43//247 34//248 42//249
f 43//250 42//251 38//252
f 44//253 39//254 45//255
f 39//256 44//257 46//258
f 47//259 48//260 46//261
f 49//262 44//263 45//264
f 49//265 46//266 44//267
f 40//268 39//269 46//270
f 40//271 46//272 48//273
f 40//274 48//275 39//276
f 50//277 45//278 48//279
f 50//280 48//281 47//282
f 50//283 47//284 45//285
f 51//286 47//287 46//288
f 51//289 46//290 49//291
f 51//292 49//293 47//294
f 52//295 45//296 39//297
f 52//298 39//299 48//300
f 52//301 48//302 45//303
f 53//304 45//305 47//306
f 53//307 47//308 49//309
f 53//310 49//311 45//312

