# /home/hasu/ros_workspace/cram_ws/src/cram/cram_pr2/pr2_description_lowres/meshes/tilting_laser_v0/convex/tilting_hokuyo.obj created by IVCON.
# Original data in /home/hasu/ros_workspace/cram_ws/src/cram/cram_pr2/pr2_description_lowres/meshes/tilting_laser_v0/tilting_hokuyo.stl.

g IVCON

v -0.060715 0.081500 0.012950
v -0.001544 -0.081500 0.063856
v 0.002408 0.079125 0.063781
v -0.060713 -0.081500 0.011662
v 0.000000 -0.081500 -0.056318
v 0.056297 -0.081500 0.001557
v 0.034259 0.081500 -0.044834
v -0.035486 0.081499 -0.044037
v 0.056296 0.081500 0.001557
v 0.034833 -0.081500 0.052715
v -0.050522 -0.081500 -0.027881
v 0.035716 0.081500 0.051286

vn -0.626756 0.015784 0.779056
vn -0.626756 0.015784 0.779056
vn -0.626756 0.015784 0.779056
vn 0.000000 -1.000000 0.000000
vn 0.000000 -1.000000 0.000000
vn 0.000000 -1.000000 -0.000000
vn -0.661511 -0.005934 0.749912
vn -0.661511 -0.005934 0.749912
vn -0.661511 -0.005934 0.749912
vn -0.000000 -1.000000 0.000000
vn 0.000000 -1.000000 0.000000
vn 0.000000 -1.000000 0.000000
vn 0.713145 -0.101013 -0.693701
vn 0.713145 -0.101013 -0.693701
vn 0.713145 -0.101013 -0.693701
vn -0.000015 1.000000 -0.000024
vn -0.000015 1.000000 -0.000024
vn -0.000015 1.000000 -0.000024
vn -0.011397 0.072659 -0.997292
vn -0.011397 0.072659 -0.997292
vn -0.011397 0.072659 -0.997292
vn 0.903268 0.000006 -0.429077
vn 0.903268 0.000006 -0.429077
vn 0.903268 0.000006 -0.429077
vn 0.000000 1.000000 0.000000
vn 0.000000 1.000000 -0.000000
vn 0.000000 1.000000 0.000000
vn 0.292832 -0.006758 0.956140
vn 0.292832 -0.006758 0.956140
vn 0.292832 -0.006758 0.956140
vn -0.000000 -1.000000 -0.000000
vn 0.000000 -1.000000 0.000000
vn 0.000000 -1.000000 0.000000
vn -0.968356 0.001960 -0.249564
vn -0.968356 0.001960 -0.249564
vn -0.968356 0.001960 -0.249564
vn -0.913504 0.044182 -0.404423
vn -0.913504 0.044182 -0.404423
vn -0.913504 0.044182 -0.404423
vn 0.000000 -1.000000 0.000000
vn 0.000000 -1.000000 0.000000
vn 0.000000 -1.000000 0.000000
vn -0.490088 -0.041093 -0.870704
vn -0.490088 -0.041093 -0.870704
vn -0.490088 -0.041093 -0.870704
vn 0.350840 0.006311 0.936414
vn 0.350840 0.006311 0.936414
vn 0.350840 0.006311 0.936414
vn 0.923999 0.000006 0.382394
vn 0.923999 0.000006 0.382394
vn 0.923999 0.000006 0.382394
vn 0.922125 -0.001603 0.386889
vn 0.922125 -0.001603 0.386889
vn 0.922125 -0.001603 0.386889
vn -0.036506 0.995105 0.091829
vn -0.036506 0.995105 0.091829
vn -0.036506 0.995105 0.091829
vn 0.000000 1.000000 0.000000
vn 0.000000 1.000000 0.000000
vn -0.000000 1.000000 0.000000

f 1//1 2//2 3//3
f 4//4 5//5 2//6
f 4//7 2//8 1//9
f 6//10 2//11 5//12
f 6//13 5//14 7//15
f 8//16 1//17 7//18
f 8//19 7//20 5//21
f 9//22 6//23 7//24
f 9//25 7//26 1//27
f 10//28 3//29 2//30
f 10//31 2//32 6//33
f 11//34 4//35 1//36
f 11//37 1//38 8//39
f 11//40 5//41 4//42
f 11//43 8//44 5//45
f 12//46 3//47 10//48
f 12//49 6//50 9//51
f 12//52 10//53 6//54
f 12//55 1//56 3//57
f 12//58 9//59 1//60

