# /home/hasu/ros_workspace/cram_ws/src/cram/cram_pr2/pr2_description_lowres/meshes/upper_arm_v0/convex/elbow_flex.obj created by IVCON.
# Original data in /home/hasu/ros_workspace/cram_ws/src/cram/cram_pr2/pr2_description_lowres/meshes/upper_arm_v0/elbow_flex.stl.

g IVCON

v 0.051127 -0.018777 -0.059425
v 0.052312 -0.000797 -0.073474
v 0.051118 0.018374 -0.059317
v 0.051951 0.011157 -0.069188
v 0.033281 -0.017667 -0.072603
v 0.006359 -0.017197 -0.079622
v 0.051949 -0.011591 -0.069159
v 0.032427 0.018056 -0.072167
v 0.006359 0.017997 -0.078800
v 0.006359 -0.018726 -0.077890
v 0.019596 0.016743 -0.077539
v 0.052215 0.005975 -0.072318
v 0.020658 -0.017633 0.077180
v 0.037388 0.016741 0.070700
v 0.006359 0.016944 0.079624
v 0.059863 0.018287 0.050232
v 0.006359 -0.018712 0.077838
v 0.059751 -0.018705 0.050080
v 0.042852 -0.017472 0.067474
v 0.052420 0.016744 0.060401
v 0.057069 -0.017472 0.055966
v 0.061131 -0.017491 0.051460
v 0.061147 0.017050 0.051476
v 0.006359 -0.017478 0.079591
v -0.063653 0.016744 -0.048417
v -0.054933 -0.017624 -0.057999
v -0.072977 -0.017156 -0.032718
v -0.077109 0.016764 -0.021190
v -0.078044 0.018276 0.000015
v -0.053751 0.018268 -0.056818
v -0.078421 -0.017470 -0.015450
v -0.078044 -0.018691 0.000015
v -0.079850 0.017085 -0.003061
v -0.079865 -0.017484 0.000015
v -0.053715 -0.018709 -0.056782
v -0.054933 0.017209 -0.057999
v -0.054114 -0.018535 0.057180
v -0.072838 -0.017470 0.032912
v -0.078828 -0.018579 0.000015
v -0.070201 0.017085 0.038174
v -0.078447 0.017085 0.015214
v -0.078447 -0.017500 0.015214
v -0.063553 -0.017159 0.048548
v -0.054920 0.017190 0.057986
v -0.079865 0.017069 0.000015
v -0.053715 0.018294 0.056782
v -0.055656 -0.017630 0.057318
v 0.006359 0.018301 -0.077920
v 0.001645 -0.017238 -0.079970
v -0.053707 0.017028 -0.056774
v -0.030098 -0.017470 -0.074046
v -0.024051 0.016744 -0.076272
v -0.046013 0.016741 -0.065413
v -0.005757 0.017216 -0.079686
v -0.045791 -0.017470 -0.065512
v 0.006359 0.018286 0.077835
v 0.006359 -0.018676 0.078037
v -0.053707 -0.018693 0.056774
v 0.001205 0.016576 0.080005
v -0.024051 -0.017159 0.076272
v -0.029659 0.017055 0.074222
v -0.046013 -0.017156 0.065413
v -0.045791 0.017055 0.065512
v -0.005758 -0.017631 0.079686
v -0.054920 -0.017605 0.057986
v 0.060299 -0.018593 0.050628
v 0.078120 0.045982 -0.000015
v 0.078107 -0.046374 -0.000015
v 0.061147 0.016262 0.051476
v 0.092593 -0.003256 0.045164
v 0.091924 -0.037323 0.027167
v 0.092588 0.044913 -0.000015
v 0.092579 -0.045536 -0.000015
v 0.075265 0.041169 0.020895
v 0.091922 0.033858 0.030938
v 0.075213 -0.041492 0.021055
v 0.092306 0.014874 0.043229
v 0.084540 -0.046299 -0.000015
v 0.091970 0.045765 -0.000015
v 0.090888 0.013857 -0.064912
v 0.092357 -0.003201 -0.071543
v 0.051288 0.017739 -0.061333
v 0.091875 -0.040101 -0.022918
v 0.091746 0.040042 -0.022385

vn 0.996462 0.000000 0.084050
vn 0.996462 0.000000 0.084050
vn 0.996462 0.000000 0.084050
vn 0.996461 -0.000000 0.084051
vn 0.996461 -0.000000 0.084051
vn 0.996461 -0.000000 0.084051
vn 0.234582 -0.312149 -0.920616
vn 0.234582 -0.312149 -0.920616
vn 0.234582 -0.312149 -0.920616
vn 0.996462 0.000000 0.084051
vn 0.996462 0.000000 0.084051
vn 0.996462 0.000000 0.084051
vn 0.349021 -0.767755 -0.537342
vn 0.349021 -0.767755 -0.537342
vn 0.349021 -0.767755 -0.537342
vn 0.282287 -0.364255 -0.887487
vn 0.282287 -0.364255 -0.887487
vn 0.282286 -0.364255 -0.887487
vn 0.006361 0.999403 -0.033963
vn 0.006361 0.999403 -0.033963
vn 0.006361 0.999403 -0.033963
vn 0.353081 0.769203 -0.532597
vn 0.353082 0.769203 -0.532597
vn 0.353081 0.769203 -0.532597
vn 0.157475 -0.740339 -0.653529
vn 0.157475 -0.740339 -0.653529
vn 0.157475 -0.740339 -0.653529
vn 0.074641 -0.980151 -0.183666
vn 0.074641 -0.980151 -0.183666
vn 0.074641 -0.980151 -0.183666
vn -0.381304 -0.002776 0.924446
vn -0.381304 -0.002776 0.924446
vn -0.381304 -0.002776 0.924446
vn -0.399183 0.022727 0.916590
vn -0.399183 0.022727 0.916590
vn -0.399183 0.022727 0.916590
vn -1.000000 0.000000 0.000000
vn -1.000000 -0.000000 0.000000
vn -1.000000 0.000000 0.000000
vn 0.129359 0.846799 -0.515944
vn 0.129359 0.846799 -0.515944
vn 0.129359 0.846799 -0.515944
vn 0.128892 0.010593 -0.991602
vn 0.128892 0.010593 -0.991602
vn 0.128892 0.010593 -0.991602
vn 0.097019 0.023233 -0.995011
vn 0.097019 0.023233 -0.995011
vn 0.097019 0.023233 -0.995011
vn 0.301638 0.504182 -0.809206
vn 0.301638 0.504182 -0.809206
vn 0.301638 0.504182 -0.809206
vn 0.293307 0.490677 -0.820492
vn 0.293307 0.490677 -0.820492
vn 0.293307 0.490677 -0.820492
vn 0.996462 -0.000000 0.084051
vn 0.996461 -0.000000 0.084051
vn 0.996461 -0.000000 0.084051
vn 0.209478 0.167453 -0.963368
vn 0.209478 0.167453 -0.963368
vn 0.209478 0.167453 -0.963368
vn 0.276375 0.046447 0.959927
vn 0.276375 0.046447 0.959927
vn 0.276375 0.046447 0.959927
vn 0.040991 0.991935 0.119934
vn 0.040991 0.991935 0.119934
vn 0.040991 0.991935 0.119934
vn -0.481857 0.043824 -0.875153
vn -0.481857 0.043824 -0.875153
vn -0.481857 0.043824 -0.875153
vn -0.461283 0.005054 -0.887239
vn -0.461283 0.005054 -0.887239
vn -0.461283 0.005054 -0.887239
vn 0.081968 -0.981830 0.171145
vn 0.081968 -0.981830 0.171145
vn 0.081968 -0.981830 0.171145
vn 0.073780 -0.987160 0.141675
vn 0.073780 -0.987160 0.141675
vn 0.073780 -0.987160 0.141675
vn 0.400720 -0.022367 0.915927
vn 0.400720 -0.022367 0.915927
vn 0.400720 -0.022367 0.915927
vn 0.195297 0.938324 0.285321
vn 0.195297 0.938324 0.285321
vn 0.195297 0.938324 0.285321
vn 0.565159 0.012479 0.824887
vn 0.565159 0.012479 0.824887
vn 0.565159 0.012479 0.824887
vn 0.247104 -0.919646 0.305273
vn 0.247104 -0.919646 0.305273
vn 0.247104 -0.919646 0.305273
vn 0.629092 -0.015260 0.777181
vn 0.629092 -0.015260 0.777181
vn 0.629092 -0.015260 0.777181
vn 0.391055 -0.848732 0.355992
vn 0.391055 -0.848732 0.355992
vn 0.391055 -0.848732 0.355992
vn 0.696306 0.000837 -0.717745
vn 0.696306 0.000837 -0.717745
vn 0.696306 0.000837 -0.717745
vn 0.707106 0.000000 -0.707108
vn 0.707106 0.000000 -0.707108
vn 0.707106 0.000000 -0.707108
vn 0.714881 0.006502 0.699216
vn 0.714881 0.006502 0.699215
vn 0.714881 0.006502 0.699215
vn 0.742772 -0.000652 0.669544
vn 0.742772 -0.000652 0.669544
vn 0.742772 -0.000652 0.669544
vn 0.392718 0.822116 0.412186
vn 0.392718 0.822116 0.412186
vn 0.392718 0.822116 0.412186
vn 0.166284 -0.000927 0.986078
vn 0.166284 -0.000927 0.986078
vn 0.166284 -0.000927 0.986078
vn -1.000000 0.000000 -0.000000
vn -1.000000 0.000000 0.000000
vn -1.000000 0.000000 0.000000
vn 0.087861 -0.814553 0.573397
vn 0.087861 -0.814553 0.573397
vn 0.087861 -0.814553 0.573397
vn -0.813521 -0.044755 -0.579811
vn -0.813521 -0.044755 -0.579811
vn -0.813521 -0.044755 -0.579811
vn -0.181959 0.980215 -0.077905
vn -0.181959 0.980215 -0.077905
vn -0.181959 0.980215 -0.077905
vn -0.255148 0.958551 -0.126802
vn -0.255148 0.958551 -0.126802
vn -0.255148 0.958551 -0.126802
vn -0.895713 0.041345 -0.442706
vn -0.895713 0.041345 -0.442706
vn -0.895713 0.041345 -0.442706
vn -0.175591 -0.981737 -0.073210
vn -0.175591 -0.981737 -0.073210
vn -0.175591 -0.981737 -0.073210
vn -0.953561 -0.013903 -0.300877
vn -0.953561 -0.013903 -0.300877
vn -0.953561 -0.013903 -0.300877
vn -0.445929 0.891193 -0.083202
vn -0.445929 0.891193 -0.083202
vn -0.445929 0.891193 -0.083202
vn -0.988648 0.012788 -0.149704
vn -0.988648 0.012788 -0.149704
vn -0.988648 0.012788 -0.149704
vn -0.551488 -0.832543 -0.052270
vn -0.551488 -0.832543 -0.052270
vn -0.551488 -0.832543 -0.052270
vn -0.995637 -0.007837 -0.092982
vn -0.995637 -0.007837 -0.092982
vn -0.995637 -0.007837 -0.092982
vn -0.000000 0.000000 1.000000
vn 0.000000 0.000000 1.000000
vn 0.000000 0.000000 1.000000
vn -0.868931 0.044244 0.492951
vn -0.868931 0.044244 0.492951
vn -0.868931 0.044244 0.492951
vn 0.707107 0.000000 -0.707107
vn 0.707107 0.000000 -0.707107
vn 0.707107 0.000000 -0.707107
vn 0.919219 0.000008 0.393746
vn 0.919219 0.000008 0.393746
vn 0.919219 0.000008 0.393746
vn 0.919519 0.001283 0.393044
vn 0.919519 0.001283 0.393044
vn 0.919519 0.001283 0.393044
vn -0.446758 -0.841675 -0.303299
vn -0.446758 -0.841675 -0.303299
vn -0.446758 -0.841675 -0.303299
vn -0.169592 -0.982856 -0.072333
vn -0.169592 -0.982856 -0.072333
vn -0.169592 -0.982856 -0.072333
vn -0.739596 -0.000000 -0.673051
vn -0.739596 0.000000 -0.673051
vn -0.739596 0.000000 -0.673051
vn -0.417364 0.843168 -0.338930
vn -0.417364 0.843168 -0.338930
vn -0.417364 0.843168 -0.338930
vn 0.707107 0.000000 -0.707107
vn 0.707107 0.000000 -0.707107
vn 0.707107 0.000000 -0.707107
vn -0.130315 -0.989827 0.057096
vn -0.130315 -0.989827 0.057096
vn -0.130315 -0.989827 0.057096
vn 0.917721 -0.019512 -0.396746
vn 0.917721 -0.019512 -0.396746
vn 0.917721 -0.019512 -0.396746
vn -0.198569 0.977489 0.071315
vn -0.198569 0.977489 0.071315
vn -0.198569 0.977489 0.071315
vn -0.940948 0.020346 0.337938
vn -0.940948 0.020346 0.337938
vn -0.940948 0.020346 0.337938
vn -0.230359 -0.970238 0.074652
vn -0.230359 -0.970238 0.074652
vn -0.230359 -0.970238 0.074652
vn -0.953270 0.000000 0.302118
vn -0.953270 0.000000 0.302118
vn -0.953270 0.000000 0.302118
vn -0.329935 -0.919379 0.214209
vn -0.329935 -0.919379 0.214209
vn -0.329935 -0.919379 0.214209
vn -0.859658 -0.012170 0.510726
vn -0.859658 -0.012170 0.510726
vn -0.859658 -0.012170 0.510726
vn -0.791531 0.031231 0.610330
vn -0.791531 0.031231 0.610330
vn -0.791531 0.031231 0.610330
vn -0.999210 -0.029073 0.027107
vn -0.999210 -0.029073 0.027107
vn -0.999210 -0.029073 0.027107
vn -0.995675 0.000000 0.092903
vn -0.995675 0.000000 0.092903
vn -0.995675 0.000000 0.092903
vn -0.551607 0.832568 0.050609
vn -0.551607 0.832568 0.050609
vn -0.551607 0.832568 0.050609
vn 0.000000 0.000000 -1.000000
vn 0.000000 0.000000 -1.000000
vn 0.000000 0.000000 -1.000000
vn -0.139682 0.988404 0.059552
vn -0.139682 0.988404 0.059552
vn -0.139682 0.988404 0.059552
vn -0.435535 0.836907 0.331506
vn -0.435535 0.836907 0.331506
vn -0.435535 0.836907 0.331506
vn 0.707108 0.000000 0.707106
vn 0.707108 0.000000 0.707106
vn 0.707108 0.000000 0.707106
vn 0.919051 -0.014199 -0.393882
vn 0.919051 -0.014199 -0.393882
vn 0.919051 -0.014199 -0.393882
vn 0.076953 -0.020764 0.996818
vn 0.076953 -0.020764 0.996818
vn 0.076953 -0.020764 0.996818
vn -0.743046 0.002859 0.669234
vn -0.743046 0.002859 0.669234
vn -0.743046 0.002859 0.669234
vn -0.448186 -0.818416 0.359618
vn -0.448186 -0.818416 0.359618
vn -0.448186 -0.818416 0.359618
vn 0.403487 -0.000739 -0.914985
vn 0.403487 -0.000739 -0.914985
vn 0.403487 -0.000739 -0.914985
vn 0.332043 0.000762 0.943264
vn 0.332043 0.000762 0.943264
vn 0.332043 0.000762 0.943264
vn 0.331495 -0.000274 0.943457
vn 0.331495 -0.000274 0.943457
vn 0.331495 -0.000274 0.943457
vn -0.183142 -0.031559 -0.982580
vn -0.183142 -0.031559 -0.982580
vn -0.183142 -0.031559 -0.982580
vn -0.078637 -0.886456 -0.456083
vn -0.078637 -0.886456 -0.456083
vn -0.078637 -0.886456 -0.456083
vn -0.048588 -0.989317 -0.137448
vn -0.048588 -0.989317 -0.137448
vn -0.048588 -0.989317 -0.137448
vn -0.443139 0.020011 -0.896230
vn -0.443139 0.020011 -0.896230
vn -0.443139 0.020011 -0.896230
vn 0.140776 0.038399 -0.989297
vn 0.140776 0.038399 -0.989297
vn 0.140776 0.038399 -0.989296
vn -0.182586 -0.031126 -0.982697
vn -0.182586 -0.031126 -0.982697
vn -0.182586 -0.031126 -0.982697
vn -0.060385 0.980302 -0.188046
vn -0.060385 0.980302 -0.188046
vn -0.060385 0.980302 -0.188046
vn -0.145161 -0.952720 -0.266933
vn -0.145161 -0.952720 -0.266933
vn -0.145161 -0.952720 -0.266933
vn -0.477738 -0.000558 -0.878502
vn -0.477738 -0.000558 -0.878502
vn -0.477738 -0.000558 -0.878502
vn -0.057354 0.990856 -0.122126
vn -0.057354 0.990856 -0.122126
vn -0.057354 0.990856 -0.122126
vn -0.076177 0.985162 -0.153794
vn -0.076177 0.985162 -0.153793
vn -0.076177 0.985162 -0.153793
vn 0.022480 0.992080 0.123581
vn 0.022480 0.992080 0.123581
vn 0.022480 0.992080 0.123582
vn -0.707107 0.000000 0.707107
vn -0.707107 0.000000 0.707107
vn -0.707107 0.000000 0.707107
vn -0.331632 -0.844355 -0.420814
vn -0.331632 -0.844355 -0.420814
vn -0.331632 -0.844355 -0.420814
vn -0.707107 0.000000 0.707107
vn -0.707107 0.000000 0.707107
vn -0.707107 0.000000 0.707107
vn -0.634885 -0.001884 -0.772604
vn -0.634885 -0.001884 -0.772604
vn -0.634885 -0.001884 -0.772604
vn -0.639189 0.000000 -0.769050
vn -0.639189 -0.000000 -0.769050
vn -0.639189 0.000000 -0.769049
vn 0.333704 -0.005159 -0.942664
vn 0.333704 -0.005159 -0.942664
vn 0.333705 -0.005159 -0.942664
vn 0.386586 0.005047 0.922239
vn 0.386586 0.005047 0.922239
vn 0.386586 0.005047 0.922239
vn 0.330729 0.000280 -0.943726
vn 0.330729 0.000280 -0.943726
vn 0.330729 0.000280 -0.943726
vn -0.058781 -0.984230 0.166842
vn -0.058781 -0.984230 0.166842
vn -0.058781 -0.984230 0.166842
vn -0.183658 0.028769 0.982569
vn -0.183658 0.028769 0.982569
vn -0.183658 0.028769 0.982569
vn -0.079173 0.865704 0.494255
vn -0.079173 0.865704 0.494255
vn -0.079173 0.865704 0.494255
vn -0.047446 0.989609 0.135729
vn -0.047446 0.989609 0.135729
vn -0.047446 0.989609 0.135729
vn -0.148367 -0.942392 0.299807
vn -0.148367 -0.942392 0.299807
vn -0.148367 -0.942392 0.299807
vn -0.443148 -0.018936 0.896248
vn -0.443148 -0.018936 0.896248
vn -0.443148 -0.018936 0.896248
vn -0.143236 0.953469 0.265291
vn -0.143236 0.953469 0.265291
vn -0.143236 0.953469 0.265291
vn -0.475095 0.000537 0.879935
vn -0.475095 0.000537 0.879935
vn -0.475095 0.000537 0.879935
vn 0.131681 -0.036042 0.990637
vn 0.131681 -0.036042 0.990637
vn 0.131681 -0.036042 0.990637
vn -0.182690 0.028023 0.982771
vn -0.182690 0.028023 0.982771
vn -0.182690 0.028023 0.982771
vn -0.059609 -0.981164 0.183750
vn -0.059609 -0.981164 0.183750
vn -0.059609 -0.981164 0.183750
vn -0.707107 -0.000000 -0.707107
vn -0.707107 -0.000000 -0.707107
vn -0.707107 -0.000000 -0.707107
vn -0.320331 -0.841520 0.435009
vn -0.320331 -0.841520 0.435009
vn -0.320331 -0.841520 0.435009
vn -0.340108 0.837575 0.427545
vn -0.340108 0.837575 0.427545
vn -0.340108 0.837575 0.427545
vn -0.707108 -0.000000 -0.707106
vn -0.707108 0.000000 -0.707106
vn -0.707108 0.000000 -0.707106
vn -0.636069 0.001895 0.771630
vn -0.636069 0.001895 0.771630
vn -0.636069 0.001895 0.771630
vn -0.640390 0.000000 0.768050
vn -0.640390 0.000000 0.768050
vn -0.640390 0.000000 0.768050
vn -0.943354 0.000133 -0.331788
vn -0.943354 0.000133 -0.331788
vn -0.943354 0.000133 -0.331788
vn -0.954382 0.030434 -0.297032
vn -0.954382 0.030434 -0.297032
vn -0.954382 0.030434 -0.297032
vn 0.179811 -0.028287 0.983294
vn 0.179811 -0.028287 0.983294
vn 0.179811 -0.028287 0.983294
vn 0.350020 -0.442924 0.825412
vn 0.350020 -0.442924 0.825412
vn 0.350020 -0.442924 0.825412
vn -0.000000 0.000000 -1.000000
vn 0.000000 0.000000 -1.000000
vn 0.000000 -0.000000 -1.000000
vn 0.998624 -0.038453 0.035666
vn 0.998624 -0.038453 0.035666
vn 0.998624 -0.038453 0.035666
vn 1.000000 -0.000104 -0.000222
vn 1.000000 -0.000104 -0.000222
vn 1.000000 -0.000104 -0.000222
vn -0.000000 0.000000 -1.000000
vn 0.000000 0.000000 -1.000000
vn 0.000000 0.000000 -1.000000
vn 0.203201 0.920694 0.333214
vn 0.203201 0.920694 0.333214
vn 0.203201 0.920694 0.333214
vn 0.071618 0.969835 0.233004
vn 0.071618 0.969835 0.233004
vn 0.071618 0.969835 0.233004
vn -0.873803 0.486225 -0.007392
vn -0.873803 0.486225 -0.007392
vn -0.873803 0.486225 -0.007392
vn -0.031910 0.782133 0.622294
vn -0.031910 0.782133 0.622294
vn -0.031910 0.782133 0.622294
vn 0.056273 -0.970917 0.232708
vn 0.056273 -0.970917 0.232708
vn 0.056273 -0.970917 0.232708
vn 0.130622 -0.948186 0.289622
vn 0.130622 -0.948186 0.289622
vn 0.130622 -0.948186 0.289622
vn -0.828240 -0.560145 0.016037
vn -0.828240 -0.560145 0.016037
vn -0.828240 -0.560145 0.016037
vn -0.022663 -0.795978 0.604900
vn -0.022663 -0.795978 0.604901
vn -0.022663 -0.795978 0.604901
vn 0.999662 0.017843 0.018914
vn 0.999662 0.017843 0.018914
vn 0.999662 0.017843 0.018914
vn 0.998318 0.044358 0.037324
vn 0.998318 0.044358 0.037324
vn 0.998318 0.044358 0.037324
vn 0.258836 0.106560 0.960026
vn 0.258836 0.106560 0.960026
vn 0.258836 0.106560 0.960026
vn 0.238812 0.531151 0.812925
vn 0.238812 0.531151 0.812925
vn 0.238812 0.531151 0.812925
vn 0.000000 0.000000 1.000000
vn 0.000000 -0.000000 1.000000
vn 0.000000 0.000000 1.000000
vn 0.066750 0.366500 -0.928020
vn 0.066750 0.366500 -0.928020
vn 0.066750 0.366500 -0.928020
vn -0.022032 0.546960 -0.836869
vn -0.022032 0.546960 -0.836869
vn -0.022032 0.546960 -0.836869
vn -0.919948 0.024498 0.391273
vn -0.919948 0.024498 0.391273
vn -0.919948 0.024498 0.391273
vn -0.996462 -0.000000 -0.084050
vn -0.996462 -0.000000 -0.084050
vn -0.996462 -0.000000 -0.084050
vn 0.001022 -0.615730 -0.787956
vn 0.001022 -0.615730 -0.787956
vn 0.001022 -0.615730 -0.787956
vn 0.000000 0.000000 1.000000
vn 0.000000 0.000000 1.000000
vn 0.000000 0.000000 1.000000
vn 0.999977 0.006671 0.000850
vn 0.999977 0.006671 0.000850
vn 0.999977 0.006671 0.000850
vn 0.122786 -0.791154 -0.599165
vn 0.122786 -0.791154 -0.599165
vn 0.122786 -0.791154 -0.599165
vn 0.995782 -0.077576 -0.048999
vn 0.995782 -0.077576 -0.048999
vn 0.995782 -0.077576 -0.048999
vn 0.091934 -0.968224 -0.232573
vn 0.091934 -0.968224 -0.232573
vn 0.091934 -0.968224 -0.232573
vn -0.166354 -0.920993 -0.352275
vn -0.166355 -0.920993 -0.352275
vn -0.166355 -0.920993 -0.352275
vn 0.011343 -0.966128 -0.257815
vn 0.011343 -0.966128 -0.257815
vn 0.011343 -0.966128 -0.257815
vn 0.000000 0.000000 1.000000
vn 0.000000 0.000000 1.000000
vn 0.000000 0.000000 1.000000
vn -0.910487 0.000128 0.413538
vn -0.910487 0.000128 0.413538
vn -0.910487 0.000128 0.413538
vn 0.035972 0.850653 -0.524495
vn 0.035972 0.850653 -0.524495
vn 0.035972 0.850653 -0.524495
vn 0.015190 0.968653 -0.247954
vn 0.015190 0.968653 -0.247954
vn 0.015190 0.968653 -0.247954
vn -0.171684 0.921193 -0.349182
vn -0.171684 0.921193 -0.349182
vn -0.171684 0.921193 -0.349182
vn 0.999171 0.035912 -0.019172
vn 0.999171 0.035912 -0.019172
vn 0.999171 0.035912 -0.019172
vn 0.987961 0.122040 -0.095076
vn 0.987961 0.122040 -0.095076
vn 0.987961 0.122040 -0.095076

f 1//1 2//2 3//3
f 4//4 3//5 2//6
f 5//7 6//8 2//9
f 7//10 2//11 1//12
f 7//13 1//14 5//15
f 7//16 5//17 2//18
f 8//19 9//20 3//21
f 8//22 3//23 4//24
f 10//25 6//26 5//27
f 10//28 5//29 1//30
f 10//31 1//32 3//33
f 10//34 3//35 9//36
f 10//37 9//38 6//39
f 11//40 9//41 8//42
f 11//43 2//44 6//45
f 11//46 6//47 9//48
f 12//49 8//50 4//51
f 12//52 11//53 8//54
f 12//55 4//56 2//57
f 12//58 2//59 11//60
f 13//61 14//62 15//63
f 16//64 15//65 14//66
f 17//67 15//68 16//69
f 17//70 16//71 18//72
f 19//73 13//74 17//75
f 19//76 17//77 18//78
f 19//79 14//80 13//81
f 20//82 16//83 14//84
f 20//85 14//86 19//87
f 21//88 19//89 18//90
f 21//91 20//92 19//93
f 22//94 21//95 18//96
f 23//97 18//98 16//99
f 23//100 22//101 18//102
f 23//103 20//104 21//105
f 23//106 21//107 22//108
f 23//109 16//110 20//111
f 24//112 13//113 15//114
f 24//115 15//116 17//117
f 24//118 17//119 13//120
f 25//121 26//122 27//123
f 28//124 29//125 30//126
f 28//127 30//128 25//129
f 28//130 25//131 27//132
f 31//133 27//134 32//135
f 31//136 28//137 27//138
f 33//139 29//140 28//141
f 33//142 28//143 31//144
f 34//145 31//146 32//147
f 34//148 33//149 31//150
f 34//151 32//152 29//153
f 34//154 29//155 33//156
f 35//157 26//158 30//159
f 35//160 29//161 32//162
f 35//163 30//164 29//165
f 35//166 27//167 26//168
f 35//169 32//170 27//171
f 36//172 26//173 25//174
f 36//175 25//176 30//177
f 36//178 30//179 26//180
f 37//181 38//182 39//183
f 29//184 37//185 39//186
f 40//187 29//188 41//189
f 40//190 41//191 38//192
f 42//193 39//194 38//195
f 42//196 38//197 41//198
f 43//199 38//200 37//201
f 43//202 40//203 38//204
f 43//205 44//206 40//207
f 45//208 39//209 42//210
f 45//211 42//212 41//213
f 45//214 41//215 29//216
f 45//217 29//218 39//219
f 46//220 29//221 40//222
f 46//223 40//224 44//225
f 46//226 44//227 37//228
f 46//229 37//230 29//231
f 47//232 37//233 44//234
f 47//235 44//236 43//237
f 47//238 43//239 37//240
f 48//241 10//242 49//243
f 10//244 48//245 50//246
f 35//247 10//248 50//249
f 51//250 52//251 49//252
f 51//253 49//254 10//255
f 51//256 10//257 35//258
f 53//259 52//260 51//261
f 54//262 48//263 49//264
f 54//265 49//266 52//267
f 54//268 52//269 48//270
f 55//271 51//272 35//273
f 55//274 53//275 51//276
f 36//277 48//278 52//279
f 36//280 52//281 53//282
f 36//283 50//284 48//285
f 36//286 35//287 50//288
f 26//289 55//290 35//291
f 26//292 35//293 36//294
f 26//295 53//296 55//297
f 26//298 36//299 53//300
f 56//301 57//302 58//303
f 57//304 56//305 59//306
f 46//307 56//308 58//309
f 60//310 58//311 57//312
f 61//313 60//314 59//315
f 61//316 59//317 56//318
f 61//319 56//320 46//321
f 62//322 58//323 60//324
f 62//325 60//326 61//327
f 63//328 61//329 46//330
f 63//331 62//332 61//333
f 64//334 57//335 59//336
f 64//337 59//338 60//339
f 64//340 60//341 57//342
f 65//343 46//344 58//345
f 65//346 58//347 62//348
f 44//349 63//350 46//351
f 44//352 46//353 65//354
f 44//355 62//356 63//357
f 44//358 65//359 62//360
f 66//361 67//362 68//363
f 67//364 66//365 69//366
f 70//367 69//368 66//369
f 71//370 70//371 66//372
f 72//373 68//374 67//375
f 73//376 70//377 71//378
f 73//379 72//380 70//381
f 73//382 68//383 72//384
f 74//385 75//386 72//387
f 74//388 72//389 67//390
f 74//391 67//392 69//393
f 74//394 69//395 75//396
f 76//397 68//398 73//399
f 76//400 73//401 71//402
f 76//403 66//404 68//405
f 76//406 71//407 66//408
f 77//409 70//410 72//411
f 77//412 72//413 75//414
f 77//415 69//416 70//417
f 77//418 75//419 69//420
f 67//421 78//422 79//423
f 80//424 81//425 2//426
f 82//427 80//428 2//429
f 1//430 67//431 82//432
f 1//433 82//434 2//435
f 1//436 2//437 81//438
f 73//439 79//440 78//441
f 73//442 81//443 79//444
f 83//445 1//446 81//447
f 83//448 81//449 73//450
f 83//451 73//452 78//453
f 68//454 1//455 83//456
f 68//457 83//458 78//459
f 68//460 78//461 67//462
f 68//463 67//464 1//465
f 84//466 80//467 82//468
f 84//469 67//470 79//471
f 84//472 82//473 67//474
f 84//475 79//476 81//477
f 84//478 81//479 80//480

