# /home/hasu/ros_workspace/cram_ws/src/cram/cram_pr2/pr2_description_lowres/meshes/upper_arm_v0/convex/forearm_roll_L.obj created by IVCON.
# Original data in /home/hasu/ros_workspace/cram_ws/src/cram/cram_pr2/pr2_description_lowres/meshes/upper_arm_v0/forearm_roll_L.stl.

g IVCON

v 0.091900 -0.021399 -0.035562
v 0.094000 0.002020 -0.004259
v 0.081774 -0.007526 -0.000323
v 0.082993 0.007526 -0.000918
v 0.091901 0.019612 -0.036214
v 0.075994 -0.007526 -0.007526
v 0.091900 -0.008227 -0.040975
v 0.077690 0.007526 -0.007526
v 0.094000 0.008153 -0.040987
v 0.094000 -0.009117 -0.040645
v 0.093999 0.018488 -0.036704
v 0.094000 -0.019742 -0.036211
v 0.085533 0.001578 0.007526
v 0.076470 0.007526 0.007492
v 0.091900 0.025146 0.032781
v 0.106500 0.023434 0.008831
v 0.106500 0.037936 -0.001927
v 0.106500 0.038056 -0.015365
v 0.094000 0.040999 0.008101
v 0.091900 0.040971 -0.008184
v 0.091900 0.034697 -0.023282
v 0.106500 0.027111 -0.015365
v -0.024500 -0.007526 -0.007526
v -0.024500 -0.007526 0.007526
v 0.078994 0.005857 0.007526
v -0.024500 0.007526 0.007526
v -0.024500 0.007526 -0.007526
v 0.076428 -0.007526 0.007526
v 0.093999 -0.029141 0.028804
v 0.080531 -0.003424 0.007526
v 0.094000 0.003182 -0.002553
v 0.094000 0.026408 0.031551
v 0.091900 0.008283 0.040952
v 0.106500 0.026516 0.013356
v 0.106500 -0.022305 0.018765
v 0.106500 -0.010001 0.040222
v 0.106500 0.020002 0.036079
v 0.091900 -0.008153 0.040987
v 0.106500 -0.020002 0.036079
v 0.091900 -0.028874 0.029117
v 0.106500 -0.037971 -0.002417
v 0.106500 -0.038056 -0.015365
v 0.094001 -0.041156 0.007628
v 0.091900 -0.040956 -0.008221
v 0.091900 -0.034803 -0.023160
v 0.106500 -0.027111 -0.015365

vn 0.637081 -0.637081 0.433884
vn 0.637081 -0.637081 0.433884
vn 0.637081 -0.637081 0.433884
vn 0.296694 0.013685 0.954874
vn 0.296694 0.013685 0.954874
vn 0.296694 0.013685 0.954874
vn 0.503965 0.770198 0.390916
vn 0.503965 0.770198 0.390916
vn 0.503965 0.770198 0.390916
vn -0.776916 0.087537 0.623490
vn -0.776916 0.087537 0.623490
vn -0.776916 0.087537 0.623490
vn -0.900050 0.073477 -0.429549
vn -0.900050 0.073477 -0.429549
vn -0.900050 0.073477 -0.429549
vn -0.890928 -0.172632 -0.420053
vn -0.890928 -0.172632 -0.420053
vn -0.890928 -0.172632 -0.420053
vn -0.327779 -0.907395 0.263049
vn -0.327779 -0.907395 0.263049
vn -0.327779 -0.907395 0.263049
vn -0.299684 0.923227 0.240502
vn -0.299684 0.923227 0.240502
vn -0.299684 0.923227 0.240502
vn -0.907853 0.102291 -0.406619
vn -0.907853 0.102291 -0.406619
vn -0.907853 0.102291 -0.406619
vn -0.776916 0.087537 0.623490
vn -0.776916 0.087537 0.623490
vn -0.776916 0.087537 0.623490
vn -0.797229 0.101773 -0.595037
vn -0.797229 0.101773 -0.595037
vn -0.797229 0.101773 -0.595037
vn 1.000000 -0.000000 0.000000
vn 1.000000 0.000000 0.000000
vn 1.000000 0.000000 0.000000
vn -0.015752 -0.380079 -0.924820
vn -0.015752 -0.380079 -0.924820
vn -0.015752 -0.380079 -0.924820
vn 0.147104 -0.019584 -0.988927
vn 0.147104 -0.019584 -0.988927
vn 0.147104 -0.019584 -0.988927
vn 0.503965 0.770197 0.390916
vn 0.503965 0.770198 0.390916
vn 0.503965 0.770197 0.390916
vn 1.000000 0.000076 0.000013
vn 1.000000 0.000076 0.000013
vn 1.000000 0.000076 0.000013
vn -0.010123 0.382863 -0.923750
vn -0.010123 0.382863 -0.923750
vn -0.010123 0.382863 -0.923750
vn 0.637082 -0.637081 0.433883
vn 0.637082 -0.637081 0.433883
vn 0.637082 -0.637081 0.433883
vn 0.018488 -0.385058 -0.922707
vn 0.018488 -0.385058 -0.922707
vn 0.018488 -0.385058 -0.922707
vn 1.000000 -0.000000 0.000000
vn 1.000000 0.000000 -0.000000
vn 1.000000 0.000000 0.000000
vn -0.503965 -0.770197 -0.390916
vn -0.503965 -0.770197 -0.390916
vn -0.503965 -0.770197 -0.390916
vn -0.405996 -0.614853 0.676109
vn -0.405996 -0.614853 0.676109
vn -0.405996 -0.614853 0.676109
vn 0.637081 -0.637081 0.433884
vn 0.637081 -0.637081 0.433884
vn 0.637081 -0.637081 0.433884
vn 0.811216 0.348399 0.469623
vn 0.811216 0.348399 0.469623
vn 0.811216 0.348399 0.469623
vn 1.000000 0.000000 0.000000
vn 1.000000 0.000000 0.000000
vn 1.000000 0.000000 0.000000
vn -0.503965 -0.770198 -0.390916
vn -0.503965 -0.770198 -0.390916
vn -0.503965 -0.770198 -0.390916
vn 0.637081 -0.637081 0.433884
vn 0.637081 -0.637081 0.433884
vn 0.637081 -0.637081 0.433884
vn 0.244537 0.969601 0.008659
vn 0.244537 0.969601 0.008659
vn 0.244537 0.969601 0.008659
vn 0.183711 0.982653 -0.025380
vn 0.183711 0.982653 -0.025380
vn 0.183711 0.982653 -0.025380
vn 0.553647 0.678441 0.482900
vn 0.553647 0.678441 0.482900
vn 0.553647 0.678441 0.482900
vn -0.866693 0.449987 0.215301
vn -0.866693 0.449987 0.215301
vn -0.866693 0.449987 0.215301
vn -0.881051 0.459370 0.112824
vn -0.881051 0.459370 0.112824
vn -0.881051 0.459370 0.112824
vn -0.004369 0.923433 -0.383734
vn -0.004369 0.923433 -0.383734
vn -0.004369 0.923433 -0.383734
vn 0.249290 0.636578 -0.729810
vn 0.249290 0.636578 -0.729810
vn 0.249290 0.636579 -0.729810
vn -0.930985 0.153636 -0.331154
vn -0.930985 0.153636 -0.331154
vn -0.930985 0.153636 -0.331154
vn -0.922585 0.356258 -0.148044
vn -0.922585 0.356258 -0.148044
vn -0.922585 0.356258 -0.148044
vn 0.879821 -0.469912 -0.071401
vn 0.879821 -0.469912 -0.071401
vn 0.879821 -0.469912 -0.071401
vn 0.811307 -0.521304 -0.264619
vn 0.811307 -0.521304 -0.264619
vn 0.811307 -0.521304 -0.264619
vn 0.862840 0.000000 -0.505478
vn 0.862839 0.000000 -0.505478
vn 0.862840 0.000000 -0.505478
vn 1.000000 0.000000 -0.000000
vn 1.000000 0.000000 0.000000
vn 1.000000 0.000000 0.000000
vn 0.000000 0.000000 -1.000000
vn 0.000000 0.000000 -1.000000
vn 0.000000 0.000000 -1.000000
vn 0.000000 0.000000 1.000000
vn 0.000000 0.000000 1.000000
vn 0.000000 0.000000 1.000000
vn -1.000000 0.000000 0.000000
vn -1.000000 -0.000000 0.000000
vn -1.000000 0.000000 0.000000
vn 0.000000 -1.000000 0.000000
vn 0.000000 -1.000000 0.000000
vn 0.000000 -1.000000 0.000000
vn 0.000000 0.000000 -1.000000
vn -0.000000 0.000000 -1.000000
vn 0.000000 0.000000 -1.000000
vn -1.000000 0.000000 0.000000
vn -1.000000 0.000000 0.000000
vn -1.000000 0.000000 -0.000000
vn 0.000000 1.000000 0.000000
vn 0.000000 1.000000 0.000000
vn 0.000000 1.000000 0.000000
vn 0.000000 -0.000000 1.000000
vn 0.000000 0.000000 1.000000
vn 0.000000 0.000000 1.000000
vn -0.000000 -1.000000 0.000000
vn 0.000000 -1.000000 0.000000
vn 0.000000 -1.000000 0.000000
vn 0.000000 0.000000 1.000000
vn 0.000000 0.000000 1.000000
vn 0.000000 0.000000 1.000000
vn 0.776916 -0.087537 -0.623490
vn 0.776916 -0.087537 -0.623490
vn 0.776916 -0.087537 -0.623490
vn -0.000000 -1.000000 0.000000
vn 0.000000 -1.000000 -0.000000
vn 0.000000 -1.000000 0.000000
vn 0.637081 -0.637081 0.433884
vn 0.637081 -0.637081 0.433884
vn 0.637081 -0.637081 0.433884
vn 0.934697 -0.089278 -0.344051
vn 0.934697 -0.089278 -0.344051
vn 0.934697 -0.089278 -0.344051
vn 0.776916 -0.087537 -0.623490
vn 0.776916 -0.087537 -0.623490
vn 0.776916 -0.087537 -0.623490
vn 0.503965 0.770198 0.390916
vn 0.503965 0.770198 0.390916
vn 0.503965 0.770198 0.390916
vn 0.000000 1.000000 0.000000
vn 0.000000 1.000000 -0.000000
vn 0.000000 1.000000 0.000000
vn 0.000334 0.020713 0.999785
vn 0.000334 0.020713 0.999785
vn 0.000334 0.020713 0.999785
vn 0.503966 0.770197 0.390916
vn 0.503966 0.770197 0.390916
vn 0.503966 0.770197 0.390916
vn 0.000000 1.000000 0.000000
vn 0.000000 1.000000 0.000000
vn 0.000000 1.000000 0.000000
vn -0.191979 -0.683342 -0.704406
vn -0.191979 -0.683342 -0.704406
vn -0.191979 -0.683342 -0.704406
vn -0.637081 0.637081 -0.433884
vn -0.637081 0.637081 -0.433884
vn -0.637081 0.637081 -0.433884
vn -0.942622 0.233160 0.238954
vn -0.942622 0.233160 0.238954
vn -0.942622 0.233160 0.238954
vn -0.637081 0.637081 -0.433884
vn -0.637081 0.637081 -0.433884
vn -0.637081 0.637081 -0.433884
vn 1.000000 -0.000000 0.000000
vn 1.000000 0.000000 0.000000
vn 1.000000 0.000000 0.000000
vn -0.191979 -0.683342 -0.704406
vn -0.191979 -0.683342 -0.704406
vn -0.191979 -0.683342 -0.704406
vn 1.000000 0.000000 0.000000
vn 1.000000 0.000000 0.000000
vn 1.000000 0.000000 0.000000
vn 0.365587 0.894734 0.256512
vn 0.365587 0.894734 0.256512
vn 0.365587 0.894734 0.256512
vn -0.080207 0.466264 0.881002
vn -0.080207 0.466264 0.881002
vn -0.080207 0.466264 0.881002
vn 0.215638 0.133570 0.967295
vn 0.215638 0.133570 0.967295
vn 0.215638 0.133570 0.967295
vn 0.052594 0.002126 0.998614
vn 0.052594 0.002126 0.998614
vn 0.052594 0.002126 0.998614
vn -0.946809 0.000685 0.321796
vn -0.946809 0.000685 0.321796
vn -0.946809 0.000685 0.321796
vn -0.926068 -0.254416 0.278693
vn -0.926068 -0.254416 0.278693
vn -0.926068 -0.254416 0.278693
vn -0.000035 -0.382719 0.923865
vn -0.000035 -0.382719 0.923865
vn -0.000035 -0.382719 0.923865
vn -0.125216 -0.507424 0.852550
vn -0.125216 -0.507424 0.852550
vn -0.125216 -0.507424 0.852550
vn 0.543794 -0.831894 0.110641
vn 0.543794 -0.831894 0.110641
vn 0.543794 -0.831894 0.110641
vn 1.000000 -0.000000 0.000000
vn 1.000000 0.000000 0.000000
vn 1.000000 0.000000 0.000000
vn -0.637081 0.637081 -0.433884
vn -0.637081 0.637081 -0.433884
vn -0.637081 0.637081 -0.433884
vn 1.000000 0.000000 -0.000000
vn 1.000000 0.000000 0.000000
vn 1.000000 0.000000 0.000000
vn 0.776877 -0.133633 -0.615308
vn 0.776877 -0.133633 -0.615308
vn 0.776877 -0.133633 -0.615308
vn -0.637081 0.637081 -0.433884
vn -0.637081 0.637081 -0.433884
vn -0.637081 0.637081 -0.433884
vn 0.191979 0.683342 0.704406
vn 0.191979 0.683342 0.704406
vn 0.191979 0.683342 0.704406
vn 0.616668 -0.632923 0.468112
vn 0.616668 -0.632923 0.468112
vn 0.616668 -0.632923 0.468112
vn 1.000000 0.000000 0.000000
vn 1.000000 0.000000 0.000000
vn 1.000000 -0.000000 0.000000
vn 0.177736 -0.983421 -0.035971
vn 0.177736 -0.983421 -0.035971
vn 0.177736 -0.983421 -0.035971
vn 0.251716 -0.967780 0.006353
vn 0.251716 -0.967780 0.006353
vn 0.251716 -0.967780 0.006353
vn 0.545368 -0.703630 0.455499
vn 0.545368 -0.703630 0.455499
vn 0.545368 -0.703630 0.455499
vn -0.872833 -0.455547 0.175040
vn -0.872833 -0.455547 0.175040
vn -0.872833 -0.455548 0.175040
vn -0.880962 -0.459989 0.110979
vn -0.880962 -0.459989 0.110979
vn -0.880962 -0.459989 0.110979
vn 0.237199 -0.654863 -0.717560
vn 0.237199 -0.654863 -0.717560
vn 0.237199 -0.654863 -0.717560
vn -0.002687 -0.924639 -0.380836
vn -0.002687 -0.924639 -0.380836
vn -0.002687 -0.924639 -0.380836
vn -0.930833 -0.156413 -0.330280
vn -0.930833 -0.156413 -0.330280
vn -0.930833 -0.156413 -0.330280
vn -0.922247 -0.357468 -0.147232
vn -0.922247 -0.357468 -0.147232
vn -0.922247 -0.357468 -0.147232
vn 0.914265 0.401158 -0.056492
vn 0.914265 0.401158 -0.056492
vn 0.914265 0.401158 -0.056492
vn 1.000000 0.000000 -0.000000
vn 1.000000 0.000000 0.000000
vn 1.000000 0.000000 0.000000
vn 0.818751 0.474547 -0.323190
vn 0.818751 0.474547 -0.323190
vn 0.818751 0.474547 -0.323190
vn 0.857633 0.000000 -0.514262
vn 0.857633 0.000000 -0.514262
vn 0.857633 0.000000 -0.514262
vn -0.451377 0.451377 0.769752
vn -0.451377 0.451377 0.769752
vn -0.451377 0.451377 0.769752
vn 0.191979 0.683342 0.704406
vn 0.191979 0.683342 0.704406
vn 0.191979 0.683342 0.704406
vn -0.637081 0.637081 -0.433884
vn -0.637081 0.637082 -0.433884
vn -0.637081 0.637081 -0.433884

f 1//1 2//2 3//3
f 4//4 3//5 2//6
f 4//7 2//8 5//9
f 6//10 3//11 4//12
f 6//13 5//14 7//15
f 6//16 7//17 1//18
f 6//19 1//20 3//21
f 8//22 4//23 5//24
f 8//25 5//26 6//27
f 8//28 6//29 4//30
f 9//31 7//32 5//33
f 10//34 9//35 2//36
f 10//37 1//38 7//39
f 10//40 7//41 9//42
f 11//43 5//44 2//45
f 11//46 2//47 9//48
f 11//49 9//50 5//51
f 12//52 2//53 1//54
f 12//55 1//56 10//57
f 12//58 10//59 2//60
f 13//61 14//62 11//63
f 14//64 13//65 15//66
f 16//67 15//68 13//69
f 16//70 17//71 15//72
f 18//73 17//74 16//75
f 2//76 13//77 11//78
f 2//79 16//80 13//81
f 19//82 17//83 18//84
f 19//85 18//86 20//87
f 19//88 15//89 17//90
f 19//91 14//92 15//93
f 19//94 20//95 14//96
f 21//97 20//98 18//99
f 21//100 18//101 11//102
f 21//103 11//104 14//105
f 21//106 14//107 20//108
f 22//109 16//110 2//111
f 22//112 2//113 11//114
f 22//115 11//116 18//117
f 22//118 18//119 16//120
f 8//121 6//122 23//123
f 24//124 25//125 26//126
f 24//127 26//128 23//129
f 24//130 23//131 6//132
f 27//133 8//134 23//135
f 27//136 23//137 26//138
f 27//139 26//140 8//141
f 28//142 25//143 24//144
f 28//145 24//146 6//147
f 13//148 25//149 28//150
f 3//151 6//152 8//153
f 3//154 28//155 6//156
f 3//157 13//158 28//159
f 4//160 13//161 3//162
f 4//163 3//164 8//165
f 4//166 25//167 13//168
f 4//169 8//170 26//171
f 14//172 26//173 25//174
f 14//175 25//176 4//177
f 14//178 4//179 26//180
f 29//181 30//182 31//183
f 32//184 31//185 30//186
f 32//187 30//188 33//189
f 34//190 31//191 32//192
f 35//193 34//194 36//195
f 35//196 29//197 31//198
f 37//199 36//200 34//201
f 37//202 34//203 32//204
f 37//205 32//206 33//207
f 37//208 33//209 36//210
f 38//211 36//212 33//213
f 38//214 33//215 30//216
f 38//217 30//218 29//219
f 39//220 36//221 38//222
f 39//223 38//224 29//225
f 39//226 29//227 35//228
f 39//229 35//230 36//231
f 16//232 31//233 34//234
f 16//235 34//236 35//237
f 16//238 35//239 31//240
f 31//241 12//242 28//243
f 35//244 31//245 40//246
f 35//247 40//248 41//249
f 42//250 35//251 41//252
f 43//253 44//254 42//255
f 43//256 42//257 41//258
f 43//259 41//260 40//261
f 43//262 40//263 28//264
f 43//265 28//266 44//267
f 45//268 12//269 42//270
f 45//271 42//272 44//273
f 45//274 28//275 12//276
f 45//277 44//278 28//279
f 46//280 31//281 35//282
f 46//283 35//284 42//285
f 46//286 12//287 31//288
f 46//289 42//290 12//291
f 30//292 28//293 40//294
f 30//295 40//296 31//297
f 30//298 31//299 28//300

