# /home/hasu/ros_workspace/cram_ws/src/cram/cram_pr2/pr2_description_lowres/meshes/gripper_v0/convex/finger_tip_r.obj created by IVCON.
# Original data in /home/hasu/ros_workspace/cram_ws/src/cram/cram_pr2/pr2_description_lowres/meshes/gripper_v0/finger_tip_r.stl.

g IVCON

v 0.009143 -0.012223 -0.009150
v -0.019844 -0.028400 -0.009150
v -0.022888 -0.013548 -0.009150
v 0.009143 -0.012223 0.009150
v -0.004252 0.004574 0.009150
v -0.019844 -0.028400 0.009150
v -0.004252 0.004574 -0.009150
v -0.022888 -0.013548 0.009150
v -0.025430 -0.021807 -0.009150
v -0.025430 -0.021807 0.009150
v -0.011279 -0.027249 -0.009150
v -0.011279 -0.027249 0.009150
v -0.003787 0.011945 0.010411
v 0.022750 0.011945 0.011500
v -0.001629 0.014945 -0.008326
v 0.029036 0.011945 -0.008721
v -0.001250 0.006945 -0.011500
v 0.030543 0.013880 0.003000
v 0.030543 0.005011 0.003000
v 0.025000 -0.000555 -0.009150
v 0.025000 -0.000555 0.009150

vn 0.000000 0.000000 -1.000000
vn 0.000000 0.000000 -1.000000
vn 0.000000 0.000000 -1.000000
vn 0.000000 0.000000 1.000000
vn 0.000000 0.000000 1.000000
vn 0.000000 0.000000 1.000000
vn 0.781831 0.623490 0.000000
vn 0.781831 0.623490 -0.000000
vn 0.781831 0.623490 0.000000
vn -0.697161 0.716915 0.000000
vn -0.697161 0.716915 0.000000
vn -0.697161 0.716915 0.000000
vn 0.781831 0.623490 -0.000000
vn 0.781831 0.623490 0.000000
vn 0.781831 0.623490 0.000000
vn 0.000000 -0.000000 -1.000000
vn -0.000000 0.000000 -1.000000
vn 0.000000 0.000000 -1.000000
vn -0.000000 0.000000 1.000000
vn 0.000000 -0.000000 1.000000
vn 0.000000 0.000000 1.000000
vn -0.697161 0.716915 0.000000
vn -0.697161 0.716915 0.000000
vn -0.697161 0.716915 0.000000
vn -0.955754 0.294167 0.000000
vn -0.955754 0.294167 0.000000
vn -0.955754 0.294167 0.000000
vn 0.000000 0.000000 -1.000000
vn 0.000000 -0.000000 -1.000000
vn 0.000000 0.000000 -1.000000
vn -0.762969 -0.646435 0.000000
vn -0.762969 -0.646435 0.000000
vn -0.762969 -0.646435 -0.000000
vn -0.000000 0.000000 1.000000
vn 0.000000 0.000000 1.000000
vn 0.000000 0.000000 1.000000
vn -0.955754 0.294167 0.000000
vn -0.955754 0.294167 0.000000
vn -0.955754 0.294167 0.000000
vn -0.762969 -0.646435 -0.000000
vn -0.762969 -0.646435 0.000000
vn -0.762969 -0.646435 0.000000
vn 0.592654 -0.805457 0.000000
vn 0.592654 -0.805457 0.000000
vn 0.592654 -0.805457 0.000000
vn 0.133187 -0.991091 0.000000
vn 0.133187 -0.991091 0.000000
vn 0.133187 -0.991091 0.000000
vn -0.000000 0.000000 -1.000000
vn 0.000000 0.000000 -1.000000
vn 0.000000 0.000000 -1.000000
vn 0.000000 -0.000000 1.000000
vn 0.000000 0.000000 1.000000
vn 0.000000 0.000000 1.000000
vn 0.133187 -0.991091 0.000000
vn 0.133187 -0.991091 0.000000
vn 0.133187 -0.991091 0.000000
vn 0.592654 -0.805457 0.000000
vn 0.592654 -0.805457 0.000000
vn 0.592654 -0.805457 0.000000
vn -0.040891 -0.073868 0.996429
vn -0.040891 -0.073868 0.996429
vn -0.040891 -0.073868 0.996429
vn 0.024200 0.369667 -0.928849
vn 0.024200 0.369667 -0.928849
vn 0.024200 0.369667 -0.928849
vn -0.008794 0.976731 0.214288
vn -0.008794 0.976731 0.214288
vn -0.008794 0.976731 0.214288
vn -0.022079 0.987577 0.155579
vn -0.022079 0.987577 0.155579
vn -0.022079 0.987577 0.155579
vn 0.093665 0.980302 -0.173879
vn 0.093665 0.980302 -0.173879
vn 0.093665 0.980302 -0.173879
vn 0.991836 0.000000 -0.127523
vn 0.991836 0.000000 -0.127523
vn 0.991836 0.000000 -0.127523
vn 0.914574 -0.285466 -0.286467
vn 0.914574 -0.285466 -0.286467
vn 0.914574 -0.285466 -0.286467
vn 0.592654 -0.805458 0.000000
vn 0.592654 -0.805458 0.000000
vn 0.592654 -0.805458 0.000000
vn 0.090565 0.004937 -0.995878
vn 0.090565 0.004937 -0.995878
vn 0.090565 0.004937 -0.995878
vn 0.064106 -0.087124 -0.994133
vn 0.064106 -0.087124 -0.994133
vn 0.064106 -0.087124 -0.994133
vn 0.592654 -0.805458 0.000000
vn 0.592654 -0.805458 0.000000
vn 0.592654 -0.805458 0.000000
vn 0.708569 -0.705641 0.000000
vn 0.708569 -0.705641 0.000000
vn 0.708569 -0.705641 0.000000
vn 0.742814 0.000000 0.669498
vn 0.742814 -0.000000 0.669498
vn 0.742814 0.000000 0.669498
vn 0.736474 0.005394 0.676444
vn 0.736474 0.005394 0.676444
vn 0.736474 0.005394 0.676444
vn 0.119637 -0.162595 0.979413
vn 0.119637 -0.162595 0.979413
vn 0.119637 -0.162595 0.979413
vn -0.991628 0.079934 -0.101411
vn -0.991628 0.079934 -0.101411
vn -0.991628 0.079934 -0.101411
vn -0.989708 0.009756 -0.142768
vn -0.989708 0.009756 -0.142768
vn -0.989708 0.009756 -0.142768
vn -0.855291 -0.485833 -0.180121
vn -0.855291 -0.485833 -0.180121
vn -0.855291 -0.485833 -0.180121
vn -0.781831 -0.623490 0.000000
vn -0.781831 -0.623490 0.000000
vn -0.781831 -0.623490 -0.000000
vn -0.192668 -0.153647 0.969160
vn -0.192668 -0.153647 0.969160
vn -0.192668 -0.153647 0.969160

f 1//1 2//2 3//3
f 4//4 5//5 6//6
f 4//7 1//8 5//9
f 7//10 3//11 5//12
f 7//13 5//14 1//15
f 7//16 1//17 3//18
f 8//19 6//20 5//21
f 8//22 5//23 3//24
f 9//25 8//26 3//27
f 9//28 3//29 2//30
f 9//31 2//32 6//33
f 10//34 6//35 8//36
f 10//37 8//38 9//39
f 10//40 9//41 6//42
f 11//43 1//44 4//45
f 11//46 6//47 2//48
f 11//49 2//50 1//51
f 12//52 4//53 6//54
f 12//55 6//56 11//57
f 12//58 11//59 4//60
f 13//61 4//62 14//63
f 15//64 16//65 17//66
f 18//67 13//68 14//69
f 18//70 15//71 13//72
f 18//73 16//74 15//75
f 18//76 19//77 16//78
f 20//79 16//80 19//81
f 20//82 4//83 1//84
f 20//85 17//86 16//87
f 20//88 1//89 17//90
f 21//91 4//92 20//93
f 21//94 20//95 19//96
f 21//97 19//98 18//99
f 21//100 18//101 14//102
f 21//103 14//104 4//105
f 5//106 13//107 15//108
f 5//109 15//110 17//111
f 5//112 17//113 1//114
f 5//115 1//116 4//117
f 5//118 4//119 13//120

