# /home/hasu/ros_workspace/cram_ws/src/cram/cram_pr2/pr2_description_lowres/meshes/gripper_v0/convex/l_finger.obj created by IVCON.
# Original data in /home/hasu/ros_workspace/cram_ws/src/cram/cram_pr2/pr2_description_lowres/meshes/gripper_v0/l_finger.stl.

g IVCON

v 0.078675 0.031989 0.010756
v 0.010452 0.045752 -0.019524
v 0.005322 0.043174 0.021422
v 0.041949 0.014687 0.027750
v 0.093354 0.002474 0.011866
v 0.094388 0.004810 -0.012383
v -0.000886 -0.008792 0.026133
v -0.003470 -0.004895 -0.027750
v 0.075760 0.033098 -0.011661
v -0.006916 0.021212 -0.025356
v -0.008125 0.016356 0.025357
v 0.044214 0.019609 -0.027230

vn 0.161899 0.983378 0.082198
vn 0.161899 0.983378 0.082198
vn 0.161899 0.983378 0.082198
vn 0.194934 0.444815 0.874151
vn 0.194933 0.444815 0.874151
vn 0.194933 0.444815 0.874151
vn 0.891218 0.446285 0.080995
vn 0.891218 0.446285 0.080995
vn 0.891218 0.446285 0.080995
vn 0.332315 0.199938 0.921733
vn 0.332315 0.199938 0.921733
vn 0.332315 0.199938 0.921733
vn 0.183594 -0.396884 0.899320
vn 0.183594 -0.396884 0.899320
vn 0.183594 -0.396884 0.899320
vn 0.106876 -0.991300 -0.076820
vn 0.106876 -0.991300 -0.076819
vn 0.106876 -0.991300 -0.076820
vn 0.112354 -0.989535 -0.090535
vn 0.112354 -0.989535 -0.090535
vn 0.112354 -0.989535 -0.090535
vn 0.187354 0.981994 0.024218
vn 0.187354 0.981994 0.024218
vn 0.187354 0.981994 0.024218
vn 0.831490 0.549612 -0.080933
vn 0.831490 0.549612 -0.080933
vn 0.831490 0.549612 -0.080933
vn -0.807308 0.586626 -0.064211
vn -0.807308 0.586626 -0.064211
vn -0.807308 0.586626 -0.064211
vn -0.892416 0.450683 0.021880
vn -0.892416 0.450683 0.021880
vn -0.892416 0.450683 0.021880
vn -0.960864 -0.275784 0.026133
vn -0.960864 -0.275784 0.026133
vn -0.960864 -0.275784 0.026133
vn -0.991185 -0.127545 -0.035843
vn -0.991185 -0.127545 -0.035843
vn -0.991185 -0.127545 -0.035843
vn -0.047154 0.017245 0.998739
vn -0.047154 0.017245 0.998739
vn -0.047154 0.017245 0.998739
vn -0.041575 0.165426 0.985346
vn -0.041575 0.165426 0.985345
vn -0.041575 0.165426 0.985345
vn 0.341415 0.247966 -0.906614
vn 0.341415 0.247966 -0.906614
vn 0.341415 0.247966 -0.906614
vn 0.178170 -0.327019 -0.928070
vn 0.178170 -0.327019 -0.928070
vn 0.178170 -0.327019 -0.928070
vn -0.033770 0.086843 -0.995649
vn -0.033770 0.086843 -0.995649
vn -0.033770 0.086843 -0.995649
vn 0.198913 0.504533 -0.840167
vn 0.198913 0.504533 -0.840167
vn 0.198913 0.504533 -0.840167
vn -0.027652 0.249607 -0.967952
vn -0.027652 0.249607 -0.967952
vn -0.027652 0.249607 -0.967952

f 1//1 2//2 3//3
f 1//4 3//5 4//6
f 5//7 6//8 1//9
f 5//10 1//11 4//12
f 5//13 4//14 7//15
f 5//16 7//17 8//18
f 5//19 8//20 6//21
f 9//22 2//23 1//24
f 9//25 1//26 6//27
f 10//28 3//29 2//30
f 11//31 3//32 10//33
f 11//34 8//35 7//36
f 11//37 10//38 8//39
f 11//40 7//41 4//42
f 11//43 4//44 3//45
f 12//46 9//47 6//48
f 12//49 6//50 8//51
f 12//52 8//53 10//54
f 12//55 2//56 9//57
f 12//58 10//59 2//60

