# /home/hasu/ros_workspace/cram_ws/src/cram/cram_pr2/pr2_description_lowres/meshes/shoulder_v0/convex/upper_arm_roll_L.obj created by IVCON.
# Original data in /home/hasu/ros_workspace/cram_ws/src/cram/cram_pr2/pr2_description_lowres/meshes/shoulder_v0/upper_arm_roll_L.stl.

g IVCON

v 0.118870 0.035376 -0.005048
v 0.121370 0.035379 -0.005028
v 0.119535 0.044155 0.057132
v 0.121370 0.070655 -0.010028
v 0.121370 0.068741 0.022630
v 0.118870 0.070655 -0.010028
v 0.118870 0.068741 0.022630
v 0.121370 0.056859 0.044551
v 0.118870 0.072178 0.000000
v 0.118870 0.057885 0.043060
v 0.121370 0.044117 0.056864
v 0.121370 0.072178 0.000000
v 0.121370 -0.035376 0.005048
v 0.119535 -0.044155 -0.057132
v 0.118870 -0.035376 0.005048
v 0.121370 -0.070655 0.010028
v 0.121370 -0.068741 -0.022630
v 0.118870 -0.070655 0.010028
v 0.118870 -0.072178 0.000000
v 0.118870 -0.068741 -0.022630
v 0.121370 -0.056859 -0.044551
v 0.118870 -0.057885 -0.043060
v 0.121370 -0.044117 -0.056864
v 0.121370 -0.072178 -0.000000
v 0.121370 -0.040368 -0.030310
v 0.118870 0.057065 -0.044172
v 0.121370 0.068741 -0.022630
v 0.118870 -0.040368 -0.030310
v 0.121370 0.056993 -0.044162
v 0.118870 0.068741 -0.022630
v 0.118870 -0.068741 0.022630
v 0.118870 0.040368 0.030310
v 0.119494 -0.057115 0.044179
v 0.121370 0.040368 0.030310
v 0.121370 -0.068741 0.022630
v 0.121370 -0.056841 0.044140
v 0.118870 -0.057065 0.044172
v 0.121370 -0.057885 0.043060
v 0.118870 0.000000 -0.072178
v 0.140370 -0.030072 -0.067006
v 0.140370 0.030072 -0.067006
v 0.140370 0.030072 -0.052994
v 0.121370 0.030072 -0.067006
v 0.140370 -0.030072 -0.052994
v 0.121370 -0.030072 -0.067006
v 0.121327 0.057065 -0.044172
v 0.118870 -0.000000 0.072178
v 0.140370 0.030072 0.052994
v 0.140370 -0.030072 0.067006
v 0.121370 0.000000 0.072178
v 0.140370 0.030072 0.067006
v 0.140370 -0.030072 0.052994
v 0.121370 -0.030072 0.067006
v 0.121370 0.030072 0.067006
v 0.118870 -0.043060 0.057885

vn -0.000000 -0.990181 0.139790
vn -0.000000 -0.990181 0.139790
vn -0.000000 -0.990181 0.139790
vn 1.000000 0.000000 0.000000
vn 1.000000 0.000000 0.000000
vn 1.000000 -0.000000 0.000000
vn -0.000000 -0.139790 -0.990181
vn 0.000000 -0.139790 -0.990181
vn 0.000000 -0.139790 -0.990181
vn 0.007986 -0.140341 -0.990071
vn 0.007987 -0.140341 -0.990071
vn 0.007987 -0.140341 -0.990071
vn -1.000000 0.000000 -0.000000
vn -1.000000 0.000000 0.000000
vn -1.000000 0.000000 0.000000
vn 1.000000 0.000000 0.000000
vn 1.000000 0.000000 0.000000
vn 1.000000 0.000000 0.000000
vn -1.000000 -0.000000 0.000000
vn -1.000000 0.000000 0.000000
vn -1.000000 0.000000 0.000000
vn 0.000000 0.988662 0.150156
vn -0.000000 0.988662 0.150156
vn 0.000000 0.988662 0.150156
vn 0.000000 0.988662 -0.150156
vn 0.000000 0.988662 -0.150156
vn 0.000000 0.988662 -0.150156
vn -0.124820 0.707185 0.695923
vn -0.124820 0.707185 0.695923
vn -0.124820 0.707185 0.695923
vn 0.000000 0.883070 0.469242
vn 0.000000 0.883070 0.469242
vn -0.000000 0.883070 0.469242
vn 0.076375 0.876588 0.475143
vn 0.076375 0.876588 0.475143
vn 0.076375 0.876588 0.475143
vn -0.999348 -0.032692 0.015296
vn -0.999348 -0.032692 0.015296
vn -0.999348 -0.032692 0.015296
vn -1.000000 0.000000 -0.000000
vn -1.000000 -0.000000 0.000000
vn -1.000000 0.000000 0.000000
vn 0.000001 -0.990181 0.139790
vn 0.000001 -0.990181 0.139790
vn 0.000002 -0.990181 0.139790
vn 1.000000 0.000000 0.000000
vn 1.000000 0.000000 0.000000
vn 1.000000 0.000000 0.000000
vn 0.118463 0.689993 0.714056
vn 0.118463 0.689993 0.714056
vn 0.118463 0.689993 0.714056
vn 1.000000 0.000000 0.000000
vn 1.000000 0.000000 0.000000
vn 1.000000 0.000000 -0.000000
vn 0.000000 0.988662 -0.150156
vn 0.000000 0.988662 -0.150156
vn 0.000000 0.988662 -0.150156
vn 0.000000 0.988662 0.150156
vn -0.000000 0.988662 0.150156
vn 0.000000 0.988662 0.150156
vn 0.000000 0.990181 -0.139790
vn 0.000000 0.990181 -0.139790
vn 0.000000 0.990181 -0.139790
vn 1.000000 0.000000 0.000000
vn 1.000000 0.000000 0.000000
vn 1.000000 0.000000 -0.000000
vn 0.000000 0.139790 0.990181
vn -0.000000 0.139790 0.990181
vn 0.000000 0.139790 0.990181
vn 0.000000 -0.988662 0.150156
vn 0.000000 -0.988662 0.150156
vn 0.000000 -0.988662 0.150156
vn -0.000000 0.139790 0.990181
vn 0.000000 0.139790 0.990181
vn 0.000000 0.139790 0.990181
vn -1.000000 0.000000 -0.000000
vn -1.000000 -0.000000 0.000000
vn -1.000000 0.000000 0.000000
vn -1.000000 0.000000 0.000000
vn -1.000000 0.000000 0.000000
vn -1.000000 0.000000 0.000000
vn 0.000000 -0.988662 -0.150156
vn -0.000000 -0.988662 -0.150156
vn 0.000000 -0.988662 -0.150156
vn 1.000000 0.000000 -0.000000
vn 1.000000 0.000000 0.000000
vn 1.000000 -0.000000 0.000000
vn -0.124820 -0.707185 -0.695923
vn -0.124820 -0.707185 -0.695923
vn -0.124820 -0.707185 -0.695923
vn 0.000000 -0.883070 -0.469242
vn -0.000000 -0.883070 -0.469242
vn 0.000000 -0.883070 -0.469242
vn 0.076375 -0.876588 -0.475143
vn 0.076375 -0.876588 -0.475143
vn 0.076375 -0.876588 -0.475143
vn -0.999348 0.032692 -0.015296
vn -0.999348 0.032692 -0.015296
vn -0.999348 0.032692 -0.015296
vn -1.000000 0.000000 0.000000
vn -1.000000 0.000000 0.000000
vn -1.000000 0.000000 0.000000
vn 0.000001 0.990181 -0.139790
vn 0.000001 0.990181 -0.139790
vn 0.000001 0.990181 -0.139790
vn 1.000000 0.000000 -0.000000
vn 1.000000 0.000000 0.000000
vn 1.000000 -0.000000 0.000000
vn 0.118463 -0.689993 -0.714056
vn 0.118463 -0.689993 -0.714056
vn 0.118463 -0.689993 -0.714056
vn 1.000000 -0.000000 0.000000
vn 1.000000 0.000000 0.000000
vn 1.000000 0.000000 0.000000
vn 0.000000 -0.988662 0.150156
vn 0.000000 -0.988662 0.150156
vn 0.000000 -0.988662 0.150156
vn -0.000000 -0.988662 -0.150156
vn 0.000000 -0.988662 -0.150156
vn 0.000000 -0.988662 -0.150156
vn 0.000000 -0.990181 0.139790
vn 0.000000 -0.990181 0.139790
vn 0.000000 -0.990181 0.139790
vn -1.000000 -0.000000 0.000000
vn -1.000000 0.000000 0.000000
vn -1.000000 0.000000 0.000000
vn 0.000000 0.140768 0.990043
vn -0.000000 0.140768 0.990043
vn 0.000000 0.140768 0.990043
vn 1.000000 0.000000 0.000000
vn 1.000000 0.000000 0.000000
vn 1.000000 0.000000 0.000000
vn -1.000000 0.000000 0.000000
vn -1.000000 0.000000 -0.000000
vn -1.000000 0.000000 0.000000
vn 0.000000 -0.140854 -0.990030
vn 0.000000 -0.140854 -0.990030
vn -0.000000 -0.140854 -0.990030
vn 0.000000 -0.990181 0.139790
vn 0.000000 -0.990181 0.139790
vn 0.000000 -0.990181 0.139790
vn -0.000031 -0.140855 -0.990030
vn -0.000031 -0.140855 -0.990030
vn -0.000031 -0.140855 -0.990030
vn 0.027091 0.877512 -0.478788
vn 0.027091 0.877512 -0.478788
vn 0.027091 0.877512 -0.478788
vn 1.000000 0.000000 -0.000000
vn 1.000000 0.000000 0.000000
vn 1.000000 -0.000000 0.000000
vn 0.000000 0.140768 0.990043
vn -0.000000 0.140768 0.990043
vn 0.000000 0.140768 0.990043
vn 1.000000 0.000000 0.000000
vn 1.000000 0.000000 0.000000
vn 1.000000 0.000000 -0.000000
vn 0.000000 0.988662 -0.150156
vn 0.000000 0.988662 -0.150156
vn 0.000000 0.988662 -0.150156
vn -1.000000 -0.000000 0.000000
vn -1.000000 0.000000 0.000000
vn -1.000000 0.000000 0.000000
vn 0.000000 0.988662 -0.150156
vn 0.000000 0.988662 -0.150156
vn 0.000000 0.988662 -0.150156
vn 0.000000 0.879155 -0.476535
vn 0.000000 0.879155 -0.476535
vn 0.000000 0.879155 -0.476535
vn -0.000000 -0.140768 -0.990043
vn 0.000000 -0.140768 -0.990043
vn 0.000000 -0.140768 -0.990043
vn -1.000000 0.000000 -0.000000
vn -1.000000 0.000000 0.000000
vn -1.000000 0.000000 0.000000
vn 0.000000 -0.988662 0.150156
vn 0.000000 -0.988662 0.150156
vn 0.000000 -0.988662 0.150156
vn -1.000000 0.000000 0.000000
vn -1.000000 0.000000 0.000000
vn -1.000000 0.000000 0.000000
vn -0.000000 0.140853 0.990030
vn 0.000000 0.140853 0.990030
vn 0.000000 0.140853 0.990030
vn 0.000000 0.990181 -0.139790
vn 0.000000 0.990181 -0.139790
vn 0.000000 0.990181 -0.139790
vn 0.007987 -0.140579 -0.990037
vn 0.007987 -0.140579 -0.990037
vn 0.007987 -0.140579 -0.990037
vn 0.000000 0.990181 -0.139790
vn 0.000000 0.990181 -0.139790
vn 0.000000 0.990181 -0.139790
vn 1.000000 0.000000 -0.000000
vn 1.000000 0.000000 0.000000
vn 1.000000 -0.000000 0.000000
vn 0.000000 -0.988662 0.150156
vn 0.000000 -0.988662 0.150156
vn 0.000000 -0.988662 0.150156
vn 1.000000 -0.000000 0.000000
vn 1.000000 0.000000 0.000000
vn 1.000000 0.000000 0.000000
vn -0.000159 0.140856 0.990030
vn -0.000159 0.140856 0.990030
vn -0.000159 0.140856 0.990030
vn 1.000000 0.000000 0.000000
vn 1.000000 0.000000 0.000000
vn 1.000000 0.000000 0.000000
vn -0.076375 -0.876588 0.475143
vn -0.076376 -0.876588 0.475143
vn -0.076375 -0.876588 0.475143
vn 0.000089 0.140854 0.990030
vn 0.000089 0.140854 0.990030
vn 0.000089 0.140854 0.990030
vn -1.000000 0.000000 -0.000000
vn -1.000000 -0.000000 0.000000
vn -1.000000 0.000000 0.000000
vn 1.000000 -0.000000 0.000000
vn 1.000000 0.000000 0.000000
vn 1.000000 0.000000 0.000000
vn 0.118463 -0.714055 0.689994
vn 0.118463 -0.714055 0.689994
vn 0.118463 -0.714055 0.689994
vn -0.076376 -0.876587 0.475143
vn -0.076376 -0.876587 0.475143
vn -0.076377 -0.876587 0.475143
vn 0.000000 -0.883070 0.469242
vn 0.000000 -0.883070 0.469242
vn 0.000000 -0.883070 0.469242
vn -0.999516 -0.022404 -0.021602
vn -0.999516 -0.022404 -0.021602
vn -0.999516 -0.022404 -0.021602
vn 0.000000 -0.990181 0.139790
vn 0.000000 -0.990181 0.139790
vn 0.000000 -0.990181 0.139790
vn -1.000000 -0.000000 0.000000
vn -1.000000 0.000000 0.000000
vn -1.000000 0.000000 0.000000
vn 0.000000 0.140854 0.990030
vn -0.000000 0.140854 0.990030
vn 0.000000 0.140854 0.990030
vn 0.233886 0.000000 -0.972264
vn 0.233886 0.000000 -0.972264
vn 0.233886 0.000000 -0.972264
vn 1.000000 0.000000 0.000000
vn 1.000000 0.000000 0.000000
vn 1.000000 0.000000 -0.000000
vn -0.960303 0.122904 -0.250425
vn -0.960303 0.122904 -0.250425
vn -0.960303 0.122904 -0.250425
vn 0.000000 0.645849 -0.763465
vn 0.000000 0.645849 -0.763465
vn 0.000000 0.645849 -0.763465
vn 0.000000 0.169499 -0.985530
vn 0.000000 0.169499 -0.985530
vn 0.000000 0.169499 -0.985530
vn 1.000000 -0.000000 0.000000
vn 1.000000 0.000000 0.000000
vn 1.000000 0.000000 0.000000
vn 0.766614 -0.000000 0.642109
vn 0.766614 0.000000 0.642109
vn 0.766614 0.000000 0.642109
vn 0.547204 -0.833151 0.080176
vn 0.547204 -0.833151 0.080176
vn 0.547204 -0.833151 0.080176
vn 0.559985 -0.828503 0.000000
vn 0.559985 -0.828503 0.000000
vn 0.559985 -0.828503 0.000000
vn -0.918248 -0.140045 -0.370417
vn -0.918248 -0.140045 -0.370417
vn -0.918248 -0.140045 -0.370417
vn 0.000000 -0.169499 -0.985530
vn 0.000000 -0.169499 -0.985530
vn -0.000000 -0.169499 -0.985530
vn 0.000000 -0.574102 -0.818784
vn -0.000000 -0.574102 -0.818784
vn 0.000000 -0.574102 -0.818784
vn 0.000000 0.645849 -0.763465
vn 0.000000 0.645849 -0.763466
vn 0.000000 0.645849 -0.763465
vn 0.817115 0.576475 0.000000
vn 0.817115 0.576475 0.000000
vn 0.817115 0.576475 -0.000000
vn 0.000000 0.140854 0.990030
vn -0.000000 0.140854 0.990030
vn 0.000000 0.140854 0.990030
vn 0.550079 0.117868 0.826753
vn 0.550079 0.117868 0.826753
vn 0.550079 0.117868 0.826753
vn -0.999516 0.022404 0.021602
vn -0.999516 0.022404 0.021602
vn -0.999516 0.022404 0.021602
vn 0.537182 0.833240 -0.130944
vn 0.537182 0.833240 -0.130944
vn 0.537182 0.833240 -0.130944
vn 0.000000 -0.169499 0.985530
vn 0.000000 -0.169499 0.985530
vn 0.000000 -0.169499 0.985530
vn 0.262653 0.000000 0.964890
vn 0.262653 0.000000 0.964890
vn 0.262653 -0.000000 0.964890
vn 1.000000 0.000000 0.000000
vn 1.000000 -0.000000 0.000000
vn 1.000000 0.000000 -0.000000
vn 0.559985 0.828503 0.000000
vn 0.559985 0.828503 -0.000000
vn 0.559985 0.828503 0.000000
vn 0.000000 0.169499 0.985530
vn -0.000000 0.169499 0.985530
vn 0.000000 0.169499 0.985530
vn 1.000000 0.000000 0.000000
vn 1.000000 0.000000 0.000000
vn 1.000000 0.000000 0.000000
vn 0.791577 -0.611069 0.000000
vn 0.791577 -0.611069 0.000000
vn 0.791577 -0.611069 0.000000
vn 0.511892 -0.117789 -0.850936
vn 0.511892 -0.117789 -0.850936
vn 0.511892 -0.117789 -0.850936
vn 0.725796 0.000000 -0.687910
vn 0.725796 0.000000 -0.687910
vn 0.725796 0.000000 -0.687910
vn 0.000000 -0.169499 0.985530
vn 0.000000 -0.169499 0.985530
vn 0.000000 -0.169499 0.985530
vn -0.918248 0.140045 0.370417
vn -0.918248 0.140045 0.370417
vn -0.918248 0.140045 0.370417
vn -0.000000 0.169499 0.985530
vn 0.000000 0.169499 0.985530
vn 0.000000 0.169499 0.985530
vn -0.000000 0.574102 0.818784
vn 0.000000 0.574102 0.818784
vn 0.000000 0.574102 0.818784
vn 0.114599 -0.690952 0.713760
vn 0.114599 -0.690952 0.713760
vn 0.114599 -0.690952 0.713760
vn 0.000000 -0.574705 0.818361
vn 0.000000 -0.574705 0.818361
vn 0.000000 -0.574705 0.818361
vn -0.877084 -0.151321 0.455879
vn -0.877084 -0.151321 0.455879
vn -0.877084 -0.151321 0.455879
vn -1.000000 0.000000 0.000000
vn -1.000000 0.000000 -0.000000
vn -1.000000 0.000000 0.000000
vn -0.999360 -0.011227 -0.033968
vn -0.999360 -0.011227 -0.033968
vn -0.999360 -0.011227 -0.033968

f 1//1 2//2 3//3
f 4//4 5//5 2//6
f 4//7 1//8 6//9
f 4//10 2//11 1//12
f 7//13 6//14 1//15
f 8//16 2//17 5//18
f 9//19 6//20 7//21
f 9//22 7//23 5//24
f 9//25 4//26 6//27
f 10//28 3//29 8//30
f 10//31 5//32 7//33
f 10//34 8//35 5//36
f 10//37 1//38 3//39
f 10//40 7//41 1//42
f 11//43 3//44 2//45
f 11//46 2//47 8//48
f 11//49 8//50 3//51
f 12//52 5//53 4//54
f 12//55 4//56 9//57
f 12//58 9//59 5//60
f 13//61 14//62 15//63
f 13//64 16//65 17//66
f 13//67 15//68 16//69
f 18//70 19//71 16//72
f 18//73 16//74 15//75
f 18//76 15//77 19//78
f 20//79 19//80 15//81
f 20//82 17//83 19//84
f 21//85 13//86 17//87
f 22//88 14//89 21//90
f 22//91 17//92 20//93
f 22//94 21//95 17//96
f 22//97 15//98 14//99
f 22//100 20//101 15//102
f 23//103 14//104 13//105
f 23//106 13//107 21//108
f 23//109 21//110 14//111
f 24//112 17//113 16//114
f 24//115 16//116 19//117
f 24//118 19//119 17//120
f 15//121 25//122 13//123
f 6//124 26//125 15//126
f 6//127 15//128 13//129
f 27//130 13//131 25//132
f 28//133 15//134 26//135
f 28//136 26//137 25//138
f 28//139 25//140 15//141
f 29//142 25//143 26//144
f 29//145 26//146 27//147
f 29//148 27//149 25//150
f 4//151 6//152 13//153
f 4//154 13//155 27//156
f 4//157 27//158 6//159
f 30//160 26//161 6//162
f 30//163 6//164 27//165
f 30//166 27//167 26//168
f 16//169 18//170 1//171
f 31//172 1//173 18//174
f 31//175 18//176 16//177
f 32//178 1//179 31//180
f 32//181 33//182 34//183
f 32//184 34//185 1//186
f 2//187 16//188 1//189
f 2//190 1//191 34//192
f 2//193 34//194 16//195
f 35//196 31//197 16//198
f 35//199 16//200 34//201
f 36//202 34//203 33//204
f 36//205 35//206 34//207
f 37//208 31//209 33//210
f 37//211 33//212 32//213
f 37//214 32//215 31//216
f 38//217 35//218 36//219
f 38//220 36//221 33//222
f 38//223 33//224 31//225
f 38//226 31//227 35//228
f 14//229 28//230 39//231
f 28//232 14//233 25//234
f 26//235 39//236 28//237
f 26//238 28//239 25//240
f 40//241 39//242 41//243
f 42//244 40//245 41//246
f 43//247 39//248 26//249
f 43//250 26//251 41//252
f 43//253 41//254 39//255
f 44//256 40//257 42//258
f 44//259 42//260 25//261
f 44//262 25//263 14//264
f 44//265 14//266 40//267
f 45//268 14//269 39//270
f 45//271 39//272 40//273
f 45//274 40//275 14//276
f 46//277 41//278 26//279
f 46//280 42//281 41//282
f 46//283 26//284 25//285
f 46//286 25//287 42//288
f 3//289 32//290 47//291
f 48//292 32//293 3//294
f 49//295 50//296 47//297
f 51//298 50//299 49//300
f 51//301 49//302 48//303
f 51//304 48//305 3//306
f 51//307 47//308 50//309
f 52//310 48//311 49//312
f 52//313 49//314 33//315
f 52//316 33//317 32//318
f 52//319 32//320 48//321
f 53//322 49//323 47//324
f 54//325 3//326 47//327
f 54//328 47//329 51//330
f 54//331 51//332 3//333
f 55//334 33//335 49//336
f 55//337 49//338 53//339
f 55//340 53//341 47//342
f 55//343 47//344 32//345
f 55//346 32//347 33//348

