# /home/hasu/ros_workspace/cram_ws/src/cram/cram_pr2/pr2_description_lowres/meshes/base_v0/convex/pr2_wheel.obj created by IVCON.
# Original data in /home/hasu/ros_workspace/cram_ws/src/cram/cram_pr2/pr2_description_lowres/meshes/base_v0/pr2_wheel.stl.

g IVCON

v 0.000000 -0.016000 0.044500
v 0.000000 0.015000 0.043500
v 0.000000 0.000010 0.078196
v -0.076307 0.009750 0.000000
v -0.069029 -0.016718 0.000000
v -0.049978 -0.009733 0.057677
v -0.055846 0.016718 0.040574
v -0.044500 0.016000 0.000000
v -0.043793 -0.015707 -0.000000
v 0.000000 0.016718 0.069029
v 0.000000 -0.016718 0.069029
v -0.031699 0.009750 0.069412
v 0.076318 -0.009733 0.000000
v 0.051734 0.000010 -0.059704
v 0.069029 0.016718 0.000000
v 0.044500 -0.016000 0.000000
v -0.000000 -0.016000 -0.044500
v -0.000000 0.016000 -0.044500
v -0.000000 0.000010 -0.078196
v 0.021331 -0.016718 -0.065650
v 0.021331 0.016718 -0.065650
v 0.043793 0.015707 0.000000
v -0.000000 -0.016718 -0.069029
v -0.000000 0.016718 -0.069029
v 0.044500 0.016000 0.000000
v 0.043793 -0.015707 0.000000
v 0.079000 0.000010 0.000000
v 0.040574 0.016718 0.055846
v 0.075800 0.000010 0.022257
v 0.011243 0.000010 0.078196
v 0.040574 -0.016718 0.055846
v 0.069029 -0.016718 0.000000
v -0.044500 -0.016000 -0.000000
v 0.000000 0.015000 -0.043500
v -0.043793 0.015707 0.000000
v -0.079000 0.000010 0.000000
v -0.040574 -0.016718 -0.055846
v -0.075800 0.000010 -0.022257
v -0.040574 0.016718 -0.055846
v -0.011243 0.000010 -0.078196
v -0.069029 0.016718 0.000000

vn 1.000000 -0.000000 0.000000
vn 1.000000 0.000000 0.000000
vn 1.000000 0.000000 0.000000
vn -0.909911 -0.250201 0.330849
vn -0.909911 -0.250201 0.330849
vn -0.909911 -0.250201 0.330849
vn -0.895460 0.084001 0.437144
vn -0.895460 0.084001 0.437144
vn -0.895460 0.084001 0.437144
vn -0.192323 0.978753 -0.071101
vn -0.192323 0.978753 -0.071101
vn -0.192323 0.978753 -0.071101
vn 0.000000 0.000000 -1.000000
vn 0.000000 0.000000 -1.000000
vn 0.000000 0.000000 -1.000000
vn 0.712489 -0.022623 -0.701318
vn 0.712489 -0.022623 -0.701318
vn 0.712489 -0.022623 -0.701318
vn 0.699121 0.015589 -0.714834
vn 0.699121 0.015589 -0.714834
vn 0.699121 0.015589 -0.714834
vn 0.039988 -0.998144 -0.045924
vn 0.039988 -0.998144 -0.045924
vn 0.039988 -0.998144 -0.045924
vn -0.000000 0.000000 -1.000000
vn -0.000000 0.000000 -1.000000
vn -0.000000 0.000000 -1.000000
vn 0.087717 0.993897 -0.066885
vn 0.087717 0.993897 -0.066885
vn 0.087717 0.993897 -0.066885
vn 0.007891 0.999849 -0.015487
vn 0.007891 0.999849 -0.015487
vn 0.007891 0.999849 -0.015487
vn 1.000000 0.000000 0.000000
vn 1.000000 0.000000 0.000000
vn 1.000000 0.000000 -0.000000
vn 1.000000 -0.000000 0.000000
vn 1.000000 0.000000 -0.000000
vn 1.000000 0.000000 0.000000
vn -0.257383 -0.464383 0.847409
vn -0.257383 -0.464383 0.847409
vn -0.257383 -0.464383 0.847409
vn 0.029246 -0.999144 -0.029246
vn 0.029246 -0.999144 -0.029246
vn 0.029246 -0.999144 -0.029246
vn -0.175198 -0.968819 0.175198
vn -0.175198 -0.968819 0.175198
vn -0.175198 -0.968819 0.175198
vn -0.094715 0.478853 0.872771
vn -0.094715 0.478853 0.872771
vn -0.094715 0.478853 0.872771
vn -0.194109 0.903986 0.380960
vn -0.194109 0.903986 0.380960
vn -0.194109 0.903986 0.380960
vn -0.706014 0.267396 0.655778
vn -0.706014 0.267396 0.655778
vn -0.706014 0.267396 0.655778
vn -0.327592 -0.242649 0.913129
vn -0.327592 -0.242649 0.913129
vn -0.327592 -0.242649 0.913129
vn 0.908912 0.250465 -0.333385
vn 0.908912 0.250465 -0.333385
vn 0.908912 0.250465 -0.333385
vn 0.000000 0.000000 1.000000
vn 0.000000 0.000000 1.000000
vn 0.000000 0.000000 1.000000
vn -1.000000 0.000000 0.000000
vn -1.000000 -0.000000 0.000000
vn -1.000000 0.000000 0.000000
vn 0.324371 -0.266978 -0.907473
vn 0.324371 -0.266978 -0.907473
vn 0.324371 -0.266978 -0.907473
vn 0.192933 -0.979533 -0.057376
vn 0.192933 -0.979533 -0.057376
vn 0.192933 -0.979533 -0.057376
vn 0.503594 -0.795431 -0.337168
vn 0.503594 -0.795431 -0.337167
vn 0.503594 -0.795431 -0.337167
vn 0.324343 0.267274 -0.907395
vn 0.324343 0.267274 -0.907395
vn 0.324343 0.267274 -0.907395
vn 0.502207 0.783997 -0.364878
vn 0.502207 0.783997 -0.364878
vn 0.502207 0.783997 -0.364878
vn -0.712746 0.000000 0.701422
vn -0.712746 0.000000 0.701422
vn -0.712746 0.000000 0.701422
vn -0.707019 -0.015765 0.707019
vn -0.707019 -0.015765 0.707019
vn -0.707019 -0.015765 0.707019
vn -0.000000 0.000000 1.000000
vn 0.000000 -0.000000 1.000000
vn 0.000000 0.000000 1.000000
vn -0.039988 0.998144 0.045924
vn -0.039988 0.998144 0.045924
vn -0.039988 0.998144 0.045924
vn -0.029246 -0.999144 0.029246
vn -0.029246 -0.999144 0.029246
vn -0.029246 -0.999144 0.029246
vn -0.001835 -0.999931 0.011584
vn -0.001835 -0.999931 0.011584
vn -0.001835 -0.999931 0.011584
vn -1.000000 0.000000 0.000000
vn -1.000000 0.000000 -0.000000
vn -1.000000 0.000000 0.000000
vn 0.137595 -0.476003 -0.868613
vn 0.137595 -0.476003 -0.868613
vn 0.137595 -0.476003 -0.868613
vn -0.029246 0.999144 0.029246
vn -0.029246 0.999144 0.029246
vn -0.029246 0.999144 0.029246
vn 0.000000 1.000000 0.000000
vn 0.000000 1.000000 0.000000
vn 0.000000 1.000000 -0.000000
vn -1.000000 -0.000000 0.000000
vn -1.000000 0.000000 0.000000
vn -1.000000 0.000000 -0.000000
vn 0.137558 0.476443 -0.868378
vn 0.137558 0.476443 -0.868378
vn 0.137558 0.476443 -0.868378
vn -0.699121 0.015589 -0.714834
vn -0.699121 0.015589 -0.714834
vn -0.699121 0.015589 -0.714834
vn -0.712489 -0.022623 -0.701318
vn -0.712489 -0.022623 -0.701318
vn -0.712489 -0.022623 -0.701318
vn -0.000000 0.000000 -1.000000
vn 0.000000 0.000000 -1.000000
vn 0.000000 -0.000000 -1.000000
vn 0.480542 0.874246 0.069090
vn 0.480542 0.874246 0.069090
vn 0.480542 0.874246 0.069090
vn 0.420441 0.907143 0.017894
vn 0.420441 0.907143 0.017894
vn 0.420441 0.907143 0.017894
vn 0.606087 0.000000 0.795398
vn 0.606087 0.000000 0.795398
vn 0.606087 -0.000000 0.795398
vn 0.690091 0.000000 0.723723
vn 0.690091 -0.000000 0.723723
vn 0.690091 0.000000 0.723723
vn 0.249615 0.589476 0.768251
vn 0.249615 0.589476 0.768251
vn 0.249615 0.589476 0.768251
vn -0.087717 0.993897 -0.066885
vn -0.087717 0.993897 -0.066885
vn -0.087717 0.993897 -0.066885
vn -0.004275 0.999904 -0.013156
vn -0.004275 0.999904 -0.013156
vn -0.004275 0.999904 -0.013156
vn -1.000000 0.000000 0.000000
vn -1.000000 0.000000 0.000000
vn -1.000000 0.000000 0.000000
vn -0.631923 0.000000 0.775031
vn -0.631923 0.000000 0.775031
vn -0.631923 0.000000 0.775031
vn -1.000000 0.000000 0.000000
vn -1.000000 -0.000000 0.000000
vn -1.000000 0.000000 0.000000
vn 0.249718 -0.589016 0.768571
vn 0.249718 -0.589016 0.768571
vn 0.249718 -0.589016 0.768571
vn -0.039988 -0.998144 -0.045924
vn -0.039988 -0.998144 -0.045924
vn -0.039988 -0.998144 -0.045924
vn -0.029246 -0.999144 -0.029246
vn -0.029246 -0.999144 -0.029246
vn -0.029246 -0.999144 -0.029246
vn 0.000000 -1.000000 0.000000
vn -0.000000 -1.000000 -0.000000
vn 0.000000 -1.000000 0.000000
vn 0.641253 -0.694290 0.326735
vn 0.641253 -0.694290 0.326735
vn 0.641253 -0.694290 0.326735
vn 0.852503 -0.508149 0.122569
vn 0.852503 -0.508149 0.122569
vn 0.852503 -0.508149 0.122569
vn 0.000000 0.000000 -1.000000
vn 0.000000 0.000000 -1.000000
vn 0.000000 0.000000 -1.000000
vn 0.704515 -0.015709 0.709515
vn 0.704515 -0.015709 0.709515
vn 0.704515 -0.015709 0.709515
vn 0.706923 -0.022804 0.706923
vn 0.706923 -0.022804 0.706923
vn 0.706923 -0.022804 0.706923
vn 0.000000 -0.000000 1.000000
vn 0.000000 -0.000000 1.000000
vn 0.000000 -0.000000 1.000000
vn -0.690091 0.000000 -0.723723
vn -0.690091 0.000000 -0.723723
vn -0.690091 -0.000000 -0.723723
vn -0.606087 0.000000 -0.795398
vn -0.606087 -0.000000 -0.795398
vn -0.606087 0.000000 -0.795398
vn -0.420874 -0.906942 -0.017927
vn -0.420874 -0.906942 -0.017927
vn -0.420874 -0.906942 -0.017927
vn -0.480981 -0.873999 -0.069153
vn -0.480981 -0.873999 -0.069153
vn -0.480981 -0.873999 -0.069153
vn 0.082520 0.994340 0.066915
vn 0.082520 0.994340 0.066915
vn 0.082520 0.994340 0.066915
vn -0.249615 0.589476 -0.768251
vn -0.249615 0.589476 -0.768251
vn -0.249615 0.589476 -0.768251
vn 1.000000 0.000000 0.000000
vn 1.000000 0.000000 -0.000000
vn 1.000000 -0.000000 0.000000
vn 0.631923 0.000000 -0.775031
vn 0.631923 0.000000 -0.775031
vn 0.631923 0.000000 -0.775031
vn 1.000000 0.000000 0.000000
vn 1.000000 0.000000 0.000000
vn 1.000000 0.000000 0.000000
vn 0.029246 -0.999144 0.029246
vn 0.029246 -0.999144 0.029246
vn 0.029246 -0.999144 0.029246
vn 0.004275 -0.999904 0.013156
vn 0.004275 -0.999904 0.013156
vn 0.004275 -0.999904 0.013156
vn -0.249718 -0.589016 -0.768571
vn -0.249718 -0.589016 -0.768571
vn -0.249718 -0.589016 -0.768571
vn 0.039998 0.998399 0.039998
vn 0.039998 0.998399 0.039998
vn 0.039998 0.998399 0.039998
vn 0.000000 1.000000 0.000000
vn 0.000000 1.000000 0.000000
vn -0.000000 1.000000 -0.000000
vn 0.000000 0.000000 1.000000
vn 0.000000 0.000000 1.000000
vn 0.000000 0.000000 1.000000
vn -0.852240 0.508600 -0.122531
vn -0.852240 0.508600 -0.122531
vn -0.852240 0.508600 -0.122531
vn -0.640883 0.694720 -0.326547
vn -0.640883 0.694720 -0.326547
vn -0.640883 0.694720 -0.326547

f 1//1 2//2 3//3
f 4//4 5//5 6//6
f 4//7 6//8 7//9
f 4//10 7//11 8//12
f 4//13 8//14 5//15
f 9//16 2//17 1//18
f 9//19 8//20 2//21
f 9//22 1//23 5//24
f 9//25 5//26 8//27
f 10//28 2//29 8//30
f 10//31 8//32 7//33
f 10//34 3//35 2//36
f 11//37 1//38 3//39
f 11//40 3//41 6//42
f 11//43 5//44 1//45
f 11//46 6//47 5//48
f 12//49 3//50 10//51
f 12//52 10//53 7//54
f 12//55 7//56 6//57
f 12//58 6//59 3//60
f 13//61 14//62 15//63
f 13//64 15//65 16//66
f 17//67 18//68 19//69
f 20//70 19//71 14//72
f 20//73 13//74 16//75
f 20//76 14//77 13//78
f 21//79 14//80 19//81
f 21//82 15//83 14//84
f 22//85 18//86 17//87
f 22//88 17//89 16//90
f 22//91 16//92 15//93
f 22//94 15//95 18//96
f 23//97 16//98 17//99
f 23//100 20//101 16//102
f 23//103 17//104 19//105
f 23//106 19//107 20//108
f 24//109 18//110 15//111
f 24//112 15//113 21//114
f 24//115 19//116 18//117
f 24//118 21//119 19//120
f 2//121 25//122 26//123
f 1//124 2//125 26//126
f 27//127 26//128 25//129
f 28//130 29//131 27//132
f 28//133 27//134 25//135
f 28//136 30//137 31//138
f 28//139 31//140 29//141
f 10//142 30//143 28//144
f 10//145 25//146 2//147
f 10//148 28//149 25//150
f 10//151 2//152 1//153
f 11//154 30//155 10//156
f 11//157 10//158 1//159
f 11//160 31//161 30//162
f 32//163 1//164 26//165
f 32//166 11//167 1//168
f 32//169 31//170 11//171
f 32//172 29//173 31//174
f 32//175 27//176 29//177
f 32//178 26//179 27//180
f 33//181 34//182 35//183
f 17//184 34//185 33//186
f 36//187 33//188 35//189
f 37//190 38//191 39//192
f 37//193 39//194 40//195
f 37//196 33//197 36//198
f 37//199 36//200 38//201
f 24//202 35//203 34//204
f 24//205 40//206 39//207
f 24//208 34//209 17//210
f 23//211 40//212 24//213
f 23//214 24//215 17//216
f 23//217 17//218 33//219
f 23//220 33//221 37//222
f 23//223 37//224 40//225
f 41//226 35//227 24//228
f 41//229 24//230 39//231
f 41//232 36//233 35//234
f 41//235 38//236 36//237
f 41//238 39//239 38//240

