# /home/hasu/ros_workspace/cram_ws/src/cram/cram_pr2/pr2_description_lowres/meshes/forearm_v0/convex/wrist_flex.obj created by IVCON.
# Original data in /home/hasu/ros_workspace/cram_ws/src/cram/cram_pr2/pr2_description_lowres/meshes/forearm_v0/wrist_flex.stl.

g IVCON

v -0.034617 0.020617 0.011445
v 0.026500 0.020337 -0.030063
v -0.021778 0.020558 -0.028868
v -0.036724 -0.019139 -0.004837
v 0.027198 -0.019748 0.023894
v 0.001905 -0.020768 0.035550
v 0.015769 -0.018583 -0.040437
v 0.000075 0.018643 0.037000
v 0.027284 0.019622 0.023765
v -0.028024 -0.019811 0.023944
v -0.018802 -0.019294 -0.031849
v 0.015880 0.019420 -0.040380

vn 0.004577 0.999990 -0.000006
vn 0.004577 0.999990 -0.000006
vn 0.004577 0.999990 -0.000006
vn -0.938527 0.172259 -0.299157
vn -0.938527 0.172259 -0.299157
vn -0.938527 0.172259 -0.299157
vn 0.029541 -0.999291 -0.023345
vn 0.029541 -0.999291 -0.023345
vn 0.029541 -0.999291 -0.023345
vn 0.960167 -0.218215 -0.174534
vn 0.960167 -0.218215 -0.174534
vn 0.960167 -0.218215 -0.174534
vn 0.418958 -0.013949 0.907899
vn 0.418958 -0.013949 0.907899
vn 0.418958 -0.013949 0.907899
vn 0.437358 0.001991 0.899285
vn 0.437358 0.001991 0.899285
vn 0.437358 0.001991 0.899285
vn 0.999891 -0.002232 -0.014593
vn 0.999891 -0.002232 -0.014593
vn 0.999891 -0.002232 -0.014593
vn 0.013467 0.999824 0.013085
vn 0.013467 0.999824 0.013085
vn 0.013467 0.999824 0.013085
vn 0.000957 0.997128 0.075725
vn 0.000957 0.997128 0.075725
vn 0.000957 0.997128 0.075725
vn -0.955504 -0.067010 0.287268
vn -0.955504 -0.067010 0.287268
vn -0.955504 -0.067010 0.287268
vn -0.362499 -0.051070 0.930584
vn -0.362499 -0.051070 0.930584
vn -0.362499 -0.051070 0.930584
vn -0.580494 0.152615 0.799834
vn -0.580494 0.152615 0.799834
vn -0.580494 0.152615 0.799834
vn -0.026661 -0.999551 -0.013669
vn -0.026661 -0.999551 -0.013669
vn -0.026661 -0.999551 -0.013669
vn -0.030101 -0.999445 -0.014237
vn -0.030101 -0.999445 -0.014237
vn -0.030101 -0.999445 -0.014237
vn -0.833146 -0.020876 -0.552658
vn -0.833146 -0.020876 -0.552659
vn -0.833146 -0.020876 -0.552659
vn 0.014054 -0.999558 -0.026178
vn 0.014054 -0.999559 -0.026178
vn 0.014054 -0.999559 -0.026178
vn -0.241130 0.002160 -0.970490
vn -0.241130 0.002160 -0.970490
vn -0.241130 0.002160 -0.970490
vn -0.290605 0.049775 -0.955547
vn -0.290605 0.049775 -0.955547
vn -0.290605 0.049775 -0.955547
vn 0.002309 0.995858 -0.090891
vn 0.002309 0.995858 -0.090891
vn 0.002309 0.995858 -0.090891
vn 0.696843 -0.000960 -0.717223
vn 0.696843 -0.000960 -0.717223
vn 0.696843 -0.000960 -0.717223

f 1//1 2//2 3//3
f 1//4 3//5 4//6
f 5//7 6//8 7//9
f 5//10 7//11 2//12
f 5//13 8//14 6//15
f 9//16 8//17 5//18
f 9//19 5//20 2//21
f 9//22 2//23 1//24
f 9//25 1//26 8//27
f 10//28 1//29 4//30
f 10//31 6//32 8//33
f 10//34 8//35 1//36
f 11//37 6//38 10//39
f 11//40 10//41 4//42
f 11//43 4//44 3//45
f 11//46 7//47 6//48
f 12//49 7//50 11//51
f 12//52 11//53 3//54
f 12//55 3//56 2//57
f 12//58 2//59 7//60

