# /home/hasu/ros_workspace/cram_ws/src/cram/cram_pr2/pr2_description_lowres/meshes/tilting_laser_v0/convex/hok_tilt.obj created by IVCON.
# Original data in /home/hasu/ros_workspace/cram_ws/src/cram/cram_pr2/pr2_description_lowres/meshes/tilting_laser_v0/hok_tilt.stl.

g IVCON

v 0.024473 0.000000 0.011400
v 0.000003 0.024539 0.011400
v 0.000003 0.000000 -0.033250
v 0.014571 0.020137 0.011400
v 0.000003 0.046429 -0.028620
v 0.052542 0.047000 0.007246
v 0.035000 0.000000 -0.033250
v 0.000003 0.047000 0.009500
v 0.048600 0.047000 -0.025750
v 0.035000 0.039500 -0.033250
v 0.053581 0.044500 -0.012412
v 0.000003 0.039500 -0.033250
v 0.000003 -0.000003 -0.033250
v 0.000003 -0.039500 -0.033250
v 0.000003 -0.047000 0.009500
v 0.048600 -0.047000 -0.025750
v 0.046976 -0.047000 0.009500
v 0.000003 -0.024539 0.011400
v 0.054972 -0.044500 0.001755
v 0.000003 -0.047000 -0.025750
v 0.035000 -0.039500 -0.033250
v 0.030000 0.000000 0.007350
v 0.000003 0.047000 0.054801
v 0.001737 -0.047000 0.054973
v 0.030000 0.030000 0.056050
v 0.020070 0.047000 0.040344
v 0.014906 0.019921 0.011400
v 0.030000 -0.030000 0.056050
v 0.030000 -0.030000 0.038150
v 0.017222 -0.047000 0.037885
v 0.024394 -0.004825 0.011400
v 0.000003 -0.047000 0.037000
v -0.035000 0.000000 -0.033250
v 0.000003 0.030000 0.056050
v -0.030000 0.000000 0.056050
v -0.054966 0.047000 0.001934
v 0.000003 0.000000 0.056050
v -0.048600 0.047000 -0.025750
v -0.037571 0.047000 0.040167
v -0.030000 0.030000 0.056050
v 0.000003 0.047000 -0.025750
v 0.000003 -0.047000 0.054801
v 0.000003 -0.046429 -0.028620
v -0.035000 -0.039500 -0.033250
v -0.052602 -0.047000 0.016064
v -0.030000 -0.030000 0.056050
v -0.053601 -0.047000 -0.012326
v -0.037571 -0.047000 0.040168
v -0.048600 -0.047000 -0.025750

vn -0.660142 -0.658275 0.361782
vn -0.660142 -0.658275 0.361782
vn -0.660142 -0.658275 0.361782
vn 0.000000 0.000000 1.000000
vn 0.000000 0.000000 1.000000
vn 0.000000 0.000000 1.000000
vn -1.000000 -0.000000 0.000000
vn -1.000000 0.000000 0.000000
vn -1.000000 0.000000 -0.000000
vn 0.080835 0.039748 0.995935
vn 0.080835 0.039748 0.995935
vn 0.080835 0.039748 0.995935
vn 0.848861 -0.489265 0.200137
vn 0.848861 -0.489265 0.200137
vn 0.848861 -0.489265 0.200137
vn 0.000000 -1.000000 0.000000
vn 0.000000 -1.000000 -0.000000
vn 0.000000 -1.000000 0.000000
vn 0.025464 0.084264 0.996118
vn 0.025464 0.084264 0.996118
vn 0.025464 0.084264 0.996118
vn 0.042674 0.093497 0.994705
vn 0.042674 0.093497 0.994705
vn 0.042674 0.093497 0.994705
vn -1.000000 -0.000000 0.000000
vn -1.000000 0.000000 0.000000
vn -1.000000 0.000000 0.000000
vn -0.010863 0.999829 -0.014976
vn -0.010863 0.999829 -0.014976
vn -0.010863 0.999829 -0.014976
vn 0.000000 1.000000 0.000000
vn 0.000000 1.000000 0.000000
vn 0.000000 1.000000 -0.000000
vn 0.035686 0.673560 -0.738270
vn 0.035686 0.673560 -0.738270
vn 0.035686 0.673560 -0.738270
vn 0.482907 0.000000 -0.875672
vn 0.482907 0.000000 -0.875672
vn 0.482907 0.000000 -0.875672
vn 0.000000 -0.000000 -1.000000
vn 0.000000 0.000000 -1.000000
vn 0.000000 0.000000 -1.000000
vn 0.592315 0.802593 -0.070763
vn 0.592315 0.802593 -0.070763
vn 0.592315 0.802593 -0.070763
vn 0.900250 -0.423395 0.101427
vn 0.900250 -0.423395 0.101427
vn 0.900250 -0.423395 0.101427
vn 0.904537 -0.201799 -0.375618
vn 0.904537 -0.201799 -0.375618
vn 0.904537 -0.201799 -0.375618
vn -1.000000 0.000000 0.000000
vn -1.000000 0.000000 0.000000
vn -1.000000 0.000000 0.000000
vn 0.000000 0.555586 -0.831459
vn 0.000000 0.555586 -0.831459
vn 0.000000 0.555586 -0.831459
vn 0.000000 0.000000 -1.000000
vn -0.000000 0.000000 -1.000000
vn 0.000000 0.000000 -1.000000
vn -0.000097 1.000000 -0.000023
vn -0.000097 1.000000 -0.000023
vn -0.000097 1.000000 -0.000023
vn 0.000000 0.000000 -1.000000
vn 0.000000 0.000000 -1.000000
vn 0.000000 0.000000 -1.000000
vn -1.000000 0.000000 0.000000
vn -1.000000 0.000000 0.000000
vn -1.000000 0.000000 0.000000
vn 0.000000 -1.000000 0.000000
vn -0.000000 -1.000000 -0.000000
vn 0.000000 -1.000000 0.000000
vn -0.660154 0.658287 0.361738
vn -0.660154 0.658287 0.361739
vn -0.660154 0.658287 0.361738
vn -1.000000 0.000000 -0.000000
vn -1.000000 0.000000 0.000000
vn -1.000000 0.000000 0.000000
vn 0.027369 -0.027291 0.999253
vn 0.027369 -0.027291 0.999253
vn 0.027369 -0.027291 0.999253
vn 0.000000 -0.084291 0.996441
vn 0.000000 -0.084291 0.996441
vn 0.000000 -0.084291 0.996441
vn 0.310996 -0.950303 0.014328
vn 0.310996 -0.950303 0.014328
vn 0.310996 -0.950303 0.014328
vn 0.942159 0.234395 -0.239572
vn 0.942159 0.234395 -0.239572
vn 0.942159 0.234395 -0.239572
vn -1.000000 0.000000 0.000000
vn -1.000000 0.000000 0.000000
vn -1.000000 0.000000 0.000000
vn 0.000000 -0.707107 -0.707107
vn 0.000000 -0.707107 -0.707107
vn -0.000000 -0.707107 -0.707107
vn 0.000000 -1.000000 0.000000
vn 0.000000 -1.000000 0.000000
vn 0.000000 -1.000000 0.000000
vn 0.000000 0.000000 -1.000000
vn 0.000000 0.000000 -1.000000
vn 0.000000 -0.000000 -1.000000
vn 0.482907 0.000000 -0.875672
vn 0.482907 0.000000 -0.875672
vn 0.482907 0.000000 -0.875672
vn -0.000000 -0.707107 -0.707107
vn 0.000000 -0.707107 -0.707107
vn 0.000000 -0.707107 -0.707107
vn 0.000000 1.000000 0.000000
vn 0.000000 1.000000 0.000000
vn 0.000000 1.000000 0.000000
vn 0.872726 0.476233 0.107479
vn 0.872726 0.476233 0.107479
vn 0.872726 0.476233 0.107479
vn 0.573354 0.242885 0.782478
vn 0.573354 0.242885 0.782478
vn 0.573354 0.242885 0.782478
vn 0.628458 0.260521 0.732918
vn 0.628458 0.260521 0.732918
vn 0.628458 0.260521 0.732918
vn -0.041003 0.001075 0.999158
vn -0.041003 0.001075 0.999158
vn -0.041003 0.001075 0.999158
vn 0.394955 0.737197 0.548226
vn 0.394955 0.737197 0.548226
vn 0.394955 0.737197 0.548226
vn -0.314336 0.843099 -0.436321
vn -0.314336 0.843099 -0.436321
vn -0.314336 0.843099 -0.436321
vn 0.214993 0.693732 -0.687397
vn 0.214993 0.693732 -0.687397
vn 0.214993 0.693732 -0.687397
vn -1.000000 0.000000 0.000000
vn -1.000000 0.000000 0.000000
vn -1.000000 0.000000 0.000000
vn 0.000000 0.000000 -1.000000
vn -0.000000 0.000000 -1.000000
vn 0.000000 0.000000 -1.000000
vn -0.038079 0.000000 0.999275
vn -0.038079 0.000000 0.999275
vn -0.038079 0.000000 0.999275
vn 1.000000 -0.000000 0.000000
vn 1.000000 0.000000 0.000000
vn 1.000000 0.000000 0.000000
vn 0.799368 -0.600842 0.000000
vn 0.799368 -0.600842 0.000000
vn 0.799368 -0.600842 0.000000
vn 0.457419 -0.786733 0.414509
vn 0.457419 -0.786733 0.414509
vn 0.457419 -0.786733 0.414509
vn 0.650850 -0.480041 -0.588179
vn 0.650850 -0.480041 -0.588179
vn 0.650850 -0.480041 -0.588179
vn 0.429593 -0.531501 -0.730039
vn 0.429593 -0.531501 -0.730039
vn 0.429593 -0.531501 -0.730039
vn 0.834622 0.320021 -0.448321
vn 0.834622 0.320021 -0.448321
vn 0.834622 0.320021 -0.448321
vn 0.917430 0.249605 -0.309869
vn 0.917430 0.249605 -0.309869
vn 0.917430 0.249605 -0.309869
vn 0.985732 0.048120 -0.161296
vn 0.985732 0.048120 -0.161296
vn 0.985732 0.048120 -0.161296
vn -0.000000 0.000000 -1.000000
vn 0.000000 0.000000 -1.000000
vn 0.000000 -0.000000 -1.000000
vn 0.033877 -0.751260 -0.659136
vn 0.033877 -0.751260 -0.659136
vn 0.033877 -0.751260 -0.659136
vn 0.000000 -1.000000 0.000000
vn -0.000000 -1.000000 0.000000
vn 0.000000 -1.000000 -0.000000
vn -1.000000 0.000000 0.000000
vn -1.000000 0.000000 0.000000
vn -1.000000 0.000000 0.000000
vn -0.995214 -0.018183 0.096016
vn -0.995214 -0.018183 0.096016
vn -0.995214 -0.018183 0.096016
vn 0.000000 -0.000000 -1.000000
vn 0.000000 0.000000 -1.000000
vn 0.000000 0.000000 -1.000000
vn 1.000000 0.000000 0.000000
vn 1.000000 0.000000 0.000000
vn 1.000000 0.000000 0.000000
vn -0.904999 -0.422384 0.050672
vn -0.904999 -0.422384 0.050672
vn -0.904999 -0.422384 0.050672
vn 0.000000 -1.000000 -0.000000
vn 0.000000 -1.000000 0.000000
vn 0.000000 -1.000000 0.000000
vn 1.000000 -0.000000 0.000000
vn 1.000000 0.000000 0.000000
vn 1.000000 0.000000 0.000000
vn 0.000000 -0.000000 1.000000
vn 0.000000 0.000000 1.000000
vn 0.000000 0.000000 1.000000
vn -0.000000 -1.000000 -0.000000
vn 0.000000 -1.000000 0.000000
vn 0.000000 -1.000000 0.000000
vn -0.133569 0.118363 -0.983946
vn -0.133569 0.118363 -0.983946
vn -0.133569 0.118363 -0.983946
vn -0.946298 -0.239099 -0.217603
vn -0.946298 -0.239099 -0.217604
vn -0.946298 -0.239099 -0.217603
vn 0.000000 1.000000 0.000000
vn 0.000000 1.000000 -0.000000
vn -0.000000 1.000000 0.000000
vn -0.910199 -0.006675 0.414117
vn -0.910199 -0.006675 0.414117
vn -0.910199 -0.006675 0.414117
vn 1.000000 0.000000 0.000000
vn 1.000000 0.000000 0.000000
vn 1.000000 0.000000 -0.000000
vn 0.000000 1.000000 0.000000
vn 0.000000 1.000000 0.000000
vn -0.000000 1.000000 0.000000
vn -0.902691 0.000000 0.430289
vn -0.902691 0.000000 0.430289
vn -0.902691 0.000000 0.430289
vn -0.296055 0.578365 0.760161
vn -0.296055 0.578365 0.760161
vn -0.296055 0.578365 0.760161
vn -0.000000 0.000000 1.000000
vn 0.000000 0.000000 1.000000
vn 0.000000 0.000000 1.000000
vn -0.000000 0.073289 0.997311
vn 0.000000 0.073289 0.997311
vn 0.000000 0.073289 0.997311
vn 0.000000 0.707107 -0.707107
vn 0.000000 0.707107 -0.707107
vn 0.000000 0.707107 -0.707107
vn 0.000000 1.000000 -0.000000
vn 0.000000 1.000000 0.000000
vn 0.000000 1.000000 0.000000
vn 1.000000 0.000000 -0.000000
vn 1.000000 0.000000 0.000000
vn 1.000000 0.000000 0.000000
vn 1.000000 0.000000 -0.000000
vn 1.000000 0.000000 0.000000
vn 1.000000 -0.000000 0.000000
vn 0.111283 -0.098614 -0.988884
vn 0.111283 -0.098614 -0.988884
vn 0.111283 -0.098614 -0.988884
vn 1.000000 -0.000000 -0.000000
vn 1.000000 0.000000 0.000000
vn 1.000000 0.000000 0.000000
vn 0.000000 1.000000 0.000000
vn 0.000000 1.000000 0.000000
vn 0.000000 1.000000 -0.000000
vn 0.000000 0.000000 -1.000000
vn -0.000000 0.000000 -1.000000
vn 0.000000 0.000000 -1.000000
vn -0.000000 1.000000 0.000000
vn 0.000000 1.000000 0.000000
vn 0.000000 1.000000 0.000000
vn -0.916372 0.397026 0.051309
vn -0.916372 0.397026 0.051309
vn -0.916372 0.397026 0.051309
vn -0.870551 0.000000 0.492077
vn -0.870551 0.000000 0.492077
vn -0.870551 0.000000 0.492077
vn 0.026558 -0.026561 0.999294
vn 0.026558 -0.026561 0.999294
vn 0.026558 -0.026561 0.999294
vn 0.000000 0.000000 1.000000
vn 0.000000 0.000000 1.000000
vn -0.000000 0.000000 1.000000
vn -0.924297 0.380285 0.032525
vn -0.924297 0.380285 0.032525
vn -0.924297 0.380285 0.032525
vn 0.000000 -1.000000 0.000000
vn 0.000000 -1.000000 0.000000
vn 0.000000 -1.000000 -0.000000
vn 0.000000 -1.000000 -0.000000
vn 0.000000 -1.000000 0.000000
vn 0.000000 -1.000000 0.000000
vn -0.296044 -0.578344 0.760181
vn -0.296044 -0.578344 0.760181
vn -0.296044 -0.578344 0.760181
vn -0.842841 -0.115660 0.525587
vn -0.842841 -0.115660 0.525587
vn -0.842841 -0.115660 0.525587
vn -0.035681 -0.673565 -0.738267
vn -0.035681 -0.673565 -0.738267
vn -0.035681 -0.673565 -0.738267
vn 0.011343 -0.999912 -0.006844
vn 0.011343 -0.999912 -0.006844
vn 0.011343 -0.999912 -0.006844
vn 0.000000 -1.000000 0.000000
vn 0.000000 -1.000000 0.000000
vn 0.000000 -1.000000 0.000000
vn -0.482907 0.000000 -0.875672
vn -0.482907 -0.000000 -0.875672
vn -0.482907 0.000000 -0.875672
vn -0.916065 0.210616 -0.341272
vn -0.916065 0.210616 -0.341272
vn -0.916065 0.210616 -0.341272

f 1//1 2//2 3//3
f 2//4 1//5 4//6
f 5//7 3//8 2//9
f 6//10 4//11 1//12
f 7//13 6//14 1//15
f 7//16 1//17 3//18
f 8//19 2//20 4//21
f 8//22 4//23 6//24
f 8//25 5//26 2//27
f 8//28 9//29 5//30
f 8//31 6//32 9//33
f 10//34 5//35 9//36
f 10//37 9//38 7//39
f 10//40 7//41 3//42
f 11//43 9//44 6//45
f 11//46 6//47 7//48
f 11//49 7//50 9//51
f 12//52 3//53 5//54
f 12//55 5//56 10//57
f 12//58 10//59 3//60
f 13//61 1//62 7//63
f 13//64 7//65 14//66
f 13//67 14//68 15//69
f 16//70 17//71 15//72
f 18//73 1//74 13//75
f 18//76 13//77 15//78
f 18//79 17//80 1//81
f 18//82 15//83 17//84
f 19//85 17//86 16//87
f 19//88 16//89 7//90
f 20//91 15//92 14//93
f 20//94 14//95 16//96
f 20//97 16//98 15//99
f 21//100 14//101 7//102
f 21//103 7//104 16//105
f 21//106 16//107 14//108
f 22//109 7//110 1//111
f 22//112 19//113 7//114
f 22//115 1//116 17//117
f 22//118 17//119 19//120
f 23//121 24//122 25//123
f 26//124 23//125 25//126
f 2//127 23//128 26//129
f 2//130 26//131 27//132
f 2//133 18//134 23//135
f 2//136 27//137 18//138
f 28//139 25//140 24//141
f 28//142 29//143 25//144
f 30//145 29//146 28//147
f 30//148 28//149 24//150
f 31//151 29//152 30//153
f 31//154 30//155 18//156
f 31//157 27//158 26//159
f 31//160 26//161 25//162
f 31//163 25//164 29//165
f 31//166 18//167 27//168
f 32//169 18//170 30//171
f 32//172 30//173 24//174
f 32//175 23//176 18//177
f 32//178 24//179 23//180
f 12//181 3//182 33//183
f 3//184 12//185 34//186
f 35//187 36//188 33//189
f 35//190 33//191 3//192
f 37//193 3//194 34//195
f 37//196 34//197 35//198
f 37//199 35//200 3//201
f 38//202 12//203 33//204
f 38//205 33//206 36//207
f 39//208 38//209 36//210
f 39//211 36//212 35//213
f 23//214 34//215 12//216
f 23//217 38//218 39//219
f 40//220 39//221 35//222
f 40//223 23//224 39//225
f 40//226 35//227 34//228
f 40//229 34//230 23//231
f 41//232 12//233 38//234
f 41//235 38//236 23//237
f 41//238 23//239 12//240
f 3//241 37//242 42//243
f 43//244 44//245 3//246
f 43//247 3//248 42//249
f 33//250 37//251 3//252
f 33//253 3//254 44//255
f 35//256 37//257 33//258
f 35//259 33//260 45//261
f 46//262 35//263 45//264
f 46//265 42//266 37//267
f 46//268 37//269 35//270
f 47//271 45//272 33//273
f 47//274 42//275 45//276
f 48//277 45//278 42//279
f 48//280 42//281 46//282
f 48//283 46//284 45//285
f 49//286 44//287 43//288
f 49//289 43//290 42//291
f 49//292 42//293 47//294
f 49//295 33//296 44//297
f 49//298 47//299 33//300

