# /home/hasu/ros_workspace/cram_ws/src/cram/cram_pr2/pr2_description_lowres/meshes/head_v0/convex/head_pan.obj created by IVCON.
# Original data in /home/hasu/ros_workspace/cram_ws/src/cram/cram_pr2/pr2_description_lowres/meshes/head_v0/head_pan.stl.

g IVCON

v 0.133698 -0.080304 0.006790
v 0.075485 0.000000 -0.063149
v 0.075485 -0.080304 -0.063108
v 0.134244 0.000000 0.006790
v 0.110932 0.000000 -0.063149
v 0.115958 -0.080304 -0.041054
v 0.132270 0.000000 -0.018096
v 0.099459 -0.049761 -0.063153
v 0.134009 -0.080304 -0.009169
v 0.131533 -0.075084 -0.020559
v 0.095342 -0.080304 -0.055846
v 0.117356 -0.046414 -0.050251
v 0.075333 0.080304 0.066185
v 0.075302 -0.080304 0.066191
v 0.133799 0.080304 0.006846
v 0.127674 0.080304 0.029706
v 0.097380 -0.080304 0.059849
v 0.117669 -0.080301 0.044442
v 0.105632 0.079224 0.055053
v 0.131072 -0.080304 0.021732
v 0.094141 0.080304 0.061501
v 0.113295 0.080304 0.048909
v 0.132701 0.079861 0.016546
v 0.016319 -0.078903 -0.063150
v 0.070536 -0.079813 0.006790
v 0.016319 0.000000 -0.063147
v 0.016319 -0.078903 0.006790
v 0.070536 -0.080304 0.006790
v 0.016430 0.000053 0.060397
v 0.016430 0.078905 0.057803
v 0.016430 0.078905 0.006846
v 0.070536 0.079813 0.006846
v 0.075333 0.000000 0.066231
v 0.067668 0.028355 0.076844
v 0.067668 0.000000 0.076733
v 0.049835 0.079466 0.072700
v 0.067676 0.079765 0.074674
v 0.039462 0.000000 0.071402
v 0.036335 0.036909 0.069753
v 0.016319 -0.000000 0.060342
v 0.016319 -0.049441 0.059538
v 0.016319 -0.078903 0.058070
v 0.075302 0.000000 0.066234
v 0.067680 -0.079765 0.074642
v 0.051051 -0.032504 0.074839
v 0.042223 -0.079338 0.070461
v 0.038104 -0.000000 0.070921
v 0.016430 0.000000 -0.063147
v 0.134236 0.000000 0.006846
v 0.016430 0.078905 -0.063150
v 0.110946 0.003311 -0.063149
v 0.123738 0.080304 -0.031390
v 0.095561 0.080304 -0.055816
v 0.128955 0.071491 -0.027444
v 0.077803 0.080304 -0.063131
v 0.133914 0.080304 -0.009100
v 0.016430 0.156797 0.056778
v 0.016430 0.137109 -0.065192
v 0.016430 0.097328 0.055168
v 0.065714 0.118908 0.075485
v 0.122733 0.157531 0.047187
v 0.122548 0.080304 0.038255
v 0.141562 0.127221 -0.018580
v 0.113948 0.157575 -0.056224
v 0.070551 0.080304 -0.063114
v 0.016430 0.097362 -0.062668
v 0.129442 0.080304 -0.020988
v 0.070542 0.080304 0.066597
v 0.016319 -0.097328 0.055112
v 0.065714 -0.118908 0.075485
v 0.125537 -0.080304 0.033575
v 0.070556 -0.080304 -0.063122
v 0.016319 -0.156797 0.056724
v 0.072022 -0.157667 0.072067
v 0.016319 -0.137123 -0.065192
v 0.111737 -0.154794 -0.060240
v 0.131068 -0.155092 0.039189
v 0.141562 -0.127221 -0.018580
v 0.016319 -0.097361 -0.062666
v 0.126802 -0.080304 -0.026553
v -0.100397 -0.005969 -0.017506
v 0.016430 0.139238 0.058599
v -0.077704 0.157157 -0.011335
v -0.077704 -0.157157 -0.011335
v 0.016319 -0.155182 -0.063915
v -0.036611 -0.146002 -0.065348
v 0.016430 0.155188 -0.063914
v -0.109980 0.015696 -0.063149
v -0.066853 0.155230 -0.063683
v -0.079005 -0.156280 -0.053473

vn -0.768409 0.000328 0.639959
vn -0.768409 0.000328 0.639959
vn -0.768409 0.000328 0.639959
vn -0.765636 0.005207 0.643253
vn -0.765636 0.005207 0.643253
vn -0.765636 0.005207 0.643253
vn 0.000000 1.000000 -0.000000
vn 0.000000 1.000000 0.000000
vn 0.000000 1.000000 0.000000
vn -0.000000 -1.000000 0.000000
vn 0.000000 -1.000000 0.000000
vn 0.000000 -1.000000 0.000000
vn 0.000000 1.000000 -0.000000
vn 0.000000 1.000000 0.000000
vn 0.000000 1.000000 0.000000
vn -0.001212 -0.000512 -0.999999
vn -0.001212 -0.000512 -0.999999
vn -0.001212 -0.000512 -0.999999
vn 0.000001 0.000072 -1.000000
vn 0.000001 0.000072 -1.000000
vn 0.000001 0.000072 -1.000000
vn 0.976934 -0.002581 -0.213525
vn 0.976934 -0.002581 -0.213525
vn 0.976934 -0.002581 -0.213525
vn 0.999788 -0.006800 0.019452
vn 0.999788 -0.006800 0.019452
vn 0.999788 -0.006800 0.019452
vn 0.996785 0.012793 -0.079097
vn 0.996785 0.012793 -0.079097
vn 0.996785 0.012793 -0.079097
vn -0.000000 -1.000000 0.000000
vn 0.000000 -1.000000 -0.000000
vn 0.000000 -1.000000 0.000000
vn 0.725559 -0.552137 -0.410742
vn 0.725559 -0.552137 -0.410742
vn 0.725559 -0.552137 -0.410742
vn -0.000000 -1.000000 0.000000
vn 0.000000 -1.000000 0.000000
vn 0.000000 -1.000000 0.000000
vn 0.331512 -0.261544 -0.906474
vn 0.331512 -0.261544 -0.906474
vn 0.331512 -0.261544 -0.906474
vn 0.562377 -0.263327 -0.783831
vn 0.562377 -0.263327 -0.783831
vn 0.562377 -0.263327 -0.783831
vn 0.596990 -0.232947 -0.767684
vn 0.596990 -0.232947 -0.767684
vn 0.596990 -0.232947 -0.767684
vn 0.596019 -0.137365 -0.791133
vn 0.596019 -0.137365 -0.791133
vn 0.596019 -0.137365 -0.791133
vn 0.903748 0.006134 -0.428021
vn 0.903748 0.006134 -0.428021
vn 0.903748 0.006134 -0.428021
vn 0.904317 0.005127 -0.426832
vn 0.904317 0.005127 -0.426832
vn 0.904317 0.005127 -0.426832
vn 0.804536 -0.186222 -0.563953
vn 0.804536 -0.186222 -0.563953
vn 0.804536 -0.186222 -0.563953
vn -0.713113 0.000114 -0.701049
vn -0.713113 0.000114 -0.701049
vn -0.713113 0.000114 -0.701049
vn -0.712330 0.000693 -0.701844
vn -0.712330 0.000693 -0.701844
vn -0.712330 0.000693 -0.701844
vn 0.000000 1.000000 0.000000
vn 0.000000 1.000000 0.000000
vn 0.000000 1.000000 0.000000
vn 0.604743 -0.007342 0.796387
vn 0.604743 -0.007342 0.796387
vn 0.604743 -0.007342 0.796387
vn -0.000000 -1.000000 -0.000000
vn 0.000000 -1.000000 0.000000
vn 0.000000 -1.000000 0.000000
vn 0.000449 -1.000000 0.000397
vn 0.000449 -1.000000 0.000397
vn 0.000449 -1.000000 0.000397
vn -0.000000 -1.000000 -0.000000
vn 0.000000 -1.000000 0.000000
vn 0.000000 -1.000000 0.000000
vn 0.861176 -0.007011 0.508259
vn 0.861176 -0.007011 0.508259
vn 0.861176 -0.007011 0.508259
vn 0.489443 0.000897 0.872035
vn 0.489443 0.000897 0.872035
vn 0.489443 0.000897 0.872035
vn 0.241667 -0.000012 0.970359
vn 0.241667 -0.000012 0.970359
vn 0.241667 -0.000012 0.970359
vn 0.276109 -0.004322 0.961117
vn 0.276109 -0.004322 0.961117
vn 0.276109 -0.004322 0.961117
vn 0.000000 1.000000 0.000000
vn 0.000000 1.000000 0.000000
vn 0.000000 1.000000 0.000000
vn 0.000000 1.000000 0.000000
vn 0.000000 1.000000 0.000000
vn 0.000000 1.000000 0.000000
vn 0.417355 0.650252 0.634813
vn 0.417355 0.650251 0.634813
vn 0.417355 0.650251 0.634813
vn 0.800459 0.005131 0.599366
vn 0.800459 0.005131 0.599366
vn 0.800459 0.005131 0.599366
vn 0.625948 -0.004642 0.779851
vn 0.625948 -0.004642 0.779851
vn 0.625948 -0.004642 0.779851
vn 0.282233 0.956360 0.075628
vn 0.282233 0.956360 0.075628
vn 0.282233 0.956360 0.075628
vn 0.934174 0.002053 0.356811
vn 0.934174 0.002053 0.356812
vn 0.934174 0.002053 0.356811
vn 0.993656 -0.000663 0.112459
vn 0.993656 -0.000663 0.112459
vn 0.993656 -0.000663 0.112459
vn 0.984896 -0.004411 0.173093
vn 0.984896 -0.004411 0.173093
vn 0.984896 -0.004411 0.173093
vn 0.000693 -0.000512 -1.000000
vn 0.000693 -0.000512 -1.000000
vn 0.000693 -0.000512 -1.000000
vn 0.997503 0.000036 0.070620
vn 0.997503 0.000036 0.070620
vn 0.997503 0.000036 0.070620
vn -0.000045 0.000041 -1.000000
vn -0.000045 0.000041 -1.000000
vn -0.000045 0.000041 -1.000000
vn -1.000000 0.000000 0.000000
vn -1.000000 -0.000000 0.000000
vn -1.000000 0.000000 0.000000
vn 0.011051 0.658626 0.752390
vn 0.011051 0.658626 0.752390
vn 0.011051 0.658626 0.752390
vn 0.000034 0.663305 0.748349
vn 0.000034 0.663305 0.748349
vn 0.000034 0.663305 0.748349
vn 0.997503 -0.000000 0.070620
vn 0.997503 0.000000 0.070620
vn 0.997503 0.000000 0.070620
vn 0.000000 -0.000000 1.000000
vn 0.000000 0.000000 1.000000
vn 0.000000 0.000000 1.000000
vn -0.023669 -0.999718 -0.001676
vn -0.023669 -0.999718 -0.001676
vn -0.023669 -0.999718 -0.001676
vn -0.025826 -0.999666 -0.000002
vn -0.025826 -0.999666 -0.000002
vn -0.025826 -0.999666 -0.000002
vn -1.000000 0.000000 0.000000
vn -1.000000 -0.000000 -0.000000
vn -1.000000 0.000000 0.000000
vn -0.023742 0.999718 0.000003
vn -0.023742 0.999718 0.000003
vn -0.023742 0.999718 0.000003
vn -0.016774 0.999835 -0.006917
vn -0.016774 0.999835 -0.006917
vn -0.016774 0.999835 -0.006917
vn 0.009425 -0.561793 -0.827224
vn 0.009425 -0.561793 -0.827224
vn 0.009425 -0.561793 -0.827224
vn 0.078900 -0.592021 -0.802051
vn 0.078900 -0.592021 -0.802051
vn 0.078900 -0.592021 -0.802051
vn 0.811095 0.000330 0.584914
vn 0.811096 0.000330 0.584914
vn 0.811095 0.000330 0.584914
vn 0.996748 -0.000045 -0.080582
vn 0.996748 -0.000045 -0.080582
vn 0.996748 -0.000045 -0.080582
vn 0.807747 -0.002302 0.589525
vn 0.807747 -0.002302 0.589525
vn 0.807747 -0.002302 0.589525
vn -0.026992 0.999373 0.022903
vn -0.026992 0.999373 0.022903
vn -0.026992 0.999373 0.022903
vn 0.741348 0.028187 0.670529
vn 0.741348 0.028187 0.670529
vn 0.741348 0.028187 0.670529
vn -0.021600 0.998801 0.043935
vn -0.021600 0.998801 0.043935
vn -0.021600 0.998801 0.043935
vn -0.110570 0.041931 0.992983
vn -0.110570 0.041931 0.992983
vn -0.110570 0.041931 0.992983
vn -0.185704 -0.003860 0.982598
vn -0.185704 -0.003860 0.982598
vn -0.185704 -0.003860 0.982598
vn -0.199104 0.009982 0.979928
vn -0.199104 0.009982 0.979928
vn -0.199104 0.009982 0.979928
vn -0.000535 -0.999993 -0.003709
vn -0.000535 -0.999993 -0.003709
vn -0.000535 -0.999993 -0.003709
vn 0.000000 -1.000000 0.000000
vn 0.000000 -1.000000 0.000000
vn 0.000000 -1.000000 -0.000000
vn -0.407319 0.066133 0.910888
vn -0.407319 0.066133 0.910888
vn -0.407319 0.066133 0.910888
vn -0.272635 0.019875 0.961912
vn -0.272635 0.019875 0.961912
vn -0.272636 0.019875 0.961912
vn -0.468754 0.029038 0.882852
vn -0.468754 0.029038 0.882852
vn -0.468754 0.029038 0.882852
vn -0.431127 0.003785 0.902283
vn -0.431127 0.003785 0.902283
vn -0.431127 0.003785 0.902283
vn 0.009422 0.561553 -0.827387
vn 0.009422 0.561553 -0.827387
vn 0.009422 0.561553 -0.827387
vn -1.000000 0.000000 0.000000
vn -1.000000 0.000000 0.000000
vn -1.000000 0.000000 -0.000000
vn -1.000000 0.000000 0.000000
vn -1.000000 0.000000 0.000000
vn -1.000000 0.000000 0.000000
vn 0.080091 0.592328 -0.801707
vn 0.080091 0.592328 -0.801707
vn 0.080091 0.592328 -0.801707
vn 0.000000 1.000000 -0.000000
vn 0.000000 1.000000 0.000000
vn -0.000000 1.000000 0.000000
vn 0.996797 0.000043 -0.079973
vn 0.996797 0.000043 -0.079973
vn 0.996797 0.000043 -0.079973
vn 0.741925 -0.017460 0.670256
vn 0.741925 -0.017460 0.670256
vn 0.741925 -0.017460 0.670256
vn 0.808799 -0.000317 0.588085
vn 0.808799 -0.000317 0.588085
vn 0.808799 -0.000317 0.588085
vn -0.023738 -0.999718 -0.000003
vn -0.023738 -0.999718 -0.000003
vn -0.023738 -0.999718 -0.000003
vn -0.016776 -0.999835 -0.006918
vn -0.016776 -0.999835 -0.006918
vn -0.016776 -0.999835 -0.006918
vn -0.062528 -0.026159 0.997700
vn -0.062528 -0.026159 0.997700
vn -0.062528 -0.026159 0.997700
vn -0.162763 -0.061374 0.984754
vn -0.162763 -0.061374 0.984754
vn -0.162763 -0.061374 0.984754
vn -0.431689 -0.044892 0.900905
vn -0.431689 -0.044892 0.900905
vn -0.431689 -0.044892 0.900905
vn -0.026547 -0.999438 0.020447
vn -0.026547 -0.999438 0.020447
vn -0.026547 -0.999438 0.020447
vn -0.023705 -0.998823 0.042326
vn -0.023705 -0.998823 0.042326
vn -0.023705 -0.998823 0.042326
vn -0.342546 -0.023229 0.939214
vn -0.342546 -0.023229 0.939214
vn -0.342546 -0.023229 0.939214
vn -0.436768 -0.014626 0.899455
vn -0.436768 -0.014626 0.899455
vn -0.436768 -0.014626 0.899455
vn -0.414491 -0.026792 0.909659
vn -0.414491 -0.026792 0.909659
vn -0.414491 -0.026792 0.909659
vn -0.000000 1.000000 0.000000
vn 0.000000 1.000000 0.000000
vn 0.000000 1.000000 0.000000
vn -0.192721 0.041410 0.980379
vn -0.192721 0.041410 0.980379
vn -0.192721 0.041410 0.980379
vn -0.406158 -0.606394 0.683609
vn -0.406158 -0.606394 0.683609
vn -0.406158 -0.606394 0.683609
vn -0.000000 0.000000 1.000000
vn 0.000000 0.000000 1.000000
vn 0.000000 0.000000 1.000000
vn -0.000023 -0.000041 -1.000000
vn -0.000023 -0.000041 -1.000000
vn -0.000023 -0.000041 -1.000000
vn -1.000000 0.000000 0.000000
vn -1.000000 0.000000 0.000000
vn -1.000000 0.000000 0.000000
vn 0.000000 1.000000 -0.000000
vn 0.000000 1.000000 0.000000
vn 0.000000 1.000000 0.000000
vn 0.641959 0.198801 -0.740518
vn 0.641959 0.198801 -0.740518
vn 0.641959 0.198801 -0.740518
vn 0.742134 0.146490 -0.654047
vn 0.742134 0.146490 -0.654047
vn 0.742134 0.146490 -0.654047
vn 0.903377 -0.014158 -0.428613
vn 0.903377 -0.014158 -0.428613
vn 0.903377 -0.014158 -0.428613
vn -0.000000 -1.000000 0.000000
vn 0.000000 -1.000000 0.000000
vn 0.000000 -1.000000 0.000000
vn 0.034867 -0.995363 -0.089654
vn 0.034867 -0.995363 -0.089654
vn 0.034867 -0.995363 -0.089654
vn 0.000297 0.000358 -1.000000
vn 0.000297 0.000358 -1.000000
vn 0.000297 0.000358 -1.000000
vn 0.375840 0.161997 -0.912415
vn 0.375840 0.161997 -0.912415
vn 0.375840 0.161997 -0.912415
vn -0.022788 0.999740 -0.000003
vn -0.022788 0.999740 -0.000003
vn -0.022788 0.999740 -0.000003
vn -0.011916 0.999884 0.009535
vn -0.011916 0.999884 0.009535
vn -0.011916 0.999884 0.009535
vn 0.000000 1.000000 0.000000
vn 0.000000 1.000000 0.000000
vn 0.000000 1.000000 -0.000000
vn 0.964073 0.009990 -0.265451
vn 0.964073 0.009990 -0.265451
vn 0.964073 0.009990 -0.265451
vn 0.999959 0.005442 0.007233
vn 0.999959 0.005442 0.007233
vn 0.999959 0.005442 0.007233
vn 0.996839 -0.011614 -0.078593
vn 0.996839 -0.011614 -0.078593
vn 0.996839 -0.011614 -0.078593
vn 0.857916 0.332497 -0.391696
vn 0.857916 0.332497 -0.391696
vn 0.857916 0.332497 -0.391696
vn 0.000000 1.000000 0.000000
vn 0.000000 1.000000 0.000000
vn 0.000000 1.000000 0.000000
vn -1.000000 0.000000 0.000000
vn -1.000000 0.000000 0.000000
vn -1.000000 0.000000 0.000000
vn -0.371584 -0.025121 0.928059
vn -0.371584 -0.025121 0.928059
vn -0.371584 -0.025121 0.928059
vn 0.073398 0.516646 0.853047
vn 0.073398 0.516646 0.853047
vn 0.073398 0.516646 0.853047
vn 0.496294 -0.100916 0.862270
vn 0.496294 -0.100916 0.862269
vn 0.496294 -0.100916 0.862270
vn 0.956261 -0.035867 0.290306
vn 0.956261 -0.035867 0.290306
vn 0.956261 -0.035867 0.290306
vn -0.189065 0.969416 -0.156484
vn -0.189065 0.969416 -0.156484
vn -0.189065 0.969416 -0.156484
vn -0.006813 0.999976 0.001004
vn -0.006813 0.999976 0.001004
vn -0.006813 0.999976 0.001004
vn 0.777354 0.625616 -0.065772
vn 0.777354 0.625616 -0.065772
vn 0.777354 0.625616 -0.065772
vn 0.082680 0.042349 -0.995676
vn 0.082680 0.042349 -0.995676
vn 0.082680 0.042349 -0.995676
vn -0.028182 -0.063346 -0.997594
vn -0.028182 -0.063346 -0.997594
vn -0.028182 -0.063346 -0.997594
vn -0.300612 -0.953746 -0.000275
vn -0.300612 -0.953746 -0.000275
vn -0.300612 -0.953746 -0.000275
vn -1.000000 0.000000 0.000000
vn -1.000000 0.000000 0.000000
vn -1.000000 0.000000 0.000000
vn 0.563863 -0.246385 -0.788259
vn 0.563863 -0.246385 -0.788259
vn 0.563863 -0.246385 -0.788259
vn 0.732666 -0.155257 -0.662643
vn 0.732666 -0.155257 -0.662643
vn 0.732666 -0.155257 -0.662643
vn 0.960740 -0.253931 0.111795
vn 0.960740 -0.253931 0.111795
vn 0.960740 -0.253931 0.111795
vn -0.000000 -1.000000 0.000000
vn 0.000000 -1.000000 -0.000000
vn 0.000000 -1.000000 0.000000
vn 0.473747 -0.140905 0.869316
vn 0.473747 -0.140905 0.869316
vn 0.473747 -0.140905 0.869316
vn -0.274313 -0.248207 0.929056
vn -0.274313 -0.248207 0.929056
vn -0.274313 -0.248207 0.929056
vn 0.000000 -1.000000 0.000000
vn 0.000000 -1.000000 0.000000
vn -0.000000 -1.000000 0.000000
vn -0.300111 -0.953904 -0.000023
vn -0.300111 -0.953904 -0.000023
vn -0.300111 -0.953904 -0.000023
vn 0.025696 0.716736 0.696871
vn 0.025696 0.716736 0.696871
vn 0.025696 0.716736 0.696871
vn -0.138372 0.987250 0.078677
vn -0.138372 0.987250 0.078677
vn -0.138372 0.987250 0.078677
vn -0.265229 -0.127447 0.955725
vn -0.265229 -0.127447 0.955725
vn -0.265229 -0.127447 0.955725
vn -0.371759 0.025168 0.927988
vn -0.371759 0.025168 0.927988
vn -0.371759 0.025168 0.927988
vn -1.000000 0.000000 0.000000
vn -1.000000 -0.000000 0.000000
vn -1.000000 0.000000 0.000000
vn -0.008891 -0.999663 -0.024376
vn -0.008891 -0.999663 -0.024376
vn -0.008891 -0.999663 -0.024376
vn -0.171961 -0.972522 -0.156942
vn -0.171961 -0.972522 -0.156942
vn -0.171961 -0.972522 -0.156942
vn 0.049773 -0.011118 -0.998699
vn 0.049773 -0.011118 -0.998699
vn 0.049773 -0.011118 -0.998699
vn 0.037815 -0.999231 -0.010347
vn 0.037815 -0.999231 -0.010347
vn 0.037815 -0.999231 -0.010347
vn 0.777566 -0.609902 -0.153003
vn 0.777566 -0.609902 -0.153003
vn 0.777566 -0.609902 -0.153003
vn 0.971693 0.088316 0.219121
vn 0.971693 0.088316 0.219121
vn 0.971693 0.088316 0.219121
vn 0.486415 0.002113 0.873725
vn 0.486415 0.002113 0.873725
vn 0.486415 0.002113 0.873725
vn 0.525656 0.102276 0.844527
vn 0.525656 0.102276 0.844527
vn 0.525656 0.102276 0.844527
vn -0.028310 0.063377 -0.997588
vn -0.028310 0.063377 -0.997588
vn -0.028310 0.063377 -0.997588
vn -1.000000 -0.000000 0.000000
vn -1.000000 0.000000 0.000000
vn -1.000000 0.000000 0.000000
vn -0.300008 0.953937 -0.000268
vn -0.300008 0.953937 -0.000268
vn -0.300008 0.953937 -0.000268
vn 0.762461 0.132234 -0.633377
vn 0.762461 0.132234 -0.633377
vn 0.762461 0.132234 -0.633377
vn 0.526384 0.259683 -0.809620
vn 0.526384 0.259683 -0.809620
vn 0.526384 0.259683 -0.809620
vn 0.000000 1.000000 0.000000
vn 0.000000 1.000000 0.000000
vn 0.000000 1.000000 0.000000
vn 0.952737 0.303135 0.020050
vn 0.952737 0.303135 0.020050
vn 0.952737 0.303135 0.020050
vn -0.541348 -0.005119 0.840783
vn -0.541348 -0.005119 0.840783
vn -0.541348 -0.005119 0.840783
vn -0.589231 0.051467 0.806324
vn -0.589231 0.051467 0.806324
vn -0.589231 0.051467 0.806324
vn -0.585343 -0.054841 0.808929
vn -0.585343 -0.054841 0.808929
vn -0.585343 -0.054841 0.808929
vn 0.013517 -0.999819 -0.013392
vn 0.013517 -0.999819 -0.013392
vn 0.013517 -0.999819 -0.013392
vn 0.027068 -0.000006 -0.999634
vn 0.027068 -0.000006 -0.999634
vn 0.027068 -0.000006 -0.999634
vn 1.000000 -0.000378 -0.000005
vn 1.000000 -0.000378 -0.000005
vn 1.000000 -0.000378 -0.000005
vn 1.000000 -0.000361 -0.000047
vn 1.000000 -0.000361 -0.000047
vn 1.000000 -0.000361 -0.000047
vn -0.980186 -0.141465 0.138648
vn -0.980186 -0.141465 0.138648
vn -0.980186 -0.141465 0.138648
vn -0.957778 0.123416 0.259672
vn -0.957778 0.123416 0.259672
vn -0.957778 0.123416 0.259672
vn -0.002765 0.005250 -0.999982
vn -0.002765 0.005250 -0.999982
vn -0.002765 0.005250 -0.999982
vn -0.022839 0.003233 -0.999734
vn -0.022839 0.003233 -0.999734
vn -0.022839 0.003233 -0.999734
vn 0.000408 0.999326 -0.036702
vn 0.000408 0.999326 -0.036702
vn 0.000408 0.999326 -0.036702
vn -0.935432 0.288340 -0.204516
vn -0.935432 0.288340 -0.204516
vn -0.935432 0.288340 -0.204516
vn -0.984074 -0.175740 0.026726
vn -0.984074 -0.175740 0.026726
vn -0.984074 -0.175740 0.026726
vn -0.246180 -0.098589 -0.964197
vn -0.246180 -0.098589 -0.964197
vn -0.246180 -0.098589 -0.964197
vn -0.080996 -0.592197 -0.801712
vn -0.080996 -0.592197 -0.801712
vn -0.080996 -0.592197 -0.801712
vn 0.009210 -0.999735 -0.021092
vn 0.009210 -0.999735 -0.021092
vn 0.009210 -0.999735 -0.021092
vn 1.000000 0.000000 0.000000
vn 1.000000 0.000000 0.000000
vn 1.000000 0.000000 -0.000000
vn 0.013471 0.999820 -0.013334
vn 0.013471 0.999820 -0.013334
vn 0.013471 0.999820 -0.013334
vn -0.583940 0.083727 0.807467
vn -0.583940 0.083727 0.807467
vn -0.583940 0.083727 0.807467

f 1//1 2//2 3//3
f 2//4 1//5 4//6
f 5//7 2//8 4//9
f 6//10 1//11 3//12
f 7//13 5//14 4//15
f 8//16 3//17 2//18
f 8//19 2//20 5//21
f 9//22 10//23 7//24
f 9//25 4//26 1//27
f 9//28 7//29 4//30
f 9//31 1//32 6//33
f 9//34 6//35 10//36
f 11//37 6//38 3//39
f 11//40 3//41 8//42
f 11//43 8//44 6//45
f 12//46 6//47 8//48
f 12//49 8//50 5//51
f 12//52 5//53 7//54
f 12//55 7//56 10//57
f 12//58 10//59 6//60
f 13//61 1//62 14//63
f 15//64 1//65 13//66
f 15//67 13//68 16//69
f 17//70 18//71 19//72
f 17//73 14//74 1//75
f 20//76 18//77 17//78
f 20//79 17//80 1//81
f 20//82 16//83 18//84
f 21//85 17//86 19//87
f 21//88 13//89 14//90
f 21//91 14//92 17//93
f 21//94 16//95 13//96
f 22//97 16//98 21//99
f 22//100 21//101 19//102
f 22//103 18//104 16//105
f 22//106 19//107 18//108
f 23//109 15//110 16//111
f 23//112 16//113 20//114
f 23//115 1//116 15//117
f 23//118 20//119 1//120
f 2//121 3//122 24//123
f 3//124 2//125 25//126
f 26//127 2//128 24//129
f 27//130 26//131 24//132
f 27//133 25//134 2//135
f 27//136 2//137 26//138
f 28//139 3//140 25//141
f 28//142 25//143 27//144
f 28//145 24//146 3//147
f 28//148 27//149 24//150
f 29//151 30//152 31//153
f 13//154 31//155 30//156
f 32//157 31//158 13//159
f 32//160 29//161 31//162
f 33//163 29//164 32//165
f 33//166 13//167 34//168
f 33//169 32//170 13//171
f 35//172 33//173 34//174
f 36//175 13//176 30//177
f 37//178 34//179 13//180
f 37//181 13//182 36//183
f 37//184 36//185 34//186
f 38//187 35//188 34//189
f 38//190 34//191 36//192
f 38//193 29//194 33//195
f 38//196 33//197 35//198
f 39//199 36//200 30//201
f 39//202 38//203 36//204
f 39//205 30//206 29//207
f 39//208 29//209 38//210
f 40//211 25//212 27//213
f 40//214 27//215 41//216
f 42//217 41//218 27//219
f 43//220 25//221 40//222
f 43//223 40//224 35//225
f 14//226 25//227 43//228
f 14//229 35//230 44//231
f 14//232 43//233 35//234
f 14//235 42//236 27//237
f 14//238 27//239 25//240
f 45//241 44//242 35//243
f 46//244 44//245 45//246
f 46//247 41//248 42//249
f 46//250 42//251 14//252
f 46//253 14//254 44//255
f 47//256 46//257 45//258
f 47//259 40//260 41//261
f 47//262 41//263 46//264
f 47//265 35//266 40//267
f 47//268 45//269 35//270
f 31//271 48//272 49//273
f 31//274 49//275 15//276
f 50//277 51//278 48//279
f 50//280 48//281 31//282
f 52//283 53//284 15//285
f 52//286 51//287 53//288
f 52//289 54//290 51//291
f 7//292 51//293 54//294
f 7//295 49//296 48//297
f 7//298 48//299 51//300
f 55//301 51//302 50//303
f 55//304 53//305 51//306
f 55//307 50//308 31//309
f 55//310 31//311 15//312
f 55//313 15//314 53//315
f 56//316 7//317 54//318
f 56//319 15//320 49//321
f 56//322 49//323 7//324
f 56//325 54//326 52//327
f 56//328 52//329 15//330
f 57//331 58//332 59//333
f 57//334 59//335 60//336
f 61//337 57//338 60//339
f 61//340 60//341 62//342
f 61//343 62//344 63//345
f 64//346 58//347 57//348
f 64//349 57//350 61//351
f 64//352 61//353 63//354
f 64//355 65//356 58//357
f 66//358 58//359 65//360
f 66//361 65//362 59//363
f 66//364 59//365 58//366
f 67//367 65//368 64//369
f 67//370 64//371 63//372
f 67//373 63//374 62//375
f 67//376 62//377 65//378
f 68//379 62//380 60//381
f 68//382 60//383 59//384
f 68//385 65//386 62//387
f 68//388 59//389 65//390
f 69//391 70//392 71//393
f 69//394 71//395 72//396
f 73//397 74//398 70//399
f 73//400 70//401 69//402
f 73//403 69//404 75//405
f 76//406 74//407 73//408
f 76//409 73//410 75//411
f 76//412 75//413 72//414
f 77//415 74//416 76//417
f 77//418 76//419 78//420
f 77//421 78//422 71//423
f 77//424 70//425 74//426
f 77//427 71//428 70//429
f 79//430 72//431 75//432
f 79//433 75//434 69//435
f 79//436 69//437 72//438
f 80//439 78//440 76//441
f 80//442 76//443 72//444
f 80//445 72//446 71//447
f 80//448 71//449 78//450
f 81//451 73//452 82//453
f 83//454 81//455 82//456
f 84//457 73//458 81//459
f 85//460 73//461 84//462
f 85//463 86//464 87//465
f 85//466 82//467 73//468
f 85//469 87//470 82//471
f 88//472 84//473 81//474
f 88//475 81//476 83//477
f 89//478 87//479 86//480
f 89//481 86//482 88//483
f 89//484 83//485 87//486
f 89//487 88//488 83//489
f 90//490 84//491 88//492
f 90//493 88//494 86//495
f 90//496 86//497 85//498
f 90//499 85//500 84//501
f 57//502 82//503 87//504
f 57//505 87//506 83//507
f 57//508 83//509 82//510

