# /home/hasu/ros_workspace/cram_ws/src/cram/cram_pr2/pr2_description_lowres/meshes/head_v0/convex/head_pan_L.obj created by IVCON.
# Original data in /home/hasu/ros_workspace/cram_ws/src/cram/cram_pr2/pr2_description_lowres/meshes/head_v0/head_pan_L.stl.

g IVCON

v 0.016694 -0.079566 0.058349
v 0.016694 0.000757 0.059684
v 0.133247 0.000757 0.007609
v 0.132196 -0.079566 0.007609
v 0.068363 -0.079566 0.076516
v 0.124146 -0.079566 0.035926
v 0.113755 0.000757 0.046729
v 0.067197 0.000757 0.078885
v 0.067280 -0.011807 0.079373
v 0.100646 -0.079566 0.058772
v 0.124343 0.000757 0.035383
v 0.051587 -0.079566 0.074145
v 0.016694 0.000757 -0.064098
v 0.108651 0.000757 -0.050865
v 0.016694 -0.079566 -0.064144
v 0.118737 -0.079566 -0.044006
v 0.080098 -0.079566 -0.062990
v 0.077070 0.000757 -0.063437
v 0.121215 0.000757 -0.041170
v 0.134904 -0.079566 -0.003918
v 0.134295 0.000757 -0.005782
v 0.096168 -0.079566 -0.058360
v 0.016694 -0.157116 0.056136
v 0.092587 -0.157793 0.071212
v 0.121242 -0.098277 -0.055481
v 0.016694 -0.142685 -0.064977
v 0.120858 -0.157633 -0.054192
v 0.142880 -0.157061 -0.005169
v 0.144703 -0.098106 0.000254
v 0.117928 -0.098083 0.056934
v 0.014864 0.000757 -0.064099
v 0.129573 0.000757 -0.020768
v 0.014864 0.156821 -0.062933
v 0.014864 0.156717 0.055162
v 0.125622 0.158071 0.047538
v 0.132191 0.157435 -0.038525
v 0.141295 0.097849 -0.021406
v 0.014864 0.000757 0.058760
v 0.092651 0.000757 -0.059711
v 0.082046 0.157443 0.074052
v -0.102538 -0.009343 -0.018735
v 0.014864 0.140519 0.057227
v -0.077611 0.157529 -0.003489
v 0.016694 -0.156142 -0.063970
v -0.063294 -0.129068 -0.065861
v -0.076748 -0.158625 -0.007311
v -0.078429 0.157569 -0.058247
v -0.112988 0.006459 -0.063958
v -0.068390 -0.156281 -0.063372

vn -0.407881 0.015181 -0.912909
vn -0.407881 0.015181 -0.912909
vn -0.407881 0.015181 -0.912909
vn -0.402191 0.005264 -0.915541
vn -0.402191 0.005264 -0.915541
vn -0.402191 0.005264 -0.915541
vn 0.000000 -1.000000 0.000000
vn 0.000000 -1.000000 0.000000
vn 0.000000 -1.000000 -0.000000
vn 0.961815 -0.012587 0.273411
vn 0.961815 -0.012587 0.273411
vn 0.961815 -0.012587 0.273411
vn -0.000000 -1.000000 -0.000000
vn 0.000000 -1.000000 0.000000
vn 0.000000 -1.000000 0.000000
vn 0.000000 1.000000 0.000000
vn 0.000000 1.000000 0.000000
vn 0.000000 1.000000 0.000000
vn -0.355157 0.033977 0.934189
vn -0.355157 0.033977 0.934189
vn -0.355157 0.033977 0.934189
vn 0.567943 0.035694 0.822294
vn 0.567943 0.035694 0.822294
vn 0.567943 0.035694 0.822294
vn 0.000000 1.000000 0.000000
vn 0.000000 1.000000 0.000000
vn -0.000000 1.000000 0.000000
vn -0.000000 -1.000000 -0.000000
vn 0.000000 -1.000000 0.000000
vn 0.000000 -1.000000 0.000000
vn 0.697039 -0.006246 0.717006
vn 0.697039 -0.006246 0.717006
vn 0.697039 -0.006246 0.717006
vn 0.481456 -0.029244 0.875982
vn 0.481456 -0.029244 0.875982
vn 0.481456 -0.029244 0.875982
vn 0.569016 0.030356 0.821766
vn 0.569016 0.030356 0.821766
vn 0.569016 0.030356 0.821766
vn 0.952264 -0.000271 0.305277
vn 0.952264 -0.000271 0.305277
vn 0.952264 -0.000271 0.305277
vn 0.000000 1.000000 0.000000
vn 0.000000 1.000000 0.000000
vn 0.000000 1.000000 0.000000
vn 0.731052 0.002820 0.682316
vn 0.731052 0.002820 0.682316
vn 0.731052 0.002820 0.682316
vn -0.360211 0.011453 0.932801
vn -0.360211 0.011453 0.932801
vn -0.360211 0.011453 0.932801
vn -0.412366 -0.015148 0.910892
vn -0.412366 -0.015148 0.910892
vn -0.412366 -0.015148 0.910892
vn -0.139803 -0.043946 0.989204
vn -0.139803 -0.043946 0.989204
vn -0.139803 -0.043946 0.989204
vn 0.000000 -1.000000 -0.000000
vn 0.000000 -1.000000 0.000000
vn 0.000000 -1.000000 0.000000
vn 0.000000 1.000000 0.000000
vn 0.000000 1.000000 0.000000
vn 0.000000 1.000000 -0.000000
vn -0.523993 0.006858 0.851695
vn -0.523993 0.006858 0.851695
vn -0.523993 0.006858 0.851695
vn -0.527695 -0.000484 0.849434
vn -0.527695 -0.000484 0.849434
vn -0.527695 -0.000484 0.849434
vn 0.000000 -1.000000 0.000000
vn 0.000000 -1.000000 0.000000
vn -0.000000 -1.000000 0.000000
vn -0.000000 -1.000000 0.000000
vn 0.000000 -1.000000 0.000000
vn 0.000000 -1.000000 0.000000
vn 0.000000 1.000000 -0.000000
vn 0.000000 1.000000 0.000000
vn 0.000000 1.000000 0.000000
vn 0.010958 0.000569 -0.999940
vn 0.010958 0.000569 -0.999940
vn 0.010958 0.000569 -0.999940
vn 0.018196 -0.004872 -0.999823
vn 0.018196 -0.004872 -0.999823
vn 0.018196 -0.004872 -0.999823
vn 0.000000 1.000000 -0.000000
vn 0.000000 1.000000 0.000000
vn 0.000000 1.000000 0.000000
vn 0.610916 0.009108 -0.791643
vn 0.610916 0.009108 -0.791643
vn 0.610916 0.009108 -0.791643
vn -0.000000 -1.000000 0.000000
vn 0.000000 -1.000000 -0.000000
vn 0.000000 -1.000000 0.000000
vn 0.927310 -0.015402 -0.373976
vn 0.927310 -0.015402 -0.373976
vn 0.927310 -0.015402 -0.373976
vn 0.973422 -0.012739 0.228664
vn 0.973422 -0.012739 0.228664
vn 0.973422 -0.012739 0.228664
vn 0.000000 1.000000 0.000000
vn 0.000000 1.000000 0.000000
vn 0.000000 1.000000 0.000000
vn 0.996910 0.009370 0.077988
vn 0.996910 0.009370 0.077988
vn 0.996910 0.009370 0.077988
vn 0.937978 -0.000931 -0.346693
vn 0.937978 -0.000931 -0.346693
vn 0.937978 -0.000931 -0.346693
vn 0.276876 0.005099 -0.960892
vn 0.276876 0.005099 -0.960892
vn 0.276876 0.005099 -0.960892
vn 0.369678 0.029198 -0.928701
vn 0.369678 0.029198 -0.928701
vn 0.369678 0.029198 -0.928701
vn 0.536638 -0.004672 -0.843800
vn 0.536638 -0.004672 -0.843800
vn 0.536638 -0.004672 -0.843800
vn -0.000000 -1.000000 0.000000
vn 0.000000 -1.000000 0.000000
vn 0.000000 -1.000000 0.000000
vn -0.194366 -0.126143 0.972785
vn -0.194366 -0.126143 0.972785
vn -0.194366 -0.126143 0.972785
vn 0.084909 0.013154 -0.996302
vn 0.084909 0.013154 -0.996302
vn 0.084909 0.013154 -0.996302
vn -1.000000 -0.000000 0.000000
vn -1.000000 0.000000 0.000000
vn -1.000000 0.000000 0.000000
vn 0.099806 -0.022248 -0.994758
vn 0.099806 -0.022248 -0.994758
vn 0.099806 -0.022248 -0.994758
vn -0.129150 -0.984660 -0.117325
vn -0.129151 -0.984660 -0.117325
vn -0.129151 -0.984660 -0.117325
vn -0.008289 -0.999961 -0.003144
vn -0.008289 -0.999961 -0.003144
vn -0.008289 -0.999961 -0.003144
vn -0.331581 -0.026907 0.943043
vn -0.331581 -0.026907 0.943043
vn -0.331581 -0.026907 0.943043
vn -0.000000 1.000000 0.000000
vn 0.000000 1.000000 0.000000
vn 0.000000 1.000000 0.000000
vn -1.000000 0.000000 -0.000000
vn -1.000000 0.000000 0.000000
vn -1.000000 0.000000 0.000000
vn 0.912153 -0.014796 -0.409583
vn 0.912153 -0.014796 -0.409583
vn 0.912153 -0.014796 -0.409583
vn 0.921641 0.007189 -0.387976
vn 0.921641 0.007189 -0.387976
vn 0.921641 0.007189 -0.387976
vn 0.019182 -0.999811 0.003049
vn 0.019182 -0.999811 0.003049
vn 0.019182 -0.999811 0.003049
vn 0.816014 -0.218336 0.535211
vn 0.816014 -0.218336 0.535211
vn 0.816014 -0.218336 0.535211
vn 0.902142 -0.067099 0.426189
vn 0.902142 -0.067099 0.426189
vn 0.902142 -0.067099 0.426189
vn 0.385129 0.056810 0.921113
vn 0.385129 0.056810 0.921113
vn 0.385129 0.056810 0.921113
vn 0.409391 0.891705 0.193030
vn 0.409391 0.891705 0.193030
vn 0.409392 0.891705 0.193030
vn 0.000000 1.000000 0.000000
vn 0.000000 1.000000 0.000000
vn 0.000000 1.000000 0.000000
vn 0.379956 0.911270 0.158808
vn 0.379956 0.911270 0.158808
vn 0.379956 0.911270 0.158808
vn 0.163992 0.531569 -0.830988
vn 0.163992 0.531569 -0.830988
vn 0.163992 0.531569 -0.830988
vn 0.866304 0.340262 -0.365704
vn 0.866304 0.340262 -0.365704
vn 0.866304 0.340262 -0.365704
vn 0.000000 -1.000000 -0.000000
vn 0.000000 -1.000000 0.000000
vn -0.000000 -1.000000 0.000000
vn -1.000000 -0.000000 0.000000
vn -1.000000 0.000000 0.000000
vn -1.000000 0.000000 -0.000000
vn -0.012165 0.999926 0.000880
vn -0.012165 0.999926 0.000880
vn -0.012165 0.999926 0.000880
vn -0.003640 0.999964 -0.007667
vn -0.003640 0.999964 -0.007667
vn -0.003640 0.999964 -0.007667
vn 0.982459 0.171288 0.073723
vn 0.982459 0.171288 0.073723
vn 0.982459 0.171288 0.073723
vn 0.000000 -1.000000 0.000000
vn 0.000000 -1.000000 0.000000
vn 0.000000 -1.000000 0.000000
vn -0.358836 0.021529 0.933152
vn -0.358836 0.021529 0.933152
vn -0.358836 0.021529 0.933152
vn -1.000000 0.000000 0.000000
vn -1.000000 -0.000000 0.000000
vn -1.000000 0.000000 0.000000
vn 0.988645 -0.118755 0.092077
vn 0.988645 -0.118755 0.092077
vn 0.988645 -0.118755 0.092077
vn 0.969477 -0.026711 0.243722
vn 0.969477 -0.026711 0.243722
vn 0.969477 -0.026711 0.243722
vn -0.000000 -1.000000 -0.000000
vn 0.000000 -1.000000 0.000000
vn 0.000000 -1.000000 0.000000
vn 0.604373 -0.066255 0.793942
vn 0.604373 -0.066255 0.793942
vn 0.604373 -0.066255 0.793942
vn 0.722628 -0.091747 -0.685121
vn 0.722628 -0.091747 -0.685121
vn 0.722628 -0.091747 -0.685121
vn 0.718971 -0.088220 -0.689419
vn 0.718971 -0.088220 -0.689419
vn 0.718971 -0.088220 -0.689419
vn -0.000000 -1.000000 0.000000
vn 0.000000 -1.000000 0.000000
vn 0.000000 -1.000000 0.000000
vn 0.056325 0.007462 -0.998385
vn 0.056325 0.007462 -0.998385
vn 0.056325 0.007462 -0.998385
vn 0.202602 0.080834 -0.975919
vn 0.202602 0.080834 -0.975919
vn 0.202602 0.080834 -0.975919
vn -0.270817 0.055306 0.961041
vn -0.270817 0.055306 0.961041
vn -0.270817 0.055306 0.961041
vn 0.519901 -0.022932 0.853919
vn 0.519901 -0.022932 0.853919
vn 0.519901 -0.022932 0.853919
vn -0.011947 0.999920 0.004048
vn -0.011947 0.999920 0.004048
vn -0.011947 0.999920 0.004048
vn -0.537452 -0.006395 0.843270
vn -0.537452 -0.006395 0.843270
vn -0.537452 -0.006395 0.843270
vn -0.548129 0.005464 0.836376
vn -0.548129 0.005464 0.836376
vn -0.548129 0.005464 0.836376
vn 0.024803 0.003458 -0.999686
vn 0.024803 0.003458 -0.999686
vn 0.024803 0.003458 -0.999686
vn 0.021647 -0.999733 -0.008110
vn 0.021647 -0.999733 -0.008110
vn 0.021647 -0.999733 -0.008110
vn -0.561054 -0.033633 0.827096
vn -0.561054 -0.033633 0.827096
vn -0.561054 -0.033633 0.827096
vn 0.008051 0.999967 0.000610
vn 0.008051 0.999967 0.000610
vn 0.008051 0.999967 0.000610
vn -0.005936 0.011864 -0.999912
vn -0.005936 0.011864 -0.999912
vn -0.005936 0.011864 -0.999912
vn -0.049712 0.049071 -0.997557
vn -0.049712 0.049071 -0.997557
vn -0.049712 0.049071 -0.997557
vn -0.957473 0.119012 0.262836
vn -0.957473 0.119012 0.262836
vn -0.957473 0.119012 0.262836
vn -0.974846 0.222392 0.014725
vn -0.974846 0.222392 0.014725
vn -0.974846 0.222392 0.014725
vn -0.973053 -0.155044 0.170674
vn -0.973053 -0.155044 0.170674
vn -0.973053 -0.155044 0.170674
vn -0.952943 -0.261700 -0.153014
vn -0.952943 -0.261700 -0.153014
vn -0.952943 -0.261700 -0.153014
vn -0.186821 -0.054729 -0.980868
vn -0.186821 -0.054729 -0.980868
vn -0.186821 -0.054729 -0.980868
vn -0.006854 -0.089808 -0.995935
vn -0.006854 -0.089808 -0.995935
vn -0.006854 -0.089808 -0.995935
vn 0.001339 -0.999134 -0.041576
vn 0.001339 -0.999134 -0.041576
vn 0.001339 -0.999134 -0.041576
vn 0.999983 0.005830 0.000047
vn 0.999983 0.005830 0.000047
vn 0.999983 0.005830 0.000047
vn 0.999983 0.005846 0.000005
vn 0.999983 0.005846 0.000005
vn 0.999983 0.005846 0.000005
vn 0.008225 0.999966 0.000880
vn 0.008225 0.999966 0.000880
vn 0.008225 0.999966 0.000880
vn -0.531846 0.107083 0.840044
vn -0.531846 0.107083 0.840044
vn -0.531846 0.107083 0.840044
vn 0.998885 0.005968 0.046820
vn 0.998885 0.005968 0.046820
vn 0.998886 0.005968 0.046820

f 1//1 2//2 3//3
f 1//4 3//5 4//6
f 1//7 4//8 5//9
f 6//10 4//11 3//12
f 6//13 5//14 4//15
f 7//16 3//17 2//18
f 8//19 2//20 9//21
f 8//22 9//23 7//24
f 8//25 7//26 2//27
f 10//28 5//29 6//30
f 10//31 6//32 7//33
f 10//34 9//35 5//36
f 10//37 7//38 9//39
f 11//40 6//41 3//42
f 11//43 3//44 7//45
f 11//46 7//47 6//48
f 12//49 9//50 2//51
f 12//52 2//53 1//54
f 12//55 5//56 9//57
f 12//58 1//59 5//60
f 13//61 3//62 14//63
f 4//64 3//65 13//66
f 4//67 13//68 15//69
f 4//70 15//71 16//72
f 17//73 16//74 15//75
f 18//76 13//77 14//78
f 18//79 15//80 13//81
f 18//82 17//83 15//84
f 19//85 14//86 3//87
f 19//88 16//89 14//90
f 20//91 4//92 16//93
f 20//94 16//95 19//96
f 20//97 3//98 4//99
f 21//100 19//101 3//102
f 21//103 3//104 20//105
f 21//106 20//107 19//108
f 22//109 17//110 18//111
f 22//112 18//113 14//114
f 22//115 14//116 16//117
f 22//118 16//119 17//120
f 23//121 24//122 5//123
f 15//124 25//125 26//126
f 15//127 26//128 23//129
f 27//130 26//131 25//132
f 27//133 23//134 26//135
f 27//136 24//137 23//138
f 1//139 23//140 5//141
f 1//142 5//143 15//144
f 1//145 15//146 23//147
f 28//148 27//149 25//150
f 28//151 25//152 29//153
f 28//154 24//155 27//156
f 30//157 24//158 28//159
f 30//160 28//161 29//162
f 30//163 5//164 24//165
f 30//166 29//167 5//168
f 16//169 15//170 5//171
f 16//172 5//173 29//174
f 16//175 25//176 15//177
f 16//178 29//179 25//180
f 8//181 31//182 32//183
f 33//184 31//185 34//186
f 35//187 33//188 34//189
f 36//190 33//191 35//192
f 36//193 35//194 37//195
f 38//196 31//197 8//198
f 38//199 8//200 34//201
f 38//202 34//203 31//204
f 11//205 32//206 37//207
f 11//208 37//209 35//210
f 11//211 8//212 32//213
f 11//214 35//215 8//216
f 39//217 37//218 32//219
f 39//220 36//221 37//222
f 39//223 32//224 31//225
f 39//226 31//227 33//228
f 39//229 33//230 36//231
f 40//232 34//233 8//234
f 40//235 8//236 35//237
f 40//238 35//239 34//240
f 41//241 23//242 42//243
f 43//244 41//245 42//246
f 44//247 45//248 33//249
f 46//250 44//251 23//252
f 46//253 23//254 41//255
f 47//256 43//257 33//258
f 48//259 33//260 45//261
f 48//262 47//263 33//264
f 48//265 41//266 43//267
f 48//268 43//269 47//270
f 48//271 46//272 41//273
f 49//274 46//275 48//276
f 49//277 48//278 45//279
f 49//280 45//281 44//282
f 49//283 44//284 46//285
f 34//286 23//287 44//288
f 34//289 44//290 33//291
f 34//292 33//293 43//294
f 34//295 43//296 42//297
f 34//298 42//299 23//300

