# /home/hasu/ros_workspace/cram_ws/src/cram/cram_pr2/pr2_description_lowres/meshes/torso_v0/convex/torso_lift_L.obj created by IVCON.
# Original data in /home/hasu/ros_workspace/cram_ws/src/cram/cram_pr2/pr2_description_lowres/meshes/torso_v0/torso_lift_L.stl.

g IVCON

v -0.212071 0.104007 -0.095983
v -0.212071 0.000000 -0.095983
v -0.287455 0.104007 -0.045054
v -0.285539 0.104007 0.109026
v -0.287455 -0.000000 -0.045054
v -0.287606 -0.000000 0.109026
v -0.212071 0.000000 -0.045054
v -0.212071 0.104007 -0.045054
v -0.287535 0.104007 0.036769
v -0.287606 0.041760 0.109026
v -0.152056 0.135549 0.109026
v -0.212071 0.199889 0.109026
v -0.212071 0.208015 -0.045054
v -0.152056 0.135549 -0.095983
v -0.287455 0.174496 -0.045054
v -0.261086 0.199889 0.109026
v -0.212071 0.164919 -0.095983
v -0.261086 0.208015 -0.045054
v -0.283468 0.166370 0.109026
v -0.016507 0.000000 -0.095983
v -0.212071 -0.208015 -0.045054
v -0.212071 -0.164919 -0.095983
v -0.016507 0.000000 0.109026
v -0.212071 -0.199889 0.109026
v -0.287455 -0.174496 -0.045054
v -0.283468 -0.166370 0.109026
v -0.261086 -0.199889 0.109026
v -0.261086 -0.208015 -0.045054
v -0.181426 -0.164919 -0.095983
v -0.212071 -0.164919 -0.506000
v -0.181426 0.164919 -0.095983
v -0.212071 0.164919 -0.506000
v -0.016507 0.000000 -0.506000
v -0.181426 -0.164919 -0.506000
v -0.181426 0.164919 -0.506000
v 0.111556 0.087264 0.157500
v 0.046537 -0.259041 0.161468
v -0.261086 -0.075311 0.283445
v 0.046537 0.259041 0.161468
v 0.062558 -0.194321 0.308946
v 0.073672 0.087264 0.314034
v -0.212071 0.172351 0.269840
v 0.062558 0.194321 0.308946
v -0.212071 -0.172351 0.269840
v -0.261086 0.155591 0.255523

vn -0.559811 -0.000000 -0.828620
vn -0.559811 0.000000 -0.828620
vn -0.559811 0.000000 -0.828620
vn 0.000000 1.000000 0.000000
vn -0.000000 1.000000 0.000000
vn 0.000000 1.000000 0.000000
vn -0.559811 0.000000 -0.828620
vn -0.559811 -0.000000 -0.828620
vn -0.559811 0.000000 -0.828620
vn 0.000000 -1.000000 0.000000
vn 0.000000 -1.000000 0.000000
vn 0.000000 -1.000000 0.000000
vn -1.000000 0.000000 -0.000978
vn -1.000000 0.000000 -0.000978
vn -1.000000 -0.000000 -0.000978
vn 1.000000 0.000000 0.000000
vn 1.000000 0.000000 0.000000
vn 1.000000 0.000000 0.000000
vn 0.897765 -0.017840 0.440113
vn 0.897765 -0.017840 0.440113
vn 0.897765 -0.017840 0.440113
vn 0.000000 -1.000000 0.000000
vn 0.000000 -1.000000 0.000000
vn 0.000000 -1.000000 0.000000
vn 0.000000 1.000000 0.000000
vn 0.000000 1.000000 -0.000000
vn 0.000000 1.000000 0.000000
vn 0.902641 0.000000 0.430395
vn 0.902641 0.000000 0.430395
vn 0.902641 -0.000000 0.430395
vn 1.000000 0.000000 0.000000
vn 1.000000 -0.000000 0.000000
vn 1.000000 0.000000 -0.000000
vn -0.000000 1.000000 0.000000
vn 0.000000 1.000000 0.000000
vn 0.000000 1.000000 -0.000000
vn -0.999999 -0.000000 -0.000978
vn -0.999999 -0.000000 -0.000978
vn -1.000000 -0.000000 -0.000978
vn -0.000000 0.000000 1.000000
vn 0.000000 0.000000 1.000000
vn 0.000000 0.000000 1.000000
vn -0.999068 0.033172 0.027600
vn -0.999068 0.033172 0.027600
vn -0.999068 0.033172 0.027600
vn -1.000000 -0.000000 -0.000978
vn -0.999999 0.000000 -0.000978
vn -1.000000 0.000000 -0.000978
vn 0.000000 0.000000 1.000000
vn 0.000000 0.000000 1.000000
vn 0.000000 0.000000 1.000000
vn 0.229189 -0.969911 0.082133
vn 0.229189 -0.969911 0.082133
vn 0.229189 -0.969911 0.082133
vn 0.730783 0.681663 0.035952
vn 0.730783 0.681663 0.035952
vn 0.730783 0.681663 0.035952
vn 0.465228 -0.885191 0.000000
vn 0.465228 -0.885191 0.000000
vn 0.465228 -0.885191 0.000000
vn 0.770169 0.637839 -0.000000
vn 0.770169 0.637840 0.000000
vn 0.770169 0.637839 0.000000
vn -0.559811 0.000000 -0.828620
vn -0.559811 -0.000000 -0.828620
vn -0.559811 0.000000 -0.828620
vn 0.000000 -1.000000 0.000000
vn 0.000000 -1.000000 0.000000
vn 0.000000 -1.000000 -0.000000
vn -0.999923 0.000000 0.012435
vn -0.999923 0.000000 0.012435
vn -0.999923 0.000000 0.012435
vn -0.000000 0.998612 0.052668
vn 0.000000 0.998612 0.052668
vn 0.000000 0.998612 0.052668
vn -0.000000 0.000000 1.000000
vn 0.000000 0.000000 1.000000
vn 0.000000 0.000000 1.000000
vn 0.349952 0.715100 -0.605116
vn 0.349952 0.715100 -0.605116
vn 0.349952 0.715100 -0.605116
vn -0.559811 -0.000000 -0.828620
vn -0.559811 0.000000 -0.828620
vn -0.559811 0.000000 -0.828620
vn 0.000000 0.000000 -1.000000
vn -0.000000 0.000000 -1.000000
vn 0.000000 0.000000 -1.000000
vn 0.000000 0.763370 -0.645962
vn 0.000000 0.763370 -0.645962
vn 0.000000 0.763370 -0.645962
vn -0.483955 0.380722 -0.787933
vn -0.483955 0.380722 -0.787933
vn -0.483955 0.380722 -0.787933
vn -0.785529 0.617966 0.032592
vn -0.785529 0.617966 0.032592
vn -0.785529 0.617966 0.032592
vn -0.000000 0.998612 0.052668
vn 0.000000 0.998612 0.052668
vn 0.000000 0.998612 0.052668
vn -0.999069 0.033172 0.027600
vn -0.999069 0.033172 0.027600
vn -0.999069 0.033172 0.027600
vn -0.000000 0.000000 1.000000
vn 0.000000 0.000000 1.000000
vn 0.000000 0.000000 1.000000
vn -0.830564 0.554608 0.050741
vn -0.830564 0.554608 0.050741
vn -0.830564 0.554608 0.050741
vn 0.541288 -0.641870 -0.543149
vn 0.541288 -0.641870 -0.543149
vn 0.541288 -0.641870 -0.543149
vn 0.728575 -0.684966 0.000000
vn 0.728575 -0.684966 0.000000
vn 0.728575 -0.684966 0.000000
vn -0.000000 1.000000 0.000000
vn 0.000000 1.000000 0.000000
vn -0.000000 1.000000 0.000000
vn 0.714311 -0.698857 0.036859
vn 0.714311 -0.698857 0.036859
vn 0.714311 -0.698857 0.036859
vn 0.000000 -0.000000 1.000000
vn 0.000000 0.000000 1.000000
vn -0.000000 0.000000 1.000000
vn -0.000000 1.000000 -0.000000
vn 0.000000 1.000000 0.000000
vn 0.000000 1.000000 0.000000
vn -1.000000 0.000000 -0.000978
vn -1.000000 0.000000 -0.000978
vn -1.000000 -0.000000 -0.000978
vn -0.559811 0.000000 -0.828620
vn -0.559811 -0.000000 -0.828620
vn -0.559811 0.000000 -0.828620
vn -0.000000 -0.000000 1.000000
vn 0.000000 0.000000 1.000000
vn 0.000000 0.000000 1.000000
vn -0.999322 -0.024852 0.027168
vn -0.999322 -0.024852 0.027168
vn -0.999322 -0.024852 0.027168
vn 0.000000 0.000000 -1.000000
vn -0.000000 0.000000 -1.000000
vn 0.000000 0.000000 -1.000000
vn -0.559811 -0.000000 -0.828620
vn -0.559811 0.000000 -0.828620
vn -0.559811 0.000000 -0.828620
vn -0.000000 1.000000 0.000000
vn 0.000000 1.000000 0.000000
vn 0.000000 1.000000 0.000000
vn 0.000000 -0.000000 1.000000
vn 0.000000 0.000000 1.000000
vn 0.000000 0.000000 1.000000
vn -0.830564 -0.554608 0.050741
vn -0.830564 -0.554608 0.050741
vn -0.830564 -0.554608 0.050741
vn 0.000000 -0.998612 0.052668
vn 0.000000 -0.998612 0.052668
vn 0.000000 -0.998612 0.052668
vn 0.000000 -0.998612 0.052668
vn 0.000000 -0.998612 0.052668
vn 0.000000 -0.998612 0.052668
vn -0.785529 -0.617966 0.032592
vn -0.785529 -0.617966 0.032592
vn -0.785529 -0.617966 0.032592
vn 0.000000 -0.763370 -0.645962
vn 0.000000 -0.763370 -0.645962
vn -0.000000 -0.763370 -0.645962
vn -0.483955 -0.380722 -0.787933
vn -0.483955 -0.380722 -0.787933
vn -0.483955 -0.380722 -0.787933
vn -0.000000 -1.000000 0.000000
vn 0.000000 -1.000000 0.000000
vn 0.000000 -1.000000 0.000000
vn 0.000000 0.000000 1.000000
vn 0.000000 -0.000000 1.000000
vn 0.000000 0.000000 1.000000
vn 0.000000 0.000000 -1.000000
vn -0.000000 0.000000 -1.000000
vn 0.000000 0.000000 -1.000000
vn -1.000000 0.000000 0.000000
vn -1.000000 0.000000 0.000000
vn -1.000000 0.000000 0.000000
vn 0.000000 0.000000 1.000000
vn 0.000000 0.000000 1.000000
vn 0.000000 0.000000 1.000000
vn 0.707107 -0.707107 0.000000
vn 0.707107 -0.707107 0.000000
vn 0.707107 -0.707107 0.000000
vn 0.707107 0.707107 0.000000
vn 0.707107 0.707107 -0.000000
vn 0.707107 0.707107 0.000000
vn -0.000000 0.000000 1.000000
vn 0.000000 0.000000 1.000000
vn 0.000000 0.000000 1.000000
vn -0.000000 1.000000 0.000000
vn 0.000000 1.000000 0.000000
vn 0.000000 1.000000 0.000000
vn -1.000000 -0.000000 -0.000000
vn -1.000000 0.000000 0.000000
vn -1.000000 0.000000 0.000000
vn 0.000000 -1.000000 0.000000
vn 0.000000 -1.000000 -0.000000
vn 0.000000 -1.000000 0.000000
vn 0.000000 0.000000 -1.000000
vn 0.000000 0.000000 -1.000000
vn 0.000000 0.000000 -1.000000
vn 0.707107 -0.707107 0.000000
vn 0.707107 -0.707107 0.000000
vn 0.707107 -0.707107 0.000000
vn 0.707107 0.707107 -0.000000
vn 0.707107 0.707107 0.000000
vn 0.707107 0.707107 0.000000
vn -0.000000 -0.000000 -1.000000
vn 0.000000 0.000000 -1.000000
vn 0.000000 0.000000 -1.000000
vn 0.000000 1.000000 -0.000000
vn 0.000000 1.000000 0.000000
vn 0.000000 1.000000 0.000000
vn 0.160172 -0.041373 -0.986222
vn 0.160172 -0.041373 -0.986222
vn 0.160172 -0.041373 -0.986222
vn 0.128996 0.000000 -0.991645
vn 0.128996 0.000000 -0.991645
vn 0.128996 0.000000 -0.991645
vn -1.000000 0.000000 -0.000000
vn -1.000000 0.000000 0.000000
vn -1.000000 0.000000 0.000000
vn 0.152453 0.080459 -0.985030
vn 0.152453 0.080459 -0.985030
vn 0.152453 0.080459 -0.985030
vn -0.083909 -0.014692 0.996365
vn -0.083909 -0.014692 0.996365
vn -0.083909 -0.014692 0.996365
vn 0.971059 -0.042574 0.235014
vn 0.971059 -0.042574 0.235014
vn 0.971059 -0.042574 0.235014
vn 0.982451 -0.184750 -0.025650
vn 0.982451 -0.184750 -0.025650
vn 0.982451 -0.184750 -0.025650
vn -0.221407 0.947726 0.229770
vn -0.221407 0.947726 0.229770
vn -0.221407 0.947726 0.229770
vn -0.108252 0.035977 0.993472
vn -0.108252 0.035977 0.993472
vn -0.108252 0.035977 0.993472
vn -0.147008 0.083239 0.985627
vn -0.147008 0.083239 0.985627
vn -0.147008 0.083239 0.985627
vn -0.130625 0.902559 0.410274
vn -0.130625 0.902559 0.410274
vn -0.130625 0.902559 0.410274
vn 0.965893 0.111383 0.233763
vn 0.965893 0.111383 0.233763
vn 0.965893 0.111383 0.233763
vn 0.934330 0.352423 0.053160
vn 0.934330 0.352423 0.053160
vn 0.934330 0.352423 0.053160
vn -0.823165 -0.462049 0.330015
vn -0.823165 -0.462049 0.330015
vn -0.823165 -0.462049 0.330015
vn -0.154431 -0.213256 0.964714
vn -0.154431 -0.213256 0.964714
vn -0.154431 -0.213256 0.964714
vn -0.221407 -0.947726 0.229770
vn -0.221407 -0.947726 0.229770
vn -0.221407 -0.947726 0.229770
vn -0.130625 -0.902559 0.410274
vn -0.130625 -0.902559 0.410274
vn -0.130625 -0.902559 0.410274
vn -1.000000 -0.000000 -0.000000
vn -1.000000 0.000000 0.000000
vn -1.000000 0.000000 0.000000
vn -0.314261 0.113969 0.942471
vn -0.314261 0.113969 0.942471
vn -0.314261 0.113969 0.942471
vn -0.380812 0.885075 0.267627
vn -0.380812 0.885075 0.267627
vn -0.380812 0.885075 0.267627

f 1//1 2//2 3//3
f 1//4 3//5 4//6
f 5//7 3//8 2//9
f 5//10 2//11 6//12
f 5//13 6//14 3//15
f 7//16 2//17 1//18
f 7//19 4//20 6//21
f 7//22 6//23 2//24
f 8//25 1//26 4//27
f 8//28 4//29 7//30
f 8//31 7//32 1//33
f 9//34 4//35 3//36
f 9//37 3//38 6//39
f 10//40 6//41 4//42
f 10//43 4//44 9//45
f 10//46 9//47 6//48
f 11//49 12//50 4//51
f 11//52 4//53 1//54
f 13//55 12//56 11//57
f 14//58 11//59 1//60
f 14//61 13//62 11//63
f 3//64 15//65 1//66
f 3//67 1//68 4//69
f 3//70 4//71 15//72
f 16//73 12//74 13//75
f 16//76 4//77 12//78
f 17//79 13//80 14//81
f 17//82 1//83 15//84
f 17//85 14//86 1//87
f 18//88 13//89 17//90
f 18//91 17//92 15//93
f 18//94 15//95 16//96
f 18//97 16//98 13//99
f 19//100 15//101 4//102
f 19//103 4//104 16//105
f 19//106 16//107 15//108
f 20//109 21//110 22//111
f 21//112 20//113 23//114
f 6//115 23//116 20//117
f 24//118 21//119 23//120
f 24//121 23//122 6//123
f 5//124 6//125 20//126
f 25//127 6//128 5//129
f 25//130 5//131 22//132
f 26//133 24//134 6//135
f 26//136 6//137 25//138
f 2//139 20//140 22//141
f 2//142 22//143 5//144
f 2//145 5//146 20//147
f 27//148 24//149 26//150
f 27//151 26//152 25//153
f 27//154 21//155 24//156
f 28//157 21//158 27//159
f 28//160 27//161 25//162
f 28//163 22//164 21//165
f 28//166 25//167 22//168
f 29//169 22//170 30//171
f 22//172 29//173 31//174
f 32//175 33//176 30//177
f 32//178 30//179 22//180
f 20//181 31//182 29//183
f 20//184 29//185 33//186
f 20//187 33//188 31//189
f 17//190 22//191 31//192
f 17//193 31//194 32//195
f 17//196 32//197 22//198
f 34//199 29//200 30//201
f 34//202 30//203 33//204
f 34//205 33//206 29//207
f 35//208 31//209 33//210
f 35//211 33//212 32//213
f 35//214 32//215 31//216
f 36//217 37//218 27//219
f 16//220 36//221 27//222
f 38//223 16//224 27//225
f 39//226 36//227 16//228
f 40//229 41//230 38//231
f 40//232 36//233 41//234
f 40//235 37//236 36//237
f 42//238 39//239 16//240
f 43//241 38//242 41//243
f 43//244 42//245 38//246
f 43//247 39//248 42//249
f 43//250 41//251 36//252
f 43//253 36//254 39//255
f 44//256 38//257 27//258
f 44//259 40//260 38//261
f 44//262 27//263 37//264
f 44//265 37//266 40//267
f 45//268 16//269 38//270
f 45//271 38//272 42//273
f 45//274 42//275 16//276

