# /home/hasu/ros_workspace/cram_ws/src/cram/cram_pr2/pr2_description_lowres/meshes/torso_v0/convex/torso_lift.obj created by IVCON.
# Original data in /home/hasu/ros_workspace/cram_ws/src/cram/cram_pr2/pr2_description_lowres/meshes/torso_v0/torso_lift.stl.

g IVCON

v -0.031489 -0.018132 -0.094814
v -0.158296 -0.145181 0.110664
v -0.158296 -0.144364 -0.094814
v -0.025691 -0.000353 0.110664
v -0.025557 -0.000353 -0.094814
v -0.030644 -0.017145 0.110664
v -0.025058 -0.004687 -0.094814
v -0.025778 -0.005231 0.110664
v -0.025692 -0.000333 0.110780
v -0.159185 0.145854 -0.094814
v -0.159185 0.146014 0.110780
v -0.029289 0.015677 0.110780
v -0.034328 0.021213 -0.094814
v -0.027738 0.011289 -0.094814
v -0.027534 0.013053 0.110780
v -0.030484 0.016507 -0.094814
v -0.026777 0.008541 -0.094814
v -0.026090 0.005730 -0.050492
v -0.025678 0.002876 0.085011
v -0.212071 -0.206341 -0.044909
v -0.211772 -0.170629 -0.094814
v -0.262883 -0.195464 0.110664
v -0.286365 -0.104317 0.110664
v -0.272016 -0.195659 -0.044906
v -0.211857 -0.102226 -0.094814
v -0.288543 -0.104378 -0.044909
v -0.212048 -0.198169 0.110664
v -0.281452 -0.171178 0.100548
v -0.286598 -0.172066 -0.044911
v -0.212026 0.198171 0.110780
v -0.286313 0.104945 0.110780
v -0.212017 0.100772 -0.094814
v -0.289937 0.105148 -0.044903
v -0.269850 0.187776 0.110780
v -0.266556 0.201987 -0.044901
v -0.212071 0.206366 -0.044909
v -0.212071 0.169749 -0.094814
v -0.286339 0.173033 -0.044899
v -0.189711 0.168995 -0.094814
v -0.292938 0.048534 -0.044906
v -0.211857 -0.102226 -0.044909
v -0.212017 0.100772 -0.044909
v -0.290406 -0.000353 0.110780
v -0.288447 0.102595 0.080746
v -0.288201 -0.104368 0.022291
v -0.211800 -0.170623 -0.506001
v -0.175340 0.161903 -0.094814
v -0.189349 0.168750 -0.506000
v -0.024765 -0.002270 -0.505997
v -0.212066 0.169814 -0.506000
v -0.174902 -0.161759 -0.506000
v -0.168906 -0.155041 -0.094814
v -0.032402 0.019083 -0.094814
v -0.028948 0.014759 -0.505998
v -0.263227 0.195354 0.110780
v 0.113929 0.039395 0.157500
v 0.020480 0.261478 0.150236
v -0.262111 0.014311 0.284859
v 0.063089 -0.190767 0.301217
v 0.035575 0.098414 0.316374
v 0.047840 -0.246629 0.150034
v -0.124986 0.185419 0.301875
v -0.261615 -0.167865 0.244834
v 0.062134 0.189913 0.303652
v -0.262090 0.154239 0.254746

vn 0.705498 -0.708707 -0.002820
vn 0.705498 -0.708707 -0.002820
vn 0.705498 -0.708707 -0.002820
vn -0.737544 0.675293 0.002687
vn -0.737544 0.675293 0.002687
vn -0.737544 0.675293 0.002687
vn 0.000000 0.000000 -1.000000
vn -0.000000 0.000000 -1.000000
vn 0.000000 0.000000 -1.000000
vn -0.735299 0.677743 -0.000479
vn -0.735299 0.677743 -0.000479
vn -0.735299 0.677743 -0.000479
vn 0.000000 -0.000000 1.000000
vn 0.000000 0.000000 1.000000
vn 0.000000 0.000000 1.000000
vn 0.708168 -0.706044 0.000475
vn 0.708168 -0.706044 0.000475
vn 0.708168 -0.706044 0.000475
vn 0.993426 0.114478 0.000647
vn 0.993426 0.114478 0.000647
vn 0.993426 0.114478 0.000647
vn -0.000000 0.000000 -1.000000
vn 0.000000 0.000000 -1.000000
vn 0.000000 -0.000000 -1.000000
vn 0.902094 -0.431536 -0.001641
vn 0.902094 -0.431536 -0.001641
vn 0.902094 -0.431536 -0.001641
vn 0.000000 -0.000000 1.000000
vn 0.000000 0.000000 1.000000
vn 0.000000 0.000000 1.000000
vn 0.925772 -0.378075 0.002244
vn 0.925772 -0.378075 0.002244
vn 0.925772 -0.378075 0.002244
vn 0.999836 -0.017758 0.003456
vn 0.999836 -0.017758 0.003456
vn 0.999836 -0.017758 0.003456
vn -0.738148 -0.674639 -0.000418
vn -0.738148 -0.674639 -0.000418
vn -0.738148 -0.674639 -0.000418
vn -0.738806 -0.673918 0.000522
vn -0.738806 -0.673918 0.000522
vn -0.738806 -0.673918 0.000522
vn 0.000000 0.000000 1.000000
vn 0.000000 0.000000 1.000000
vn 0.000000 0.000000 1.000000
vn 0.706494 0.707719 -0.000549
vn 0.706494 0.707719 -0.000549
vn 0.706494 0.707719 -0.000549
vn 0.708299 0.705911 0.001645
vn 0.708299 0.705911 0.001645
vn 0.708299 0.705911 0.001645
vn -0.000000 -0.000000 -1.000000
vn 0.000000 0.000000 -1.000000
vn 0.000000 0.000000 -1.000000
vn -0.000000 -0.000000 -1.000000
vn 0.000000 0.000000 -1.000000
vn 0.000000 0.000000 -1.000000
vn 0.000000 0.000000 1.000000
vn 0.000000 0.000000 1.000000
vn 0.000000 0.000000 1.000000
vn 0.884930 0.465699 -0.004871
vn 0.884930 0.465699 -0.004871
vn 0.884930 0.465699 -0.004871
vn 0.774469 0.632609 -0.001950
vn 0.774469 0.632609 -0.001950
vn 0.774469 0.632609 -0.001950
vn 0.831417 0.555643 -0.002592
vn 0.831417 0.555643 -0.002592
vn 0.831417 0.555643 -0.002592
vn 0.943937 0.330103 -0.003766
vn 0.943937 0.330103 -0.003766
vn 0.943937 0.330103 -0.003766
vn 0.975666 0.219260 -0.001217
vn 0.975666 0.219260 -0.001217
vn 0.975666 0.219260 -0.001217
vn 0.990708 0.135841 -0.006741
vn 0.990708 0.135841 -0.006741
vn 0.990708 0.135841 -0.006741
vn 0.990510 0.136323 0.017521
vn 0.990510 0.136323 0.017521
vn 0.990510 0.136323 0.017521
vn 0.984098 0.177624 0.000749
vn 0.984098 0.177624 0.000749
vn 0.984098 0.177624 0.000749
vn 0.999999 0.000838 0.000655
vn 0.999999 0.000838 0.000655
vn 0.999999 0.000838 0.000655
vn 0.995508 0.094672 -0.001033
vn 0.995508 0.094672 -0.001033
vn 0.995508 0.094672 -0.001033
vn 0.371369 -0.756117 -0.538862
vn 0.371369 -0.756117 -0.538862
vn 0.371369 -0.756117 -0.538862
vn 0.754272 -0.656557 -0.002612
vn 0.754272 -0.656557 -0.002612
vn 0.754272 -0.656557 -0.002612
vn 0.000000 -0.000000 1.000000
vn 0.000000 0.000000 1.000000
vn 0.000000 0.000000 1.000000
vn -0.175421 -0.984426 0.011534
vn -0.175421 -0.984426 0.011534
vn -0.175421 -0.984426 0.011534
vn -0.143373 -0.804415 -0.576508
vn -0.143373 -0.804415 -0.576508
vn -0.143373 -0.804415 -0.576508
vn -0.028046 0.999607 -0.000000
vn -0.028046 0.999607 -0.000000
vn -0.028046 0.999607 -0.000000
vn 0.000000 0.000000 -1.000000
vn -0.000000 0.000000 -1.000000
vn 0.000000 0.000000 -1.000000
vn -0.545419 -0.000676 -0.838163
vn -0.545419 -0.000676 -0.838163
vn -0.545419 -0.000676 -0.838163
vn 0.618303 0.785934 0.003127
vn 0.618303 0.785934 0.003127
vn 0.618303 0.785934 0.003127
vn 0.301818 0.945901 0.119066
vn 0.301818 0.945901 0.119066
vn 0.301818 0.945901 0.119066
vn 0.701530 -0.711664 0.037283
vn 0.701530 -0.711664 0.037283
vn 0.701530 -0.711664 0.037283
vn 0.000000 -0.000000 1.000000
vn 0.000000 0.000000 1.000000
vn -0.000000 0.000000 1.000000
vn -0.053060 -0.997216 0.052393
vn -0.053060 -0.997216 0.052393
vn -0.053060 -0.997216 0.052393
vn -0.626485 -0.161402 0.762539
vn -0.626485 -0.161402 0.762539
vn -0.626485 -0.161402 0.762539
vn -0.803005 -0.594046 0.047889
vn -0.803005 -0.594046 0.047889
vn -0.803005 -0.594046 0.047889
vn -0.850171 -0.525454 0.033285
vn -0.850171 -0.525454 0.033285
vn -0.850171 -0.525454 0.033285
vn -0.999489 -0.028725 0.014007
vn -0.999489 -0.028725 0.014007
vn -0.999489 -0.028725 0.014007
vn -0.996265 -0.078610 0.035725
vn -0.996265 -0.078610 0.035725
vn -0.996265 -0.078610 0.035725
vn -0.554561 -0.015919 -0.831991
vn -0.554561 -0.015919 -0.831991
vn -0.554561 -0.015919 -0.831991
vn -0.520971 -0.322161 -0.790444
vn -0.520971 -0.322161 -0.790444
vn -0.520970 -0.322161 -0.790444
vn 0.000000 0.000000 1.000000
vn 0.000000 0.000000 1.000000
vn 0.000000 0.000000 1.000000
vn 0.304829 -0.943588 0.129307
vn 0.304829 -0.943588 0.129307
vn 0.304829 -0.943588 0.129307
vn 0.649113 -0.760691 0.000590
vn 0.649113 -0.760691 0.000590
vn 0.649113 -0.760691 0.000590
vn -0.056071 -0.998427 -0.000000
vn -0.056071 -0.998427 -0.000000
vn -0.056071 -0.998427 -0.000000
vn -0.000000 0.000000 1.000000
vn 0.000000 0.000000 1.000000
vn 0.000000 0.000000 1.000000
vn -0.176294 0.980592 0.085783
vn -0.176294 0.980592 0.085783
vn -0.176294 0.980592 0.085783
vn 0.702003 0.711200 0.037233
vn 0.702002 0.711201 0.037233
vn 0.702002 0.711201 0.037233
vn 0.752751 0.658305 -0.000510
vn 0.752751 0.658305 -0.000510
vn 0.752751 0.658305 -0.000510
vn -0.079995 0.995416 0.052416
vn -0.079995 0.995416 0.052416
vn -0.079995 0.995416 0.052416
vn -0.064750 0.804560 -0.590331
vn -0.064750 0.804560 -0.590331
vn -0.064750 0.804560 -0.590331
vn -0.539389 -0.000425 -0.842057
vn -0.539389 -0.000425 -0.842057
vn -0.539389 -0.000425 -0.842057
vn 0.000000 0.000000 -1.000000
vn -0.000000 0.000000 -1.000000
vn 0.000000 0.000000 -1.000000
vn -0.511892 0.349700 -0.784651
vn -0.511892 0.349700 -0.784651
vn -0.511892 0.349700 -0.784651
vn -0.556666 0.029552 -0.830210
vn -0.556666 0.029552 -0.830210
vn -0.556666 0.029552 -0.830210
vn -0.998327 0.052914 0.023308
vn -0.998327 0.052914 0.023308
vn -0.998327 0.052914 0.023308
vn -0.977256 0.194233 0.085112
vn -0.977256 0.194233 0.085112
vn -0.977256 0.194233 0.085112
vn -0.825195 0.563823 0.034007
vn -0.825195 0.563823 0.034007
vn -0.825195 0.563823 0.034007
vn 0.574338 0.757639 -0.310029
vn 0.574338 0.757639 -0.310029
vn 0.574338 0.757639 -0.310029
vn -0.000000 -0.000000 -1.000000
vn 0.000000 0.000000 -1.000000
vn 0.000000 0.000000 -1.000000
vn 0.027202 0.805953 -0.591354
vn 0.027202 0.805953 -0.591354
vn 0.027202 0.805953 -0.591354
vn -0.524741 -0.000413 -0.851262
vn -0.524741 -0.000413 -0.851262
vn -0.524741 -0.000413 -0.851262
vn -0.545057 -0.015646 -0.838253
vn -0.545057 -0.015646 -0.838253
vn -0.545057 -0.015646 -0.838253
vn 0.028046 -0.999607 0.000000
vn 0.028046 -0.999607 0.000000
vn 0.028046 -0.999607 0.000000
vn 0.056071 0.998427 0.000000
vn 0.056071 0.998427 0.000000
vn 0.056071 0.998427 0.000000
vn -0.538014 0.028564 -0.842452
vn -0.538014 0.028565 -0.842452
vn -0.538014 0.028564 -0.842452
vn 1.000000 0.000787 0.000000
vn 1.000000 0.000787 0.000000
vn 1.000000 0.000787 0.000000
vn 0.901902 -0.000463 0.431940
vn 0.901902 -0.000463 0.431940
vn 0.901902 -0.000463 0.431940
vn 0.028046 -0.999607 0.000000
vn 0.028046 -0.999607 0.000000
vn 0.028046 -0.999607 0.000000
vn 0.056070 0.998427 0.000000
vn 0.056070 0.998427 -0.000000
vn 0.056070 0.998427 0.000000
vn 0.902510 0.000711 0.430668
vn 0.902510 0.000711 0.430668
vn 0.902510 0.000711 0.430668
vn 1.000000 0.000787 0.000000
vn 1.000000 0.000787 0.000000
vn 1.000000 0.000787 -0.000000
vn 0.014414 -0.000560 0.999896
vn 0.014414 -0.000560 0.999896
vn 0.014414 -0.000560 0.999896
vn -0.999359 0.026152 0.024467
vn -0.999359 0.026152 0.024467
vn -0.999359 0.026152 0.024467
vn -0.996947 0.038747 0.067796
vn -0.996947 0.038747 0.067796
vn -0.996947 0.038747 0.067796
vn -0.857104 0.514730 0.020624
vn -0.857104 0.514730 0.020624
vn -0.857104 0.514730 0.020624
vn -0.998515 0.052925 0.012918
vn -0.998515 0.052925 0.012918
vn -0.998515 0.052925 0.012918
vn 0.028040 -0.999607 0.000000
vn 0.028040 -0.999607 0.000000
vn 0.028040 -0.999607 0.000000
vn -0.999029 -0.038853 0.020779
vn -0.999029 -0.038853 0.020779
vn -0.999029 -0.038853 0.020779
vn -0.999574 -0.028728 0.005097
vn -0.999574 -0.028728 0.005097
vn -0.999574 -0.028728 0.005097
vn -0.999589 -0.027636 0.007581
vn -0.999589 -0.027636 0.007581
vn -0.999589 -0.027636 0.007581
vn -1.000000 -0.000878 0.000068
vn -1.000000 -0.000878 0.000068
vn -1.000000 -0.000878 0.000068
vn 0.000000 0.000000 1.000000
vn 0.000000 -0.000000 1.000000
vn 0.000000 0.000000 1.000000
vn 0.208899 0.977894 0.009167
vn 0.208899 0.977894 0.009167
vn 0.208899 0.977894 0.009167
vn 0.000020 0.000002 -1.000000
vn 0.000020 0.000002 -1.000000
vn 0.000020 0.000002 -1.000000
vn 0.000000 0.000000 1.000000
vn 0.000000 0.000000 1.000000
vn 0.000000 0.000000 1.000000
vn -1.000000 -0.000781 -0.000012
vn -1.000000 -0.000781 -0.000012
vn -1.000000 -0.000781 -0.000012
vn 0.046786 0.998905 0.000157
vn 0.046786 0.998905 0.000157
vn 0.046786 0.998905 0.000157
vn 0.000000 0.000003 -1.000000
vn 0.000000 0.000003 -1.000000
vn 0.000000 0.000003 -1.000000
vn 0.000030 -0.000009 -1.000000
vn 0.000030 -0.000009 -1.000000
vn 0.000030 -0.000009 -1.000000
vn 0.728128 -0.685432 -0.003511
vn 0.728128 -0.685432 -0.003511
vn 0.728128 -0.685432 -0.003511
vn 0.233584 -0.972337 -0.000029
vn 0.233584 -0.972337 -0.000029
vn 0.233584 -0.972337 -0.000029
vn 0.000000 -0.000000 1.000000
vn 0.000000 0.000000 1.000000
vn 0.000000 0.000000 1.000000
vn 0.341726 -0.939742 0.010371
vn 0.341726 -0.939742 0.010371
vn 0.341726 -0.939742 0.010371
vn 0.722566 -0.691302 0.000758
vn 0.722566 -0.691302 0.000758
vn 0.722566 -0.691302 0.000758
vn 0.000000 0.000000 1.000000
vn 0.000000 0.000000 1.000000
vn 0.000000 0.000000 1.000000
vn -0.000059 -0.000074 -1.000000
vn -0.000059 -0.000074 -1.000000
vn -0.000059 -0.000074 -1.000000
vn 0.692500 0.721325 -0.011582
vn 0.692500 0.721325 -0.011582
vn 0.692500 0.721325 -0.011582
vn 0.706814 0.707398 -0.001502
vn 0.706814 0.707398 -0.001502
vn 0.706814 0.707398 -0.001502
vn 0.971128 0.238548 0.002094
vn 0.971128 0.238548 0.002094
vn 0.971128 0.238548 0.002094
vn 0.955432 0.295171 0.004921
vn 0.955432 0.295171 0.004921
vn 0.955432 0.295171 0.004921
vn 0.123099 0.000404 -0.992394
vn 0.123099 0.000404 -0.992394
vn 0.123099 0.000404 -0.992394
vn 0.132381 0.023292 -0.990925
vn 0.132381 0.023292 -0.990925
vn 0.132381 0.023292 -0.990925
vn -0.999984 -0.000882 0.005492
vn -0.999984 -0.000882 0.005492
vn -0.999984 -0.000882 0.005492
vn -0.088167 -0.060502 0.994267
vn -0.088167 -0.060502 0.994267
vn -0.088167 -0.060502 0.994267
vn 0.125208 -0.003034 -0.992126
vn 0.125208 -0.003034 -0.992126
vn 0.125208 -0.003034 -0.992126
vn 0.974303 -0.224726 -0.015237
vn 0.974303 -0.224726 -0.015237
vn 0.974303 -0.224726 -0.015237
vn -0.100011 -0.018782 0.994809
vn -0.100011 -0.018782 0.994809
vn -0.100011 -0.018782 0.994809
vn -0.251172 0.940078 0.230577
vn -0.251172 0.940078 0.230577
vn -0.251172 0.940078 0.230577
vn -0.183789 -0.962463 0.199715
vn -0.183789 -0.962463 0.199715
vn -0.183789 -0.962463 0.199715
vn -0.126976 -0.926190 0.355034
vn -0.126976 -0.926190 0.355034
vn -0.126976 -0.926190 0.355034
vn -0.181675 -0.211488 0.960347
vn -0.181675 -0.211488 0.960347
vn -0.181675 -0.211488 0.960347
vn -0.999932 -0.005025 0.010481
vn -0.999932 -0.005025 0.010481
vn -0.999932 -0.005025 0.010481
vn -0.025761 0.903250 0.428340
vn -0.025761 0.903251 0.428340
vn -0.025761 0.903251 0.428340
vn -0.012795 0.141346 0.989877
vn -0.012795 0.141346 0.989877
vn -0.012795 0.141346 0.989877
vn 0.920263 0.384933 -0.070299
vn 0.920263 0.384933 -0.070299
vn 0.920263 0.384933 -0.070299
vn 0.444881 -0.004612 0.895578
vn 0.444881 -0.004612 0.895578
vn 0.444881 -0.004612 0.895578
vn 0.942635 0.000229 0.333825
vn 0.942635 0.000229 0.333825
vn 0.942635 0.000229 0.333825
vn -0.999962 0.001970 0.008458
vn -0.999962 0.001970 0.008458
vn -0.999962 0.001970 0.008458
vn -0.358403 0.196462 0.912661
vn -0.358403 0.196462 0.912661
vn -0.358403 0.196462 0.912661
vn -0.299326 0.916842 0.264204
vn -0.299326 0.916842 0.264204
vn -0.299326 0.916842 0.264204

f 1//1 2//2 3//3
f 4//4 3//5 2//6
f 5//7 1//8 3//9
f 5//10 3//11 4//12
f 6//13 4//14 2//15
f 6//16 2//17 1//18
f 7//19 5//20 4//21
f 7//22 1//23 5//24
f 7//25 6//26 1//27
f 8//28 4//29 6//30
f 8//31 6//32 7//33
f 8//34 7//35 4//36
f 9//37 10//38 5//39
f 10//40 9//41 11//42
f 12//43 11//44 9//45
f 13//46 10//47 11//48
f 13//49 11//50 12//51
f 13//52 5//53 10//54
f 14//55 5//56 13//57
f 15//58 12//59 9//60
f 16//61 15//62 14//63
f 16//64 13//65 12//66
f 16//67 12//68 15//69
f 17//70 14//71 15//72
f 17//73 15//74 18//75
f 17//76 18//77 5//78
f 19//79 15//80 9//81
f 19//82 18//83 15//84
f 19//85 9//86 5//87
f 19//88 5//89 18//90
f 3//91 20//92 21//93
f 20//94 3//95 2//96
f 22//97 2//98 23//99
f 24//100 20//101 22//102
f 24//103 21//104 20//105
f 25//106 26//107 23//108
f 25//109 3//110 21//111
f 25//112 21//113 26//114
f 25//115 2//116 3//117
f 25//118 23//119 2//120
f 27//121 20//122 2//123
f 27//124 2//125 22//126
f 27//127 22//128 20//129
f 28//130 22//131 23//132
f 28//133 24//134 22//135
f 29//136 24//137 28//138
f 29//139 23//140 26//141
f 29//142 28//143 23//144
f 29//145 26//146 21//147
f 29//148 21//149 24//150
f 11//151 30//152 31//153
f 11//154 31//155 32//156
f 10//157 11//158 32//159
f 33//160 32//161 31//162
f 34//163 31//164 30//165
f 34//166 30//167 35//168
f 36//169 30//170 11//171
f 36//172 11//173 10//174
f 36//175 35//176 30//177
f 37//178 35//179 36//180
f 37//181 32//182 33//183
f 37//184 10//185 32//186
f 38//187 35//188 37//189
f 38//190 37//191 33//192
f 38//193 33//194 31//195
f 38//196 31//197 34//198
f 38//199 34//200 35//201
f 39//202 36//203 10//204
f 39//205 10//206 37//207
f 39//208 37//209 36//210
f 32//211 25//212 40//213
f 26//214 40//215 25//216
f 26//217 25//218 23//219
f 33//220 31//221 32//222
f 33//223 32//224 40//225
f 41//226 25//227 32//228
f 41//229 31//230 23//231
f 41//232 23//233 25//234
f 42//235 32//236 31//237
f 42//238 31//239 41//240
f 42//241 41//242 32//243
f 43//244 23//245 31//246
f 44//247 40//248 43//249
f 44//250 43//251 31//252
f 44//253 31//254 33//255
f 44//256 33//257 40//258
f 45//259 26//260 23//261
f 45//262 23//263 43//264
f 45//265 40//266 26//267
f 45//268 43//269 40//270
f 21//271 37//272 46//273
f 37//274 21//275 47//276
f 48//277 37//278 47//279
f 49//280 46//281 48//282
f 7//283 47//284 21//285
f 50//286 46//287 37//288
f 50//289 37//290 48//291
f 50//292 48//293 46//294
f 51//295 46//296 49//297
f 51//298 49//299 7//300
f 51//301 21//302 46//303
f 52//304 7//305 21//306
f 52//307 21//308 51//309
f 52//310 51//311 7//312
f 53//313 47//314 7//315
f 54//316 49//317 48//318
f 54//319 48//320 47//321
f 54//322 47//323 53//324
f 54//325 7//326 49//327
f 54//328 53//329 7//330
f 55//331 56//332 22//333
f 57//334 56//335 55//336
f 58//337 55//338 22//339
f 58//340 59//341 60//342
f 61//343 22//344 56//345
f 61//346 56//347 59//348
f 62//349 58//350 60//351
f 62//352 57//353 55//354
f 63//355 22//356 61//357
f 63//358 61//359 59//360
f 63//361 59//362 58//363
f 63//364 58//365 22//366
f 64//367 57//368 62//369
f 64//370 62//371 60//372
f 64//373 56//374 57//375
f 64//376 60//377 59//378
f 64//379 59//380 56//381
f 65//382 55//383 58//384
f 65//385 58//386 62//387
f 65//388 62//389 55//390

